<?xml version="1.0" standalone="no"?>
<!DOCTYPE svg PUBLIC "-//W3C//DTD SVG 1.1//EN" "http://www.w3.org/Graphics/SVG/1.1/DTD/svg11.dtd" >
<svg>
<metadata>
Created by FontForge 20090914 at Tue Apr 12 12:53:05 2016
 By www-data
Copyright (c) 2016 by Misti's Fonts. All rights reserved.
</metadata>
<defs>
<font id="VampireKissDemo" horiz-adv-x="284" >
  <font-face 
    font-family="Vampire Kiss Demo"
    font-weight="400"
    font-stretch="normal"
    units-per-em="1000"
    panose-1="0 0 0 0 0 0 0 0 0 0"
    ascent="750"
    descent="-250"
    x-height="491.998"
    cap-height="709"
    bbox="-237.249 -566.058 2053.38 1100.03"
    underline-thickness="50"
    underline-position="-50"
    unicode-range="U+000D-U+20AC"
  />
<missing-glyph horiz-adv-x="214" 
 />
    <glyph glyph-name=".notdef" horiz-adv-x="214" 
 />
    <glyph glyph-name="NULL" horiz-adv-x="0" 
 />
    <glyph glyph-name="NULL" horiz-adv-x="0" 
 />
    <glyph glyph-name="nonmarkingreturn" unicode="&#xd;" horiz-adv-x="214" 
 />
    <glyph glyph-name="space" unicode=" " horiz-adv-x="214" 
 />
    <glyph glyph-name="exclam" unicode="!" horiz-adv-x="262" 
d="M123 111c-2.66699 0 -4.66895 0.333008 -6.00195 1c-8 1.33301 -14.333 5.33301 -19 12s-6.33398 14.334 -5.00098 23.001l99 523c1.33301 8 5.5 14.333 12.5 19s14.5 6 22.5 4c8 -1.33301 14.333 -5.33301 19 -12s6.33398 -14.334 5.00098 -23.001l-99 -522
c-1.33301 -7.33301 -4.66602 -13.333 -9.99902 -18s-11.666 -7 -18.999 -7zM129.998 30c0 -8 -2.83301 -15 -8.5 -21s-12.834 -9 -21.501 -9s-15.834 3 -21.501 9s-8.5 13 -8.5 21c0 8.66699 2.83301 15.834 8.5 21.501s12.834 8.5 21.501 8.5s15.834 -2.83301 21.501 -8.5
s8.5 -12.834 8.5 -21.501z" />
    <glyph glyph-name="quotedbl" unicode="&#x22;" horiz-adv-x="290" 
d="M54 588c0 10 3.16699 17.667 9.5 23s13.166 8 20.499 8s14.166 -2.66699 20.499 -8s9.5 -13 9.5 -23v-168c0 -10 -3.16699 -17.667 -9.5 -23s-13.166 -8 -20.499 -8s-14.166 2.66699 -20.499 8s-9.5 13 -9.5 23v168zM174 588c0 10 3.16699 17.667 9.5 23
s13.166 8 20.499 8s14.166 -2.66699 20.499 -8s9.5 -13 9.5 -23v-168c0 -10 -3.16699 -17.667 -9.5 -23s-13.166 -8 -20.499 -8s-14.166 2.66699 -20.499 8s-9.5 13 -9.5 23v168z" />
    <glyph glyph-name="numbersign" unicode="#" horiz-adv-x="495" 
d="M66 439c-10 0 -17.667 3.16699 -23 9.5s-8 13.166 -8 20.499s2.66699 14.166 8 20.499s13 9.5 23 9.5h82l23 125c2 10 6.5 17.167 13.5 21.5s14.167 5.83301 21.5 4.5s13.833 -5.16602 19.5 -11.499s7.5 -14.5 5.5 -24.5l-21 -115h98l23 125c2 10 6.5 17.167 13.5 21.5
s14.167 5.83301 21.5 4.5s13.833 -5.16602 19.5 -11.499s7.5 -14.5 5.5 -24.5l-21 -115h63c10 0 17.667 -3.16699 23 -9.5s8 -13.166 8 -20.499s-2.66699 -14.166 -8 -20.499s-13 -9.5 -23 -9.5h-74l-13 -70h87c10 0 17.667 -3.16699 23 -9.5s8 -13.166 8 -20.499
s-2.66699 -14.166 -8 -20.499s-13 -9.5 -23 -9.5h-98l-23 -130c-2 -10 -6.5 -17.167 -13.5 -21.5s-14.333 -5.83301 -22 -4.5s-14.167 5.16602 -19.5 11.499s-7 14.5 -5 24.5l22 120h-99l-23 -130c-2 -10 -6.5 -17.167 -13.5 -21.5s-14.333 -5.83301 -22 -4.5
s-14.167 5.16602 -19.5 11.499s-7 14.5 -5 24.5l22 120h-48c-10 0 -17.667 3.16699 -23 9.5s-8 13.166 -8 20.499s2.66699 14.166 8 20.499s13 9.5 23 9.5h59l12 70h-71zM186 369h99l12 70h-98z" />
    <glyph glyph-name="dollar" unicode="$" horiz-adv-x="527" 
d="M374 539c27.333 22 45.4941 40.4961 54.4941 55.4961s12.5 25.833 10.5 32.5c-1.33301 4.66699 -6.33301 9.33398 -15 14.001s-21 7.66699 -37 9c-14 2 -29.333 2 -46 0c-8.66699 -42.667 -16.5 -85 -23.5 -127l-21.5 -127c17.333 -14.667 34 -29.5 50 -44.5
s29.667 -31.167 41 -48.5c16 -24.667 25.333 -49.667 28 -75c4 -26.667 -0.333008 -55.667 -13 -87c-10.667 -24.667 -26.167 -46.667 -46.5 -66s-45.166 -35.333 -74.499 -48c-8 -3.33301 -16.167 -6.33301 -24.5 -9s-16.833 -5 -25.5 -7l-12 -59
c-1.33301 -7.33301 -4.66602 -13.166 -9.99902 -17.499s-11.666 -6.5 -18.999 -6.5c-1.33301 0 -2.5 0.166992 -3.5 0.5s-2.16699 0.5 -3.5 0.5c-8 1.33301 -14.167 5.5 -18.5 12.5s-5.83301 14.5 -4.5 22.5l8 38c-3.33301 -0.666992 -8 -1 -14 -1
c-4 0 -8.16699 0.166992 -12.5 0.5s-8.5 0.5 -12.5 0.5c-30 3.33301 -54 10.666 -72 21.999s-29 26.333 -33 45c-6 23.333 2 48 24 74c20 23.333 50 46.666 90 69.999c7.33301 4 15 5 23 3s14 -6.66699 18 -14s5 -15 3 -23s-6.66699 -14 -14 -18
c-18.667 -11.333 -33.667 -21.5 -45 -30.5s-20.166 -16.833 -26.499 -23.5s-10.333 -12.167 -12 -16.5s-2.5 -7.16602 -2.5 -8.49902c0.666992 -2.66699 5.33398 -6.33398 14.001 -11.001s21.667 -7.66699 39 -9c3.33301 0 6.33301 -0.166992 9 -0.5s5.66699 -0.5 9 -0.5
c4.66699 0 9.16699 0.166992 13.5 0.5s8.5 0.833008 12.5 1.5c9.33301 48.667 18 96.667 26 144l23 141c0.666992 3.33301 1.16699 7 1.5 11s1.16602 8 2.49902 12l-51 45c-16 14.667 -29.667 30.334 -41 47.001c-30 44 -32.333 88.667 -7 134
c14.667 26 33.167 46.333 55.5 61s43.166 25.667 62.499 33l39 12l12 58c2 8 6.5 14.167 13.5 18.5s14.5 5.83301 22.5 4.5c8 -2 14.167 -6.5 18.5 -13.5s5.83301 -14.5 4.5 -22.5l-8 -37c7.33301 0.666992 14.333 0.833984 21 0.500977s13.334 -0.833008 20.001 -1.5
c24.667 -3.33301 45 -9.33301 61 -18c21.333 -12 35 -28 41 -48c13.333 -44.667 -14.667 -95 -84 -151c-6.66699 -5.33301 -14 -7.66602 -22 -6.99902s-14.667 4.33398 -20 11.001s-7.66602 14 -6.99902 22s4.33398 14.667 11.001 20zM335.994 269.996
c-6 9.33301 -13.5 18.6689 -22.5 28.002s-18.5 18.666 -28.5 27.999l-20 -123c-6.66699 -41.333 -14 -83.333 -22 -126c22 8 42.5 19.167 61.5 33.5s33.167 32.166 42.5 53.499c8 19.333 11 37.5 9 54.5s-8.66699 34.167 -20 51.5zM242.994 439.999l16.501 97.5l17.5 98.5
c-0.666992 0 -2.33398 -0.666992 -5.00098 -2c-20 -7.33301 -37.5 -16.666 -52.5 -27.999s-26.167 -24 -33.5 -38c-12 -21.333 -13 -41.333 -3 -60s30 -41.334 60 -68.001z" />
    <glyph glyph-name="percent" unicode="%" horiz-adv-x="473" 
d="M108 16c-4.66699 -9.33301 -10.834 -15 -18.501 -17s-15 -1.33301 -22 2s-12.167 8.66602 -15.5 15.999s-2.66602 15.666 2.00098 24.999l310 641c4.66699 9.33301 10.834 15 18.501 17s15 1.33301 22 -2s12.167 -8.66602 15.5 -15.999s2.66602 -15.666 -2.00098 -24.999
zM121 429c-33.333 0 -57.6689 13.999 -73.002 41.999c-8 14.667 -12.167 30 -12.5 46s0.5 30 2.5 42c6 30.667 17.333 59 34 85c26.667 38 57.334 55.333 92.001 52c26 -3.33301 45 -17.333 57 -42c8 -18 12 -40.667 12 -68
c-1.33301 -17.333 -4.16602 -34.666 -8.49902 -51.999s-10.5 -33 -18.5 -47c-10.667 -18.667 -23.167 -33 -37.5 -43s-29.5 -15 -45.5 -15h-2zM326.997 0.999023c-33.333 0 -57.6689 13.999 -73.002 41.999c-8 14.667 -12.167 30 -12.5 46s0.5 30 2.5 42
c6 30.667 17.333 59 34 85c26.667 38 57.334 55.333 92.001 52c26 -3.33301 45 -17.333 57 -42c8 -18 12 -40.667 12 -68c-1.33301 -17.333 -4.16602 -34.666 -8.49902 -51.999s-10.5 -33 -18.5 -47c-10.667 -18.667 -23.167 -33 -37.5 -43s-29.5 -15 -45.5 -15h-2z
M361.994 207.998c-10.667 0 -22 -8.66602 -34 -25.999c-6 -8.66699 -11 -18.334 -15 -29.001s-7 -21 -9 -31s-2.83301 -19.5 -2.5 -28.5s2.16602 -16.5 5.49902 -22.5c1.33301 -2.66699 3.33301 -5 6 -7s7.66699 -3 15 -3c6 0 12 2.83301 18 8.5s11.333 13.167 16 22.5
s8.5 19.833 11.5 31.5s4.83301 23.834 5.5 36.501c0 17.333 -2 30.666 -6 39.999c-2 4 -3.66699 6.33301 -5 7s-2.66602 1 -3.99902 1h-2zM155.994 635.999c-10.667 0 -22 -8.66602 -34 -25.999c-6 -8.66699 -11 -18.334 -15 -29.001s-7 -21 -9 -31
s-2.83301 -19.5 -2.5 -28.5s2.16602 -16.5 5.49902 -22.5c1.33301 -2.66699 3.33301 -5 6 -7s7.66699 -3 15 -3c6 0 12 2.83301 18 8.5s11.333 13.167 16 22.5s8.5 19.833 11.5 31.5s4.83301 23.834 5.5 36.501c0 17.333 -2 30.666 -6 39.999c-2 4 -3.66699 6.33301 -5 7
s-2.66602 1 -3.99902 1h-2z" />
    <glyph glyph-name="ampersand" unicode="&#x26;" horiz-adv-x="683" 
d="M543 -244c-20.667 0 -41.6699 2.66992 -63.0029 8.00293c-47.333 12 -90.333 38.333 -129 79c-44 47.333 -80 110.333 -108 189l-4 10c-11.333 -7.33301 -22.666 -13.333 -33.999 -18c-33.333 -16 -64.666 -22 -93.999 -18c-28.667 3.33301 -51 15 -67 35
c-17.333 19.333 -25.333 44 -24 74c0.666992 22 5.5 45.167 14.5 69.5s20.833 49.166 35.5 74.499s31.167 50.833 49.5 76.5l56.5 76.5v61c0.666992 11.333 1.5 23.666 2.5 36.999s2.33301 26.5 4 39.5s3.83398 25.5 6.50098 37.5s6 23 10 33c10.667 24.667 22 44.667 34 60
s24.333 26.666 37 33.999s24.834 11.333 36.501 12s22.167 -1 31.5 -5c23.333 -9.33301 38 -27.666 44 -54.999c6 -24.667 3 -51.334 -9 -80.001c-8 -20 -22.167 -43.667 -42.5 -71l-68.5 -90l-25 -33c0.666992 -20 1.83398 -40.333 3.50098 -61
s4.16699 -41.334 7.5 -62.001c2 -16.667 4.83301 -35 8.5 -55s8.16699 -41.333 13.5 -64c22 26 45.5 62.833 70.5 110.5s46.5 110.834 64.5 189.501c1.33301 8 5.5 14.167 12.5 18.5s14.833 5.5 23.5 3.5c8 -1.33301 14.167 -5.5 18.5 -12.5s5.5 -14.833 3.5 -23.5
c-16 -72 -37.5 -136.5 -64.5 -193.5s-58.5 -105.167 -94.5 -144.5l-15 -15c11.333 -36.667 25.666 -72.334 42.999 -107.001s38.333 -65.334 63 -92.001c63.333 -67.333 141.333 -84.666 234 -51.999c8 2.66699 15.667 2.16699 23 -1.5s12.333 -9.16699 15 -16.5
c3.33301 -8 3.16602 -15.667 -0.500977 -23s-9.5 -12.666 -17.5 -15.999c-36 -12.667 -71.333 -19 -106 -19zM181.997 319.003c-27.333 -37.333 -50.834 -74 -70.501 -110s-30.167 -68 -31.5 -96c-0.666992 -28 12 -44 38 -48c12 -1.33301 26.833 0.666992 44.5 6
s36.834 16 57.501 32c-6.66699 24.667 -12.667 50.167 -18 76.5s-10 53.5 -14 81.5c-1.33301 9.33301 -2.5 19 -3.5 29s-1.83301 19.667 -2.5 29zM311.996 666.003c-5.33301 0 -13.501 -5.16602 -24.501 -15.499s-22.167 -28.5 -33.5 -54.5c-4 -10 -7.5 -24.167 -10.5 -42.5
s-5.16699 -39.5 -6.5 -63.5l50.5 67c15 20.667 25.167 37.667 30.5 51c6.66699 16.667 8.83398 30.167 6.50098 40.5s-5.5 16.166 -9.5 17.499h-3z" />
    <glyph glyph-name="quotesingle" unicode="'" horiz-adv-x="166" 
d="M50 588c0 10 3.16699 17.667 9.5 23s13.166 8 20.499 8s14.166 -2.66699 20.499 -8s9.5 -13 9.5 -23v-168c0 -10 -3.16699 -17.667 -9.5 -23s-13.166 -8 -20.499 -8s-14.166 2.66699 -20.499 8s-9.5 13 -9.5 23v168v0z" />
    <glyph glyph-name="parenleft" unicode="(" horiz-adv-x="498" 
d="M271 -198c-1.33301 0 -4.66504 0.669922 -9.99805 2.00293c-78 26.667 -137.667 71 -179 133c-38 57.333 -57 124 -57 200c0 54 9.66699 109.333 29 166c20.667 57.333 48.667 110.666 84 159.999c18.667 26 39 50.5 61 73.5s45.667 44.167 71 63.5
c52.667 41.333 111 73.333 175 96c8 3.33301 15.667 3.16602 23 -0.500977s12.333 -9.5 15 -17.5c3.33301 -7.33301 3.16602 -14.833 -0.500977 -22.5s-9.5 -12.834 -17.5 -15.501c-62 -22 -116.667 -52.333 -164 -91s-87 -81 -119 -127s-56.167 -93.833 -72.5 -143.5
s-24.5 -96.834 -24.5 -141.501c0.666992 -67.333 17.667 -124.666 51 -171.999s81.666 -82.333 144.999 -105c8 -2.66699 13.833 -7.66699 17.5 -15s4.16699 -15 1.5 -23c-5.33301 -13.333 -15 -20 -29 -20z" />
    <glyph glyph-name="parenright" unicode=")" horiz-adv-x="498" 
d="M227 702c1.33301 0 4.66504 -0.669922 9.99805 -2.00293c78 -26.667 137.667 -71 179 -133c38 -57.333 57 -124 57 -200c0 -54 -9.66699 -109.333 -29 -166c-20.667 -57.333 -48.667 -110.666 -84 -159.999c-18.667 -26 -39 -50.5 -61 -73.5s-45.667 -44.167 -71 -63.5
c-52.667 -41.333 -111 -73.333 -175 -96c-8 -3.33301 -15.667 -3.16602 -23 0.500977s-12.333 9.5 -15 17.5c-3.33301 7.33301 -3.16602 14.833 0.500977 22.5s9.5 12.834 17.5 15.501c62 22 116.667 52.333 164 91s87 81 119 127s56.167 93.833 72.5 143.5
s24.5 96.834 24.5 141.501c-0.666992 67.333 -17.667 124.666 -51 171.999s-81.666 82.333 -144.999 105c-8 2.66699 -13.833 7.66699 -17.5 15s-4.16699 15 -1.5 23c5.33301 13.333 15 20 29 20z" />
    <glyph glyph-name="asterisk" unicode="*" horiz-adv-x="649" 
d="M326 75c-8 0 -14.998 2.99316 -20.998 8.99316s-9 13 -9 21c0 14.667 -3.33301 29.334 -10 44.001s-15.667 29.167 -27 43.5s-24.166 28.5 -38.499 42.5l-45.5 43c-28 26.667 -54.833 53.834 -80.5 81.501s-43.834 57.834 -54.501 90.501
c-8.66699 26.667 -10.334 52.834 -5.00098 78.501s17 48.167 35 67.5c14.667 16.667 33.667 28.667 57 36c22.667 8 46 9 70 3c8 -2 17.5 -5.5 28.5 -10.5s22.5 -12.667 34.5 -23s23.667 -23.666 35 -39.999s21.666 -36.833 30.999 -61.5
c12.667 32.667 29.334 60.334 50.001 83.001c24.667 28 53 45 85 51c24.667 5.33301 48.834 3.83301 72.501 -4.5s43.5 -22.166 59.5 -41.499c15.333 -18 25 -39 29 -63c4 -25.333 0.666992 -51 -10 -77c-13.333 -33.333 -32.833 -63.5 -58.5 -90.5
s-51.834 -53.167 -78.501 -78.5l-44.5 -43c-14.333 -14 -27 -28.167 -38 -42.5s-19.833 -28.833 -26.5 -43.5s-10 -29.667 -10 -45c0 -8 -2.83301 -15 -8.5 -21s-12.834 -9 -21.501 -9zM167.002 578.993c-20.667 0 -38.335 -7.99414 -53.002 -23.9941
c-22 -24 -27.667 -52.667 -17 -86c8.66699 -25.333 24.334 -50.333 47.001 -75s46.667 -48.667 72 -72l60.5 -58.5c19.667 -19.667 36.167 -40.167 49.5 -61.5c13.333 21.333 29.666 41.833 48.999 61.5l59 58.5c24.667 23.333 48.334 47.166 71.001 71.499
s39.667 50.166 51 77.499c12.667 30 9.66699 56.333 -9 79c-9.33301 11.333 -20.5 19.166 -33.5 23.499s-26.5 5.16602 -40.5 2.49902c-19.333 -4 -37 -15 -53 -33c-18.667 -20.667 -34.334 -51.334 -47.001 -92.001c-3.33301 -12.667 -6.5 -26 -9.5 -40
s-5.5 -28.667 -7.5 -44c-1.33301 -7.33301 -4.83301 -13.333 -10.5 -18s-12.167 -7 -19.5 -7s-13.666 2.33301 -18.999 7s-8.66602 10.667 -9.99902 18c-5.33301 30.667 -11.333 58.667 -18 84c-11.333 40 -26.666 70.667 -45.999 92
c-14.667 17.333 -31.334 28.666 -50.001 33.999c-6.66699 1.33301 -12 2 -16 2z" />
    <glyph glyph-name="plus" unicode="+" horiz-adv-x="302" 
d="M50 283c-10 0 -17.667 3.16699 -23 9.5s-8 13.166 -8 20.499s2.66699 14.166 8 20.499s13 9.5 23 9.5h71v71c0 10 3.16699 17.667 9.5 23s13.166 8 20.499 8s14.166 -2.66699 20.499 -8s9.5 -13 9.5 -23v-71h71c10 0 17.667 -3.16699 23 -9.5s8 -13.166 8 -20.499
s-2.66699 -14.166 -8 -20.499s-13 -9.5 -23 -9.5h-71v-71c0 -10 -3.16699 -17.667 -9.5 -23s-13.166 -8 -20.499 -8s-14.166 2.66699 -20.499 8s-9.5 13 -9.5 23v71h-71v0z" />
    <glyph glyph-name="comma" unicode="," horiz-adv-x="147" 
d="M66 122c2 10 6.66699 16.833 14 20.5s14.666 4.5 21.999 2.5s13.333 -6.16699 18 -12.5s6 -14.5 4 -24.5l-43 -190c-2 -10 -6.66699 -16.833 -14 -20.5s-14.666 -4.5 -21.999 -2.5s-13.333 6.16699 -18 12.5s-6 14.5 -4 24.5l43 190v0z" />
    <glyph glyph-name="hyphen" unicode="-" horiz-adv-x="383" 
d="M90 249c-10 0 -17.667 3.16699 -23 9.5s-8 13.166 -8 20.499s2.66699 14.166 8 20.499s13 9.5 23 9.5h202c10 0 17.667 -3.16699 23 -9.5s8 -13.166 8 -20.499s-2.66699 -14.166 -8 -20.499s-13 -9.5 -23 -9.5h-202v0z" />
    <glyph glyph-name="period" unicode="." horiz-adv-x="102" 
d="M59 30c0 -8 -2.83301 -15 -8.5 -21s-12.834 -9 -21.501 -9s-15.834 3 -21.501 9s-8.5 13 -8.5 21c0 8.66699 2.83301 15.834 8.5 21.501s12.834 8.5 21.501 8.5s15.834 -2.83301 21.501 -8.5s8.5 -12.834 8.5 -21.501z" />
    <glyph glyph-name="slash" unicode="/" horiz-adv-x="406" 
d="M75 16c-4.66699 -9.33301 -10.834 -15 -18.501 -17s-15 -1.33301 -22 2s-12.167 8.66602 -15.5 15.999s-2.66602 15.666 2.00098 24.999l310 641c4.66699 9.33301 10.834 15 18.501 17s15 1.33301 22 -2s12.167 -8.66602 15.5 -15.999s2.66602 -15.666 -2.00098 -24.999
l-310 -641v0z" />
    <glyph glyph-name="zero" unicode="0" horiz-adv-x="573" 
d="M244 -9c-79.333 0 -137 32.667 -173 98c-17.333 30.667 -27.333 67.667 -30 111c-2 19.333 -2.33301 39.5 -1 60.5s3.66602 42.5 6.99902 64.5c7.33301 43.333 19.5 86 36.5 128s37.167 80 60.5 114c15.333 22.667 31.333 42.5 48 59.5s34 31.5 52 43.5
c42 27.333 84.667 38.333 128 33c56.667 -5.33301 99.334 -37 128.001 -95c11.333 -24 19.666 -51.5 24.999 -82.5s7.33301 -64.5 6 -100.5c-1.33301 -24 -3.66602 -48.5 -6.99902 -73.5s-8.33301 -49.5 -15 -73.5c-6.66699 -25.333 -14.5 -49.5 -23.5 -72.5
s-19.167 -44.5 -30.5 -64.5c-25.333 -45.333 -54.333 -80.333 -87 -105c-37.333 -29.333 -77.333 -44.333 -120 -45h-4zM352 644c-18 0 -34.9961 -3.83008 -50.9961 -11.4971s-30.833 -17 -44.5 -28s-25.834 -23 -36.501 -36s-19.667 -24.833 -27 -35.5
c-20.667 -30.667 -38.5 -65 -53.5 -103s-26.167 -76.333 -33.5 -115c-7.33301 -40 -9.33301 -77 -6 -111s11.333 -62.667 24 -86c24 -46 65 -68.333 123 -67c19.333 0 37.166 4.16699 53.499 12.5s31 18.5 44 30.5s24.333 24.833 34 38.5s17.5 26.167 23.5 37.5
c20 36 36.167 76.667 48.5 122s19.166 90.333 20.499 135c0.666992 24.667 -0.5 49.667 -3.5 75s-8.5 48.166 -16.5 68.499s-18.833 37.166 -32.5 50.499s-30.834 20.666 -51.501 21.999l-1 1h-14z" />
    <glyph glyph-name="one" unicode="1" horiz-adv-x="321" 
d="M149 -9l-5.00098 0.000976562c-8 1.33301 -14.333 5.5 -19 12.5s-6.33398 14.5 -5.00098 22.5l91 523c-48 -58 -90.667 -88.333 -128 -91c-9.33301 -0.666992 -20.166 0.833008 -32.499 4.5s-24.166 12.834 -35.499 27.501c-5.33301 6.66699 -7.5 14 -6.5 22
s4.83301 14.667 11.5 20s14 7.5 22 6.5s14.667 -4.83301 20 -11.5c3.33301 -4.66699 6.33301 -7.33398 9 -8.00098s5 -1 7 -1s5.66699 1 11 3s12.166 5.83301 20.499 11.5s18.166 14.167 29.499 25.5s24.333 26.666 39 45.999c8.66699 10.667 16.667 21.334 24 32.001
l19 28.5c5.33301 8.33301 9.5 15.166 12.5 20.499l4.5 8c4 6 9.33301 10.333 16 13s13.334 2.66699 20.001 0c7.33301 -2.66699 12.833 -7 16.5 -13s4.83398 -12.667 3.50098 -20l-115 -657c-3.33301 -16.667 -13.333 -25 -30 -25z" />
    <glyph glyph-name="two" unicode="2" horiz-adv-x="589" 
d="M702 -260l-10.499 -0.00390625c-3.66699 0 -7.16699 0.333008 -10.5 1c-34 4 -68.667 18.333 -104 43c-30.667 21.333 -60.334 47.833 -89.001 79.5l-85 98.5l-48 57c-16 18.667 -32 36 -48 52l-21.5 -15l-21.5 -14c-48 -28.667 -91.333 -45.667 -130 -51
c-23.333 -3.33301 -42.333 -2.66602 -57 2.00098s-26 10.334 -34 17.001c-14 11.333 -23.333 25.5 -28 42.5s-4 34.833 2 53.5c9.33301 27.333 27 50 53 68c27.333 19.333 60.666 30 99.999 32c44 2 90.333 -16.333 139 -55c28 25.333 52.833 54.166 74.5 86.499
s39.5 66.833 53.5 103.5c18.667 47.333 29 92.833 31 136.5s-4.33301 80.167 -19 109.5c-15.333 30.667 -37.666 49.334 -66.999 56.001c-37.333 9.33301 -83.666 2.33301 -138.999 -21c-8 -3.33301 -15.667 -3.33301 -23 0s-12.666 9 -15.999 17
c-3.33301 7.33301 -3.33301 14.833 0 22.5s8.66602 13.167 15.999 16.5c68 28.667 126.667 36.334 176 23.001c23.333 -5.33301 44.166 -15.5 62.499 -30.5s33.166 -33.833 44.499 -56.5c18.667 -37.333 27 -81.833 25 -133.5s-13.667 -105.5 -35 -161.5s-51 -107 -89 -153
c-8 -10.667 -16.167 -20.5 -24.5 -29.5s-17.166 -17.833 -26.499 -26.5l49 -53.5l47 -56.5l80.5 -93c27 -30 54.5 -54.667 82.5 -74s54.333 -30.166 79 -32.499s49.667 3.83398 75 18.501c7.33301 4 15 5 23 3s14.333 -6.66699 19 -14c4 -7.33301 5 -14.833 3 -22.5
s-6.66699 -13.834 -14 -18.501c-31.333 -18 -63 -27 -95 -27zM177.001 145.996h-3.99805c-28 -1.33301 -50.333 -8 -67 -20s-27.334 -24.667 -32.001 -38c-1.33301 -3.33301 -2 -8.16602 -2 -14.499s2.66699 -11.833 8 -16.5c9.33301 -7.33301 26.666 -9.33301 51.999 -6
s59.333 17.666 102 42.999c8.66699 4.66699 17.667 10.667 27 18c-14 10.667 -28 19 -42 25s-28 9 -42 9z" />
    <glyph glyph-name="three" unicode="3" horiz-adv-x="578" 
d="M206 -5c-29.333 0 -56.332 5.66602 -80.999 16.999c-24 10 -44.333 25.333 -61 46s-28 43.667 -34 69c-3.33301 15.333 -4.66602 31 -3.99902 47s3.66699 31.667 9 47c10.667 32.667 28.667 60.667 54 84c12.667 12 26.667 21.833 42 29.5s31 13.167 47 16.5
c17.333 3.33301 34.5 3.5 51.5 0.5s32.167 -8.83301 45.5 -17.5c7.33301 -4.66699 11.666 -11 12.999 -19s-0.333984 -15.667 -5.00098 -23c-4.66699 -6.66699 -10.834 -10.834 -18.501 -12.501s-15.167 -0.166992 -22.5 4.5c-14.667 9.33301 -32.334 12 -53.001 8
c-22 -4 -41.667 -14.333 -59 -31c-18 -17.333 -30.667 -37 -38 -59c-6 -20.667 -7 -41.334 -3 -62.001c7.33301 -34.667 27.333 -59.334 60 -74.001c16 -7.33301 33.833 -11.166 53.5 -11.499s39.167 2.83398 58.5 9.50098c20 6.66699 39.167 16.167 57.5 28.5
s35.166 27.166 50.499 44.499c14 16.667 25.833 34.834 35.5 54.501s16.834 39.834 21.501 60.501c5.33301 26 6.33301 51.667 3 77s-11 48.333 -23 69c-12 20 -27.5 37 -46.5 51s-40.5 24 -64.5 30c-11.333 3.33301 -18.666 11 -21.999 23c-2 12.667 1.66699 22.667 11 30
l145 115h-258c-8.66699 0 -15.834 2.83301 -21.501 8.5s-8.5 12.834 -8.5 21.501c0 8 2.83301 15 8.5 21s12.834 9 21.501 9h344c14 0 23.333 -6.66699 28 -20c4 -14 0.666992 -25.333 -10 -34l-170 -135c10.667 -6 21.667 -13 33 -21c25.333 -19.333 46 -42.333 62 -69
c15.333 -26 25.666 -56 30.999 -90c4 -33.333 2.66699 -66 -4 -98c-5.33301 -26 -14.166 -51 -26.499 -75s-27.166 -46.333 -44.499 -67c-18.667 -21.333 -39.5 -39.833 -62.5 -55.5s-47.167 -27.5 -72.5 -35.5c-24 -8 -48.333 -12 -73 -12z" />
    <glyph glyph-name="four" unicode="4" horiz-adv-x="653" 
d="M325 -10l-6.00293 -0.000976562c-8 1.33301 -14.333 5.5 -19 12.5s-6.33398 14.5 -5.00098 22.5l40 232h-293c-12 0 -20.667 5 -26 15c-2.66699 4.66699 -4.16699 9.5 -4.5 14.5s1.16699 10.167 4.5 15.5c0.666992 1.33301 5.5 9.5 14.5 24.5s21.667 34.167 38 57.5
s36 49.5 59 78.5s48.5 58.5 76.5 88.5c68.667 70.667 136.667 123.667 204 159c87.333 45.333 172 60 254 44c8 -1.33301 14.333 -5.5 19 -12.5s6.33398 -14.5 5.00098 -22.5c-2 -8.66699 -6.33301 -15.167 -13 -19.5s-14.334 -5.83301 -23.001 -4.5
c-38.667 8 -76.834 7.5 -114.501 -1.5s-73.667 -22.833 -108 -41.5s-66.666 -40.667 -96.999 -66s-57.833 -50.666 -82.5 -75.999c-34 -36 -64 -71.333 -90 -106s-46.667 -63.667 -62 -87h250l44 253c1.33301 8 5.33301 14.5 12 19.5s14.334 6.83301 23.001 5.5
c8 -1.33301 14.333 -5.5 19 -12.5s6.33398 -14.5 5.00098 -22.5l-95 -545c-1.33301 -7.33301 -4.66602 -13.333 -9.99902 -18s-11.666 -7 -18.999 -7z" />
    <glyph glyph-name="five" unicode="5" horiz-adv-x="540" 
d="M176 -9c-9.33301 0 -18.3271 0.335938 -26.9941 1.00293s-17.334 2 -26.001 4c-23.333 5.33301 -45 14.5 -65 27.5s-37 28.833 -51 47.5c-5.33301 6.66699 -7.5 14 -6.5 22s5.16699 14.667 12.5 20c6.66699 5.33301 14 7.33301 22 6s14.667 -5.33301 20 -12
c19.333 -26 46.666 -43.333 81.999 -52c36 -8 73.333 -5 112 9c19.333 7.33301 37.666 17 54.999 29s32.666 26 45.999 42c28 32.667 45 68.667 51 108c7.33301 37.333 3 71.666 -13 102.999c-15.333 30 -39 51.667 -71 65s-67.667 16 -107 8
c-39.333 -9.33301 -75 -28.333 -107 -57c-5.33301 -4 -11.166 -6.33301 -17.499 -7s-12.166 0.666016 -17.499 3.99902s-9.5 7.83301 -12.5 13.5s-3.83301 11.5 -2.5 17.5l54 292c1.33301 7.33301 4.66602 13.333 9.99902 18s11.666 7 18.999 7h374
c8.66699 0 15.834 -3 21.501 -9s8.5 -13 8.5 -21c0 -8.66699 -2.83301 -15.834 -8.5 -21.501s-12.834 -8.5 -21.501 -8.5h-349l-36 -196c25.333 12.667 49.666 21.334 72.999 26.001c50.667 11.333 98.334 7.66602 143.001 -11.001
c21.333 -9.33301 40.666 -21.833 57.999 -37.5s31.333 -34.167 42 -55.5c10.667 -20.667 17.667 -43 21 -67s3 -48.333 -1 -73c-4.66699 -24 -12.5 -47.833 -23.5 -71.5s-25.167 -45.167 -42.5 -64.5c-16.667 -20 -35.834 -37.667 -57.501 -53s-44.167 -27.333 -67.5 -36
c-15.333 -6 -31 -10.333 -47 -13s-31.667 -4 -47 -4z" />
    <glyph glyph-name="six" unicode="6" horiz-adv-x="523" 
d="M218 -10c-17.333 0 -35.002 2.66699 -53.002 8c-36 12 -66 34.333 -90 67c-16.667 22.667 -27.834 51.667 -33.501 87s-5.83398 75 -0.500977 119c5.33301 42 15.5 83.833 30.5 125.5s33.833 81.167 56.5 118.5c19.333 32 40.833 60.5 64.5 85.5s48.834 45.5 75.501 61.5
c64 38.667 131.333 52 202 40c8 -1.33301 14.333 -5.33301 19 -12s6.33398 -14 5.00098 -22c-1.33301 -8.66699 -5.33301 -15.334 -12 -20.001s-14 -6.33398 -22 -5.00098c-36 6 -69 4.33301 -99 -5s-56.667 -22.5 -80 -39.5s-43.5 -36 -60.5 -57
s-30.833 -40.167 -41.5 -57.5c-18.667 -30.667 -34.5 -63.667 -47.5 -99s-22.5 -70.666 -28.5 -105.999c35.333 31.333 72.333 53.666 111 66.999c52.667 16.667 100.334 15 143.001 -5c30.667 -14 54.334 -36 71.001 -66c17.333 -30 23 -61.667 17 -95
c-3.33301 -20 -10.333 -40 -21 -60s-24.667 -38.667 -42 -56c-16.667 -17.333 -35 -31.666 -55 -42.999s-40.667 -19.666 -62 -24.999c-16 -4 -31.667 -6 -47 -6zM97.998 188c0 -4 0.171875 -7.83398 0.504883 -11.501s0.833008 -7.16699 1.5 -10.5
c4 -28 11.667 -49.667 23 -65c10 -14 20.667 -24.667 32 -32s22.666 -12.5 33.999 -15.5s22.166 -4.16699 32.499 -3.5s20.166 2 29.499 4c16 4 31.667 10.5 47 19.5s29.166 19.667 41.499 32s22.666 25.833 30.999 40.5s13.5 29.334 15.5 44.001
c3.33301 20 0 38.833 -10 56.5s-24.667 31.167 -44 40.5c-30 13.333 -63 14 -99 2c-46 -15.333 -91 -49 -135 -101z" />
    <glyph glyph-name="seven" unicode="7" horiz-adv-x="483" 
d="M474 687c4.66699 -13.333 1.66699 -24.333 -9 -33l-10 -9.5c-6.66699 -6.33301 -15.667 -15.666 -27 -27.999s-24.666 -27.833 -39.999 -46.5s-31.333 -40.667 -48 -66c-11.333 -16.667 -23 -35.167 -35 -55.5s-24.333 -42.833 -37 -67.5l84 -1
c8.66699 -0.666992 15.834 -3.83398 21.501 -9.50098s8.16699 -12.834 7.5 -21.501c0 -8 -2.83301 -14.833 -8.5 -20.5s-12.834 -8.5 -21.501 -8.5l-111 2c-19.333 -42 -37.833 -88.5 -55.5 -139.5s-33.167 -107.167 -46.5 -168.5c-4.66699 -15.333 -14.667 -23 -30 -23h-6
c-8 2 -14.333 6.5 -19 13.5s-6 14.5 -4 22.5c24 106 56 204.667 96 296l-66 1c-8.66699 0 -15.834 3 -21.501 9s-8.5 13.333 -8.5 22c0 8 3 14.833 9 20.5s13 8.5 21 8.5h1l92 -2c27.333 57.333 57.333 110 90 158c15.333 22.667 29.833 42.834 43.5 60.501
s26.167 32.834 37.5 45.501l-233 -1l-34 -72c-3.33301 -7.33301 -8.83301 -12.333 -16.5 -15s-15.167 -2.33398 -22.5 0.999023s-12.5 8.83301 -15.5 16.5s-2.83301 15.5 0.5 23.5l41 88c5.33301 12 14.333 18 27 18l326 2c6 0 11.667 -1.83301 17 -5.5s9 -8.5 11 -14.5z
" />
    <glyph glyph-name="eight" unicode="8" horiz-adv-x="482" 
d="M185 -9c-29.333 0 -56.667 5.16797 -82 15.501s-46.333 24.5 -63 42.5c-17.333 19.333 -28.5 41.166 -33.5 65.499s-3.16699 49.166 5.5 74.499c14 40 44.667 77.333 92 112c12.667 9.33301 25.667 18.166 39 26.499s26.666 16.166 39.999 23.499
c-21.333 14.667 -40.666 30.334 -57.999 47.001c-36.667 38 -55 77.667 -55 119c0 24.667 6.33301 48.834 19 72.501s30.334 44.167 53.001 61.5c21.333 17.333 46 30.833 74 40.5s56 14.5 84 14.5c29.333 0 56.833 -5.16699 82.5 -15.5s46.5 -24.5 62.5 -42.5
c17.333 -19.333 28.666 -41.333 33.999 -66s3.33301 -49.667 -6 -75c-14 -39.333 -44.333 -76.666 -91 -111.999c-13.333 -9.33301 -26.666 -18 -39.999 -26l-40 -23l29.5 -22.5c9.66699 -7.66699 19.167 -16.167 28.5 -25.5c36.667 -36.667 55 -76.334 55 -119.001
c0 -24 -6.33301 -47.833 -19 -71.5s-30.334 -44.5 -53.001 -62.5c-21.333 -17.333 -46 -30.666 -74 -39.999s-56 -14 -84 -14zM299.999 646.001c-21.333 0 -42.666 -3.66699 -63.999 -11s-40.333 -17.666 -57 -30.999c-15.333 -12 -27.333 -25.667 -36 -41
s-13 -30.333 -13 -45c0 -16 4.16699 -30.667 12.5 -44s16.833 -24.333 25.5 -33c10.667 -11.333 22.5 -21.5 35.5 -30.5l40.5 -27.5l52.5 29c17.667 10 34.167 20.667 49.5 32c18 13.333 33 27.166 45 41.499s20.333 28.5 25 42.5c5.33301 14 6.66602 28 3.99902 42
s-9 26.667 -19 38c-10.667 11.333 -25 20.5 -43 27.5s-37.333 10.5 -58 10.5zM240.999 314.001l-52 -29.001c-17.333 -10 -33.666 -20.667 -48.999 -32c-36.667 -26.667 -60.334 -54.667 -71.001 -84c-5.33301 -14 -6.66602 -28 -3.99902 -42s9 -26.667 19 -38
c10.667 -11.333 25 -20.5 43 -27.5s37.333 -10.5 58 -10.5c21.333 0 42.666 3.66699 63.999 11s40.333 17.333 57 30c15.333 12 27.333 25.833 36 41.5s13 30.834 13 45.501c0 16 -4.16699 30.667 -12.5 44s-16.833 24.333 -25.5 33c-10.667 11.333 -22.5 21.5 -35.5 30.5z
" />
    <glyph glyph-name="nine" unicode="9" horiz-adv-x="471" 
d="M288 714c17.333 0 35.002 -2.66699 53.002 -8c36 -12 66 -34.333 90 -67c16.667 -22.667 27.834 -51.667 33.501 -87s5.83398 -75 0.500977 -119c-5.33301 -42 -15.5 -83.833 -30.5 -125.5s-33.833 -81.167 -56.5 -118.5c-19.333 -32 -40.833 -60.5 -64.5 -85.5
s-48.834 -45.5 -75.501 -61.5c-64 -38.667 -131.333 -52 -202 -40c-8 1.33301 -14.333 5.33301 -19 12s-6.33398 14 -5.00098 22c1.33301 8.66699 5.33301 15.334 12 20.001s14 6.33398 22 5.00098c36 -6 69 -4.33301 99 5s56.667 22.5 80 39.5s43.5 36 60.5 57
s30.833 40.167 41.5 57.5c18.667 30.667 34.5 63.667 47.5 99s22.5 70.666 28.5 105.999c-35.333 -31.333 -72.333 -53.666 -111 -66.999c-52.667 -16.667 -100.334 -15 -143.001 5c-30.667 14 -54.334 36 -71.001 66c-17.333 30 -23 61.667 -17 95
c3.33301 20 10.333 40 21 60s24.667 38.667 42 56c16.667 17.333 35 31.666 55 42.999s40.667 19.666 62 24.999c16 4 31.667 6 47 6zM408.002 516c0 4 -0.168945 7.83398 -0.501953 11.501s-0.833008 7.16699 -1.5 10.5c-4 28 -11.667 49.667 -23 65
c-10 14 -20.667 24.667 -32 32s-22.666 12.5 -33.999 15.5s-22.333 4.16699 -33 3.5s-20.334 -2 -29.001 -4c-16 -4 -31.667 -10.5 -47 -19.5s-29.166 -19.667 -41.499 -32s-22.666 -25.833 -30.999 -40.5s-13.5 -29.334 -15.5 -44.001c-3.33301 -20 0 -38.833 10 -56.5
s24.667 -31.167 44 -40.5c30 -13.333 63 -14 99 -2c46 15.333 91 49 135 101z" />
    <glyph glyph-name="colon" unicode=":" horiz-adv-x="206" 
d="M134 30c0 -8 -2.83301 -15 -8.5 -21s-12.834 -9 -21.501 -9s-15.834 3 -21.501 9s-8.5 13 -8.5 21c0 8.66699 2.83301 15.834 8.5 21.501s12.834 8.5 21.501 8.5s15.834 -2.83301 21.501 -8.5s8.5 -12.834 8.5 -21.501zM134 370c0 -8 -2.83301 -15 -8.5 -21
s-12.834 -9 -21.501 -9s-15.834 3 -21.501 9s-8.5 13 -8.5 21c0 8.66699 2.83301 15.834 8.5 21.501s12.834 8.5 21.501 8.5s15.834 -2.83301 21.501 -8.5s8.5 -12.834 8.5 -21.501z" />
    <glyph glyph-name="semicolon" unicode=";" horiz-adv-x="212" 
d="M154 370c0 -8 -2.83301 -15 -8.5 -21s-12.834 -9 -21.501 -9s-15.834 3 -21.501 9s-8.5 13 -8.5 21c0 8.66699 2.83301 15.834 8.5 21.501s12.834 8.5 21.501 8.5s15.834 -2.83301 21.501 -8.5s8.5 -12.834 8.5 -21.501zM66 122l-43 -190
c-2 -10 -0.666992 -18.167 4 -24.5s10.667 -10.5 18 -12.5s14.666 -1.16699 21.999 2.5s12 10.5 14 20.5l43 190c2 10 0.666992 18.167 -4 24.5s-10.667 10.5 -18 12.5s-14.666 1.16699 -21.999 -2.5s-12 -10.5 -14 -20.5z" />
    <glyph glyph-name="less" unicode="&#x3c;" horiz-adv-x="382" 
d="M337 519c0 -12 -5.66699 -21.002 -17 -27.002l-236 -117l244 -262c6 -6 8.83301 -13.167 8.5 -21.5s-3.5 -15.166 -9.5 -20.499s-13.167 -8 -21.5 -8s-15.166 3 -20.499 9l-272 291c-6.66699 6.66699 -9.33398 15.334 -8.00098 26.001c2 10 7.33301 17 16 21l272 136
c7.33301 3.33301 15 3.83301 23 1.5s13.667 -7.16602 17 -14.499c2.66699 -4.66699 4 -9.33398 4 -14.001z" />
    <glyph glyph-name="equal" unicode="=" horiz-adv-x="378" 
d="M88 249c-10 0 -17.667 3.16699 -23 9.5s-8 13.166 -8 20.499s2.66699 14.166 8 20.499s13 9.5 23 9.5h202c10 0 17.667 -3.16699 23 -9.5s8 -13.166 8 -20.499s-2.66699 -14.166 -8 -20.499s-13 -9.5 -23 -9.5h-202zM88 419c-10 0 -17.667 3.16699 -23 9.5
s-8 13.166 -8 20.499s2.66699 14.166 8 20.499s13 9.5 23 9.5h202c10 0 17.667 -3.16699 23 -9.5s8 -13.166 8 -20.499s-2.66699 -14.166 -8 -20.499s-13 -9.5 -23 -9.5h-202z" />
    <glyph glyph-name="greater" unicode="&#x3e;" horiz-adv-x="383" 
d="M46 519c0 4.66699 1.33301 9.33594 4 14.0029c3.33301 7.33301 9 12.166 17 14.499s15.667 1.83301 23 -1.5l272 -136c8.66699 -4 14 -11 16 -21c1.33301 -10.667 -1.33398 -19.334 -8.00098 -26.001l-272 -291c-5.33301 -6 -12.166 -9 -20.499 -9s-15.5 2.66699 -21.5 8
s-9.16699 12.166 -9.5 20.499s2.5 15.5 8.5 21.5l244 262l-236 117c-11.333 6 -17 15 -17 27z" />
    <glyph glyph-name="question" unicode="?" horiz-adv-x="416" 
d="M164 118c-7.33301 0 -13.002 1.66797 -17.002 5.00098c-7.33301 5.33301 -11.666 11.833 -12.999 19.5s0.333984 15.167 5.00098 22.5c14.667 20.667 29.167 42.667 43.5 66s28.333 47.5 42 72.5s26.5 50.167 38.5 75.5s23 50 33 74c21.333 51.333 35 94 41 128
c3.33301 20 4.16602 33.5 2.49902 40.5s-2.83398 11.167 -3.50098 12.5c-0.666992 0 -5.33398 -0.5 -14.001 -1.5s-23.667 -8.16699 -45 -21.5c-21.333 -12.667 -46 -30.334 -74 -53.001s-59.333 -50 -94 -82c-6 -6 -13.167 -8.83301 -21.5 -8.5s-15.166 3.5 -20.499 9.5
c-6 6 -8.83301 13.167 -8.5 21.5s3.5 15.5 9.5 21.5c78 72 140.333 121.333 187 148c24 13.333 45.333 21.666 64 24.999c14.667 2 26.334 1.33301 35.001 -2s15.667 -7.33301 21 -12c22.667 -20 29.667 -55 21 -105c-3.33301 -19.333 -8.5 -40.666 -15.5 -63.999
s-16.167 -49 -27.5 -77c-10 -25.333 -21.5 -51.333 -34.5 -78s-26.5 -53 -40.5 -79s-28.667 -51.5 -44 -76.5s-30.666 -48.167 -45.999 -69.5c-5.33301 -8 -13.333 -12 -24 -12zM169.998 30.001c0 -8 -2.83301 -15 -8.5 -21s-12.834 -9 -21.501 -9s-15.834 3 -21.501 9
s-8.5 13 -8.5 21c0 8.66699 2.83301 15.834 8.5 21.501s12.834 8.5 21.501 8.5s15.834 -2.83301 21.501 -8.5s8.5 -12.834 8.5 -21.501z" />
    <glyph glyph-name="at" unicode="@" horiz-adv-x="510" 
d="M237 2c-38.667 0 -74.3379 9.33105 -107.005 27.998c-30 16.667 -55.167 39.667 -75.5 69s-34.5 63 -42.5 101c-8 40.667 -9 84.667 -3 132c6.66699 50.667 21.667 103.667 45 159c17.333 42 38.5 78.5 63.5 109.5s53.167 56.167 84.5 75.5
c28.667 18.667 58.334 30.334 89.001 35.001c31.333 5.33301 60.333 3.66602 87 -5.00098c23.333 -7.33301 44.166 -19.5 62.499 -36.5s32.833 -37.833 43.5 -62.5c11.333 -25.333 17.666 -53.833 18.999 -85.5s-1.66699 -65.5 -9 -101.5
c-12.667 -60 -29.334 -106 -50.001 -138c-13.333 -19.333 -26.666 -32 -39.999 -38s-24.666 -9 -33.999 -9c-11.333 0 -21.833 2.5 -31.5 7.5s-18.167 11.5 -25.5 19.5c-9.33301 -16.667 -20.833 -33 -34.5 -49s-29.834 -27 -48.501 -33c-20 -6 -40 -4 -60 6
c-20.667 12.667 -35 32 -43 58c-4.66699 16.667 -6.66699 35 -6 55s3.16699 40.5 7.5 61.5s10.333 41.333 18 61s15.834 37.5 24.501 53.5c18.667 32.667 39.334 56.667 62.001 72c24.667 16 49.334 19.667 74.001 11c12 -5.33301 22.5 -13.5 31.5 -24.5
s15.5 -24.167 19.5 -39.5c8.66699 -30.667 8.33398 -64.667 -0.999023 -102c-1.33301 -8.66699 -5.5 -15.167 -12.5 -19.5s-14.833 -5.5 -23.5 -3.5c-8 2 -14.167 6.5 -18.5 13.5s-5.5 14.5 -3.5 22.5c6.66699 29.333 7.33398 53.666 2.00098 72.999
c-4 12.667 -9.33301 20.667 -16 24c-4.66699 1.33301 -12.667 -1.83398 -24 -9.50098s-23.666 -23.167 -36.999 -46.5c-7.33301 -13.333 -14.166 -28.166 -20.499 -44.499s-11.5 -33 -15.5 -50s-6.33301 -33.5 -7 -49.5s0.666016 -29.667 3.99902 -41
c2 -8 4.5 -13.333 7.5 -16s5.16699 -4.66699 6.5 -6c3.33301 -1.33301 6 -2 8 -2s3.66699 0.333008 5 1c3.33301 0.666992 7.83301 3.16699 13.5 7.5s13.167 12.833 22.5 25.5c6.66699 9.33301 12.5 18.833 17.5 28.5s9.16699 18.167 12.5 25.5l6 11c0.666992 2 2 4 4 6
c7.33301 10.667 17 15 29 13c14 -2 22.667 -10 26 -24c1.33301 -8.66699 4.83301 -16.834 10.5 -24.501s11.167 -11.5 16.5 -11.5h1c2 0 5.33301 1.83301 10 5.5s10 10.667 16 21s12.333 24.333 19 42s13 40.5 19 68.5c13.333 60.667 11.333 111.334 -6 152.001
c-14.667 33.333 -37.667 55 -69 65c-19.333 6 -40 7 -62 3s-43.667 -12.667 -65 -26c-17.333 -11.333 -37.5 -29.166 -60.5 -53.499s-43.833 -59.166 -62.5 -104.499c-20.667 -48 -34.167 -93.667 -40.5 -137s-5.83301 -83 1.5 -119c12.667 -60.667 42 -104 88 -130
c20 -11.333 41 -17.833 63 -19.5s43.833 0.833008 65.5 7.5s42.667 17.5 63 32.5s38.5 33.833 54.5 56.5c4.66699 6.66699 11 10.667 19 12s15.667 -0.666992 23 -6c6.66699 -4.66699 10.667 -11 12 -19s-0.666992 -15.333 -6 -22
c-20.667 -29.333 -44.167 -53.666 -70.5 -72.999s-54.833 -33 -85.5 -41c-21.333 -5.33301 -41.333 -8 -60 -8z" />
    <glyph glyph-name="A" unicode="A" horiz-adv-x="775" 
d="M1213 -172c3.33301 -7.33301 3.49219 -14.9951 0.492188 -22.9951s-8.16699 -13.667 -15.5 -17c-73.333 -32 -141 -48 -203 -48h-19.5c-6.33301 0 -12.5 0.666992 -18.5 2c-68.667 8 -127.667 36.333 -177 85c-28 26 -52.667 58 -74 96s-39.666 81.333 -54.999 130
c-14.667 48.667 -26.334 100 -35.001 154l-108 -17c-9.33301 -12 -18.666 -23.333 -27.999 -34c-68 -77.333 -135 -126 -201 -146c-51.333 -16 -97.666 -19 -138.999 -9c-38 8.66699 -69.333 28.667 -94 60c-12.667 16.667 -22.334 35.167 -29.001 55.5
s-10.167 41.333 -10.5 63s2.33398 43.334 8.00098 65.001s14.5 42.5 26.5 62.5c25.333 42.667 61.666 73.667 108.999 93c51.333 20.667 110.666 25 177.999 13c8 -1.33301 14.333 -5.5 19 -12.5s6.33398 -14.5 5.00098 -22.5c-1.33301 -8.66699 -5.5 -15.167 -12.5 -19.5
s-14.5 -5.83301 -22.5 -4.5c-50.667 9.33301 -95.5 7.16602 -134.5 -6.50098s-69.167 -37.834 -90.5 -72.501c-17.333 -28.667 -25.833 -59.5 -25.5 -92.5s9.5 -61.167 27.5 -84.5c16.667 -21.333 39.334 -34.666 68.001 -39.999s61.667 -2.33301 99 9
c49.333 15.333 101 51.333 155 108l-63 -11h-5c-7.33301 0 -13.666 2.33301 -18.999 7s-8.66602 10.667 -9.99902 18c-1.33301 8 0.333984 15.5 5.00098 22.5s11.334 11.167 20.001 12.5l132 21l18 24c6 8 12 16.667 18 26c15.333 22 30.333 45.5 45 70.5
s28.667 50.5 42 76.5c0 37.333 1.16699 74.166 3.5 110.499s5.83301 71 10.5 104s10.334 63.5 17.001 91.5s14.334 52.333 23.001 73c8 20 16.667 35.667 26 47c8.66699 10.667 17.167 17.5 25.5 20.5s15.5 4.5 21.5 4.5c16.667 0 30.334 -6.33301 41.001 -19
c7.33301 -9.33301 12.666 -22.333 15.999 -39c2 -12.667 2.33301 -26.834 1 -42.501s-3.66602 -31.667 -6.99902 -48s-7.16602 -32.833 -11.499 -49.5s-8.83301 -32 -13.5 -46c-11.333 -35.333 -24.833 -71.833 -40.5 -109.5s-33.167 -75.167 -52.5 -112.5
c0 -26 0.666992 -51.667 2 -77s3.33301 -50 6 -74l122 20c8.66699 1.33301 16.334 -0.333984 23.001 -5.00098s10.667 -11.334 12 -20.001c1.33301 -8 -0.333984 -15.333 -5.00098 -22s-11.334 -10.667 -20.001 -12l-124 -20
c15.333 -96.667 39.666 -178.334 72.999 -245.001c88 -172.667 229.667 -215.667 425 -129c8 3.33301 15.833 3.5 23.5 0.5s13.167 -8.16699 16.5 -15.5zM688.992 735.005c-10 -44 -17.667 -93.3359 -23 -148.003l12 31.5c4 10.333 7.66699 20.833 11 31.5
c16.667 49.333 27.667 92.333 33 129c1.33301 12.667 2 22.834 2 30.501s-0.333008 13.5 -1 17.5c-4 -5.33301 -9 -15.166 -15 -29.499s-12.333 -35.166 -19 -62.499zM607.992 267.002c-1.33301 9.33301 -2.33301 19 -3 29l-2 30l-21.5 -34
c-7 -11.333 -14.167 -22.333 -21.5 -33z" />
    <glyph glyph-name="B" unicode="B" horiz-adv-x="736" 
d="M267 -256c-25.333 0 -52.3262 2.67676 -80.9932 8.00977s-54 15.333 -76 30s-40.167 31.667 -54.5 51s-25.166 40.166 -32.499 62.499s-10.666 44.166 -9.99902 65.499c0 32 8.66699 59.333 26 82c18.667 25.333 45 40.666 79 45.999
c8.66699 1.33301 16.167 -0.333984 22.5 -5.00098s10.166 -11.334 11.499 -20.001c1.33301 -8 -0.333984 -15.333 -5.00098 -22s-11.334 -10.667 -20.001 -12c-12 -2 -21.5 -5.83301 -28.5 -11.5s-12.5 -12.167 -16.5 -19.5s-6.5 -14.666 -7.5 -21.999
s-1.5 -13.333 -1.5 -18c-0.666992 -15.333 1.66602 -30.833 6.99902 -46.5s13.333 -30.167 24 -43.5c16.667 -22.667 38.667 -39 66 -49s56.333 -15.333 87 -16s61.167 2.66602 91.5 9.99902s56.5 16.666 78.5 27.999c34.667 18 65.167 42.833 91.5 74.5
s45.833 66.167 58.5 103.5s17.5 75.666 14.5 114.999s-16.5 75.666 -40.5 108.999l-3 4c-15.333 -9.33301 -33.333 -17.5 -54 -24.5s-44.667 -11.167 -72 -12.5c-21.333 -1.33301 -41 2 -59 10s-31.667 19.667 -41 35c-7.33301 11.333 -11.333 23.333 -12 36
s2.33301 24.667 9 36c2 4 5.33301 8.66699 10 14s10.834 10.166 18.501 14.499s17.334 8.16602 29.001 11.499s25.834 5 42.501 5c25.333 0 49 -3.83301 71 -11.5s42.667 -18.5 62 -32.5l14 19c18 29.333 27 64.333 27 105c0 38.667 -7.33301 75.667 -22 111
c-34.667 76.667 -91.667 119.334 -171 128.001c-38.667 4 -75.834 3 -111.501 -3s-68.167 -17 -97.5 -33s-54.5 -36.667 -75.5 -62s-36.5 -55 -46.5 -89c-12 -44.667 -6.33301 -83 17 -115c5.33301 -7.33301 7.33301 -14.833 6 -22.5s-5.33301 -14.167 -12 -19.5
c-7.33301 -5.33301 -15 -7.33301 -23 -6s-14.333 5.66602 -19 12.999c-35.333 48 -44.333 103.333 -27 166c5.33301 20.667 13.666 40.834 24.999 60.501s25 38.5 41 56.5c38 42.667 83.5 74.5 136.5 95.5s117.5 26.833 193.5 17.5
c51.333 -5.33301 95.333 -21.833 132 -49.5s65.667 -65.5 87 -113.5c9.33301 -21.333 16.166 -43.5 20.499 -66.5s6.5 -45.833 6.5 -68.5c0 -52 -12 -97.667 -36 -137l-10.5 -14.5c-3.66699 -5 -7.83398 -10.167 -12.501 -15.5l6 -7c27.333 -38 43.666 -82.667 48.999 -134
c6 -52.667 0 -104.334 -18 -155.001c-14.667 -44 -38 -84 -70 -120c-30.667 -34 -66.334 -61.333 -107.001 -82c-28.667 -14.667 -58.834 -25.667 -90.501 -33s-63.834 -11 -96.501 -11zM192.007 4.00977h-6c-8 2 -14.167 6.5 -18.5 13.5s-5.83301 14.5 -4.5 22.5l108 502
c1.33301 8 5.5 14.167 12.5 18.5s14.5 5.83301 22.5 4.5c8.66699 -2 15.167 -6.33301 19.5 -13s5.5 -14.334 3.5 -23.001l-107 -501c-1.33301 -7.33301 -4.83301 -13.166 -10.5 -17.499s-12.167 -6.5 -19.5 -6.5zM419.007 313.01c-16 0 -27.6738 -1.66699 -35.0068 -5
s-11.666 -6.33301 -12.999 -9c-1.33301 -3.33301 -0.666016 -7 2.00098 -11c2.66699 -4.66699 7.83398 -9 15.501 -13s17.834 -5.33301 30.501 -4c32.667 2 60.334 8.66699 83.001 20c-11.333 6.66699 -23.666 12 -36.999 16s-28.666 6 -45.999 6z" />
    <glyph glyph-name="C" unicode="C" horiz-adv-x="1339" 
d="M979 -249c-38 0 -73.3301 8.66602 -105.997 25.999c-52 28.667 -88 75.334 -108 140.001c-9.33301 30 -14.666 64.667 -15.999 104c-0.666992 19.333 0.166016 39.333 2.49902 60s5.5 41.667 9.5 63c-74.667 -24 -147.167 -41.5 -217.5 -52.5
s-136.166 -14.833 -197.499 -11.5c-86 4.66699 -157.833 22.834 -215.5 54.501s-99.5 75.834 -125.5 132.501c-3.33301 7.33301 -3.66602 15 -0.999023 23s7.66699 13.667 15 17s15 3.66602 23 0.999023s13.667 -7.66699 17 -15c13.333 -29.333 31.166 -53.5 53.499 -72.5
s46.666 -34.333 72.999 -46s53.666 -20 81.999 -25s55.5 -8.16699 81.5 -9.5c62.667 -3.33301 130.667 1.16699 204 13.5s148.333 32.166 225 59.499c8 30 17.333 58.833 28 86.5s22.667 54.834 36 81.501c32.667 67.333 70.667 125.666 114 174.999
c40.667 47.333 82.667 84.5 126 111.5s84 41.167 122 42.5c27.333 1.33301 50.666 -4.66699 69.999 -18c21.333 -14.667 35.333 -35 42 -61c11.333 -40 6.66602 -82 -14.001 -126s-57 -88.667 -109 -134c-45.333 -38.667 -99.166 -75.334 -161.499 -110.001
s-129.833 -66 -202.5 -94h-1l-8 -34c-7.33301 -38 -11 -73.667 -11 -107s4.66699 -63.666 14 -90.999c15.333 -50 41.666 -85 78.999 -105c37.333 -21.333 81.333 -25.333 132 -12c28 7.33301 56 19.666 84 36.999s56 39 84 65c6 6 13.167 8.83301 21.5 8.5
s15.5 -3.5 21.5 -9.5c5.33301 -6 8 -13.167 8 -21.5s-3 -15.166 -9 -20.499c-64 -60.667 -129 -99.667 -195 -117c-24 -6 -47.333 -9 -70 -9zM1210 649.999h-4c-26.667 -1.33301 -57.334 -12.666 -92.001 -33.999c-19.333 -11.333 -38.5 -25.5 -57.5 -42.5
s-37.5 -35.833 -55.5 -56.5c-24 -28 -50 -64.667 -78 -110s-52.667 -101.333 -74 -168c61.333 25.333 117.833 53 169.5 83s96.5 61.667 134.5 95c42 35.333 72.333 71 91 107c17.333 33.333 22 63.666 14 90.999c-2 7.33301 -6.16699 15 -12.5 23s-18.166 12 -35.499 12z
" />
    <glyph glyph-name="D" unicode="D" horiz-adv-x="777" 
d="M684 379c4 -46 3.83984 -92.3301 -0.493164 -138.997s-12.833 -91.667 -25.5 -135c-13.333 -48 -32.833 -93.333 -58.5 -136s-56.167 -80.167 -91.5 -112.5s-75.333 -58 -120 -77s-92.667 -28.5 -144 -28.5h-14c-4.66699 0 -9.66699 0.333008 -15 1
c-53.333 6 -98.333 25 -135 57c-28.667 26 -49.334 57 -62.001 93c-11.333 36.667 -12.666 70.334 -3.99902 101.001c7.33301 23.333 19.666 42.666 36.999 57.999s38.666 24.666 63.999 27.999c8.66699 1.33301 16.167 -0.333984 22.5 -5.00098
s10.166 -11.334 11.499 -20.001c1.33301 -8 -0.333984 -15.333 -5.00098 -22s-11.334 -10.667 -20.001 -12c-27.333 -4 -44.666 -18.667 -51.999 -44c-6 -20 -5 -41.667 3 -65c8 -24.667 23 -47 45 -67c28 -24 61.667 -38 101 -42c32.667 -3.33301 63.834 -1.33301 93.501 6
s57.334 18.5 83.001 33.5s49.5 33 71.5 54s41.667 43.5 59 67.5s32.166 48.833 44.499 74.5s21.833 50.5 28.5 74.5c12 43.333 19.667 86.833 23 130.5s3.33301 85 0 124s-9.83301 74.333 -19.5 106s-21.167 57.167 -34.5 76.5c-24.667 36 -52.667 64.5 -84 85.5
s-66 34.167 -104 39.5c-19.333 2.66699 -38 3.66699 -56 3s-34.833 -2.5 -50.5 -5.5s-29.834 -6.5 -42.501 -10.5s-23.334 -8 -32.001 -12c-15.333 -6 -30.166 -14.5 -44.499 -25.5s-27.5 -23.333 -39.5 -37s-22.333 -28.334 -31 -44.001s-15.334 -31.5 -20.001 -47.5
c-12 -44.667 -6.33301 -83 17 -115c5.33301 -7.33301 7.33301 -14.833 6 -22.5s-5.33301 -14.167 -12 -19.5c-7.33301 -5.33301 -15 -7.33301 -23 -6s-14.333 5.66602 -19 12.999c-35.333 48 -44.333 103.333 -27 166c5.33301 20.667 13.666 40.834 24.999 60.501
s25 38.5 41 56.5c15.333 17.333 31.833 32.5 49.5 45.5s35.5 23.167 53.5 30.5c10 4 22.5 8.5 37.5 13.5s31.833 9.33301 50.5 13s38.667 6 60 7s43.333 -0.166992 66 -3.5c44.667 -7.33301 84.667 -22.333 120 -45c20.667 -13.333 40.167 -28.666 58.5 -45.999
s35.166 -37.333 50.499 -60c17.333 -25.333 31.5 -56.333 42.5 -93s18.167 -77 21.5 -121zM183.007 4.00293c-8 2 -14.167 6.5 -18.5 13.5s-5.83301 14.5 -4.5 22.5l108 502c1.33301 8 5.5 14.167 12.5 18.5s14.5 5.83301 22.5 4.5c8.66699 -2 15.167 -6.33301 19.5 -13
s5.5 -14.334 3.5 -23.001l-107 -501c-1.33301 -7.33301 -4.83301 -13.166 -10.5 -17.499s-12.167 -6.5 -19.5 -6.5h-6z" />
    <glyph glyph-name="E" unicode="E" horiz-adv-x="685" 
d="M287 -253c-24 0 -47.3398 3.00684 -70.0068 9.00684c-38 9.33301 -71.333 25 -100 47c-22.667 16.667 -42.167 35.834 -58.5 57.501s-29.166 45.167 -38.499 70.5c-19.333 54.667 -21.333 112.334 -6 173.001c7.33301 28 17.833 55.5 31.5 82.5s30.834 52.5 51.501 76.5
c15.333 18.667 32 35.667 50 51s37 29.333 57 42c-7.33301 12 -12.333 24 -15 36c-14.667 46.667 -12.667 95.667 6 147c8.66699 24.667 20.667 48.5 36 71.5s33.333 44.167 54 63.5s43.167 35.833 67.5 49.5s49.166 24.167 74.499 31.5
c26 7.33301 51.833 10.666 77.5 9.99902s49.834 -5 72.501 -13c23.333 -8.66699 43.833 -20.834 61.5 -36.501s31.834 -34.167 42.501 -55.5c4 -7.33301 4.66699 -15 2 -23s-7.66699 -13.667 -15 -17s-15 -3.83301 -23 -1.5s-13.667 7.16602 -17 14.499
c-7.33301 14.667 -17.166 27.334 -29.499 38.001s-26.166 18.667 -41.499 24c-34.667 12.667 -72.667 13.334 -114 2.00098c-21.333 -6 -42 -14.667 -62 -26s-38.667 -25 -56 -41c-16.667 -15.333 -31.334 -32.5 -44.001 -51.5s-22.667 -38.5 -30 -58.5
c-13.333 -40.667 -15 -77.334 -5 -110.001c1.33301 -4.66699 2.83301 -9.16699 4.5 -13.5s3.83398 -8.5 6.50098 -12.5c24 11.333 49.167 19.666 75.5 24.999s52.833 8.33301 79.5 9c40.667 0 72 -5.33301 94 -16c28 -12.667 42.667 -31.667 44 -57
c0.666992 -12 -2.83301 -23.5 -10.5 -34.5s-18.5 -20.5 -32.5 -28.5c-24.667 -13.333 -55.667 -21 -93 -23c-19.333 -0.666992 -41.833 0.166016 -67.5 2.49902s-49.834 10.166 -72.501 23.499c-6 3.33301 -11.667 7 -17 11s-10.666 8.33301 -15.999 13
c-38 -22.667 -70.667 -50.667 -98 -84c-35.333 -42 -59 -87 -71 -135c-12 -48.667 -10.333 -95 5 -139c14.667 -40 39.667 -73.333 75 -100c25.333 -18.667 52.833 -31.5 82.5 -38.5s60.167 -7.83301 91.5 -2.5c35.333 6 68.666 18.667 99.999 38
c15.333 10 29.833 21.667 43.5 35s25.167 27.333 34.5 42c12 18 20.667 36.833 26 56.5s6.66602 38.167 3.99902 55.5c-2 16 -7.16699 30.667 -15.5 44s-19.166 23.666 -32.499 30.999c-14 8 -30.167 13 -48.5 15s-37.166 0.333008 -56.499 -5
c-20.667 -5.33301 -40.667 -14 -60 -26s-36.666 -26.333 -51.999 -43c-5.33301 -6.66699 -12.166 -10.167 -20.499 -10.5s-15.5 2.5 -21.5 8.5c-6 5.33301 -9.16699 12.166 -9.5 20.499s2.16699 15.5 7.5 21.5c19.333 21.333 41.166 39.5 65.499 54.5s49.5 25.833 75.5 32.5
c27.333 7.33301 54 9.5 80 6.5s49.333 -10.5 70 -22.5c21.333 -12.667 38.833 -29.5 52.5 -50.5s22.167 -44.167 25.5 -69.5c3.33301 -24.667 1.5 -50.167 -5.5 -76.5s-18.167 -51.5 -33.5 -75.5c-12 -18.667 -26.333 -35.834 -43 -51.501s-34.667 -29.834 -54 -42.501
c-38 -24 -78.667 -39.667 -122 -47c-15.333 -2.66699 -31.666 -4 -48.999 -4zM301.993 338.007c0 -0.666992 0.667969 -1.00098 2.00098 -1.00098c24 -14 59.667 -20 107 -18c24 1.33301 42.167 4.83301 54.5 10.5s20.166 10.167 23.499 13.5
c-3.33301 2.66699 -10.5 5.83398 -21.5 9.50098s-28.167 5.5 -51.5 5.5h-3c-19.333 -0.666992 -38.333 -2.5 -57 -5.5s-36.667 -7.83301 -54 -14.5z" />
    <glyph glyph-name="F" unicode="F" horiz-adv-x="856" 
d="M392 -5c-16.667 0 -32.499 1.99902 -47.499 5.99902s-28.5 10.333 -40.5 19c-15.333 10 -27.833 22.833 -37.5 38.5s-15.5 32.834 -17.5 51.501c-2.66699 18.667 -1.16699 37.667 4.5 57s14.5 37.333 26.5 54c22 29.333 51 51.666 87 66.999
c28.667 12 61.667 18.667 99 20c20 0 39.5 -1.5 58.5 -4.5s37.5 -6.16699 55.5 -9.5l45 -8c2 6.66699 3.83301 13.334 5.5 20.001s3.16699 13.667 4.5 21c4.66699 24.667 7.83398 48.834 9.50098 72.501s3.16699 48.167 4.5 73.5v2c-34.667 6 -65.667 15.833 -93 29.5
s-53.5 28.5 -78.5 44.5l-76.5 47c-26 15.333 -54.667 27.666 -86 36.999c-30 8.66699 -60 12.667 -90 12c-34.667 -2 -65.334 -9.66699 -92.001 -23c-22 -10 -40 -23.667 -54 -41c-12.667 -16 -19.667 -31.667 -21 -47c-1.33301 -8.66699 -5 -15.667 -11 -21
s-13.333 -7.33301 -22 -6c-8 0.666992 -14.667 4.16699 -20 10.5s-7.66602 13.5 -6.99902 21.5c3.33301 28.667 14.666 55.334 33.999 80.001c19.333 23.333 44 42.333 74 57c35.333 17.333 74 27 116 29c36 0.666992 72.667 -4 110 -14
c31.333 -9.33301 59.666 -21.5 84.999 -36.5l74 -45.5c24 -15.333 49 -29.833 75 -43.5s55 -23.834 87 -30.501l4 43.5c1.33301 14.333 3.66602 29.166 6.99902 44.499c2 11.333 4.66699 23.166 8 35.499s8.33301 24.833 15 37.5c7.33301 13.333 16.333 25 27 35
c12 12 25 21 39 27c24.667 8.66699 47.667 9 69 1c21.333 -7.33301 37 -21.333 47 -42c9.33301 -17.333 13.333 -37 12 -59c-0.666992 -17.333 -5.33398 -36.333 -14.001 -57c-6 -15.333 -13.333 -29.666 -22 -42.999s-18.667 -25 -30 -35
c-11.333 -11.333 -26.5 -22.5 -45.5 -33.5s-39.167 -16.167 -60.5 -15.5v-4c-1.33301 -25.333 -3 -50.833 -5 -76.5s-5.33301 -51.5 -10 -77.5l-9 -39c14 -2 29.333 -3.66699 46 -5s32.834 -1.5 48.501 -0.5s30.334 3.66699 44.001 8s24.5 11.166 32.5 20.499
c5.33301 6.66699 12.166 10.167 20.499 10.5s15.5 -2.16699 21.5 -7.5c6.66699 -5.33301 10.167 -12.166 10.5 -20.499s-2.16699 -15.5 -7.5 -21.5c-14 -16 -30.667 -27.5 -50 -34.5s-39.833 -11.5 -61.5 -13.5s-43.167 -2.16699 -64.5 -0.5
s-40.666 3.83398 -57.999 6.50098l-14 -30.5c-4.66699 -9.66699 -9.66699 -19.167 -15 -28.5c-16 -28 -34.667 -53 -56 -75s-44.333 -40 -69 -54c-17.333 -10.667 -34.833 -19 -52.5 -25s-35.167 -9.66699 -52.5 -11h-16zM469.001 247.999l-2.99805 0.000976562
c-28 -1.33301 -53.333 -6.33301 -76 -15c-26 -11.333 -46.667 -27.333 -62 -48c-7.33301 -10 -12.833 -21 -16.5 -33s-4.83398 -23.667 -3.50098 -35c3.33301 -21.333 13.333 -37.333 30 -48c16.667 -11.333 38.334 -16 65.001 -14c13.333 1.33301 26.666 4.33301 39.999 9
s26.666 10.667 39.999 18c40.667 24.667 75 60.667 103 108l10 18.5c3.33301 6.33301 6.33301 13.166 9 20.499l-36 6c-17.333 3.33301 -34 6.33301 -50 9s-32.667 4 -50 4zM791.003 705c-6 0 -11.002 -1.00391 -15.002 -3.00391c-7.33301 -3.33301 -14 -8 -20 -14
c-3.33301 -3.33301 -6.33301 -6.66602 -9 -9.99902s-5 -7 -7 -11c-5.33301 -8.66699 -9.16602 -17.667 -11.499 -27s-4.16602 -18.666 -5.49902 -27.999c-2.66699 -13.333 -4.66699 -26.333 -6 -39l-4 -39h1c19.333 2 39.333 13 60 33c16 14 28.333 32.667 37 56
c5.33301 12.667 8.66602 25.334 9.99902 38.001c0 12.667 -1.66699 22 -5 28c-1.33301 2.66699 -3.16602 5.33398 -5.49902 8.00098s-5.5 4.66699 -9.5 6s-7.33301 2 -10 2z" />
    <glyph glyph-name="G" unicode="G" horiz-adv-x="1106" 
d="M1463 -288c-9.33301 0 -18.832 0.5 -28.499 1.5s-19.5 2.16699 -29.5 3.5c-45.333 6.66699 -90.5 18.667 -135.5 36s-89.833 35.666 -134.5 54.999c-38 16.667 -75.167 32.167 -111.5 46.5s-71.5 25.166 -105.5 32.499c-8 -29.333 -18 -54.666 -30 -75.999
c-20.667 -36 -49 -60 -85 -72c-30.667 -9.33301 -59.334 -10 -86.001 -2c-27.333 8.66699 -46.666 24.667 -57.999 48c-10.667 21.333 -11.334 43.333 -2.00098 66c8 22.667 25.333 42.667 52 60c45.333 31.333 99 45.666 161 42.999c3.33301 24 5.83301 49.333 7.5 76
s2.5 53.667 2.5 81c-26 -29.333 -52.667 -53 -80 -71c-49.333 -35.333 -94.333 -49.333 -135 -42c-36 6 -64.667 25.333 -86 58c-18.667 26.667 -30.667 60.334 -36 101.001c-4 36.667 -2.33301 77.334 5 122.001c-52 -16 -102.667 -27.667 -152 -35
s-95.666 -10 -138.999 -8c-64 3.33301 -117.5 17 -160.5 41s-74.167 57.333 -93.5 100c-3.33301 7.33301 -3.66602 15 -0.999023 23s7.66699 13.667 15 17s15 3.5 23 0.5s13.667 -8.16699 17 -15.5c9.33301 -20 21.833 -36.667 37.5 -50s32.667 -24 51 -32
s37.5 -13.833 57.5 -17.5s39 -5.83398 57 -6.50098c44.667 -2 93 1.33301 145 10s105 22.334 159 41.001c6 21.333 12.833 41.833 20.5 61.5s16.167 39.167 25.5 58.5c24 48 52 91 84 129c30 34.667 61.5 62 94.5 82s63.5 30.667 91.5 32c22 0.666992 41 -4.5 57 -15.5
s27 -26.833 33 -47.5c2.66699 -10.667 4 -23 4 -37s-3 -29.333 -9 -46s-16 -34.5 -30 -53.5s-33.333 -39.167 -58 -60.5c-32 -28 -70.667 -54.833 -116 -80.5s-94 -48.167 -146 -67.5c-1.33301 -3.33301 -2.33301 -6.83301 -3 -10.5l-2 -10.5
c-8.66699 -40 -11.334 -76.667 -8.00098 -110s12 -60.333 26 -81c13.333 -19.333 29 -30.333 47 -33c12 -2 25.667 -0.333008 41 5s31.666 14 48.999 26s35 26.833 53 44.5s36 37.834 54 60.501l8 11c0 27.333 0.166992 53.166 0.5 77.499s1.5 46.833 3.5 67.5
c4.66699 54.667 16.667 91 36 109c14.667 12.667 31 18 49 16c26.667 -2 45.334 -15 56.001 -39c13.333 -30 8 -73.333 -16 -130c-16.667 -39.333 -39.667 -79.333 -69 -120c0.666992 -39.333 0.5 -79.5 -0.5 -120.5s-4.16699 -80.5 -9.5 -118.5
c37.333 -7.33301 75.333 -18.833 114 -34.5l115 -48.5c42.667 -18.667 85.5 -36.334 128.5 -53.001s84.833 -28 125.5 -34c44 -6.66699 83.667 -5 119 5s68 28.667 98 56c6 6 13.167 8.83301 21.5 8.5s15.166 -3.83301 20.499 -10.5c5.33301 -6 7.83301 -13.167 7.5 -21.5
s-3.5 -15.166 -9.5 -20.499c-59.333 -54 -128.333 -81 -207 -81zM885.001 650l-2.99902 0.000976562c-14.667 -0.666992 -34.667 -8 -60 -22s-53 -38 -83 -72c-16 -18.667 -33.333 -42.834 -52 -72.501s-35.667 -65.834 -51 -108.501c44.667 18.667 85 39.167 121 61.5
s66.333 44.833 91 67.5s42.667 44.834 54 66.501s14.666 41.5 9.99902 59.5c-1.33301 5.33301 -3.83301 10 -7.5 14s-10.167 6 -19.5 6zM854.002 -105.999c-20 0 -39.333 -2.5 -58 -7.5s-36.667 -13.167 -54 -24.5c-12.667 -8.66699 -21.5 -17.5 -26.5 -26.5
s-5.83301 -17.167 -2.5 -24.5c4 -8 12.5 -13.833 25.5 -17.5s28.167 -2.83398 45.5 2.49902c33.333 10.667 58 43.334 74 98.001h-4zM964.002 414.001l-3 -0.00292969c-1.33301 -1.33301 -4 -6.66602 -8 -15.999s-7 -27.333 -9 -54c-1.33301 -6.66699 -2 -13.5 -2 -20.5
s-0.333008 -14.167 -1 -21.5c2.66699 4.66699 5 9.16699 7 13.5l6 13.5c9.33301 22.667 15 40.834 17 54.501s1.66699 22.834 -1 27.501c0 2 -2 3 -6 3z" />
    <glyph glyph-name="H" unicode="H" horiz-adv-x="896" 
d="M1498 864c8 -2 14 -6.49609 18 -13.4961s5 -14.5 3 -22.5c-2.66699 -8 -7.5 -14.167 -14.5 -18.5s-14.5 -5.16602 -22.5 -2.49902c-24 6 -48.833 10.167 -74.5 12.5s-52.5 2.16602 -80.5 -0.500977c-55.333 -4 -110 -17 -164 -39
c-53.333 -20.667 -104.666 -50 -153.999 -88c-48.667 -36.667 -91.334 -79 -128.001 -127c-32 -42 -58.167 -86.333 -78.5 -133s-33.833 -93.667 -40.5 -141c-0.666992 -1.33301 -1 -3.66602 -1 -6.99902c64.667 12 118.667 37 162 75
c6 5.33301 13.167 7.66602 21.5 6.99902s15.166 -4 20.499 -10c5.33301 -6.66699 7.83301 -14 7.5 -22s-3.83301 -14.667 -10.5 -20c-33.333 -28.667 -70 -51 -110 -67c-14.667 -5.33301 -29.834 -10 -45.501 -14s-32.167 -7.66699 -49.5 -11
c1.33301 -68 17.333 -129.333 48 -184c4 -7.33301 5 -15 3 -23s-6.66699 -14 -14 -18c-4.66699 -2.66699 -9.66699 -4 -15 -4c-11.333 0 -20 5 -26 15c-23.333 41.333 -39.666 87.333 -48.999 138c-4 22.667 -6 46 -6 70c-28 -2 -55.667 -2.5 -83 -1.5s-54 2.83301 -80 5.5
c-8 -21.333 -17.667 -41.666 -29 -60.999c-16 -28 -34.667 -52.833 -56 -74.5s-44.333 -39.834 -69 -54.501c-17.333 -10.667 -34.833 -19 -52.5 -25s-35.167 -9.66699 -52.5 -11h-16c-16.667 0 -32.5 2 -47.5 6s-28.5 10.333 -40.5 19
c-15.333 10 -27.833 22.833 -37.5 38.5s-15.5 32.834 -17.5 51.501c-2.66699 18.667 -1.16699 37.667 4.5 57s14.5 37.333 26.5 54c22 29.333 51 51.666 87 66.999c28.667 12 61.667 18.667 99 20c19.333 0 38 -1.33301 56 -4s35.667 -5.66699 53 -9
c8.66699 -1.33301 17.167 -2.83301 25.5 -4.5s16.5 -3.16699 24.5 -4.5c2 6.66699 3.83301 13.334 5.5 20.001s3.16699 13.667 4.5 21c4.66699 24 7.83398 47.833 9.50098 71.5s3.16699 48.167 4.5 73.5l-18 3c-28.667 7.33301 -54 18.5 -76 33.5s-42.667 30.833 -62 47.5
l-9 8c-16 14.667 -32 28.167 -48 40.5s-33.333 22.166 -52 29.499c-22 8 -43.333 11.667 -64 11c-24.667 -2 -47 -9 -67 -21c-8 -5.33301 -15.667 -11.5 -23 -18.5s-13.666 -14.5 -18.999 -22.5c-11.333 -16.667 -18 -33.334 -20 -50.001
c-1.33301 -8 -5.16602 -14.667 -11.499 -20s-13.5 -7.33301 -21.5 -6c-8.66699 1.33301 -15.5 5.16602 -20.5 11.499s-6.83301 13.5 -5.5 21.5c2.66699 26.667 12.334 52.334 29.001 77.001c16 23.333 36.333 42.666 61 57.999c28 18 59.667 28 95 30
c29.333 0.666992 59 -4.33301 89 -15c23.333 -9.33301 44.333 -21.166 63 -35.499s36.667 -29.166 54 -44.499l10 -9c16 -14 33.167 -27.333 51.5 -40s38.5 -21.667 60.5 -27l8 -2l4 45.5c1.33301 15 3.66602 30.167 6.99902 45.5c2 11.333 4.66699 23.166 8 35.499
s8.33301 24.833 15 37.5c8.66699 14 17.667 25.667 27 35c12 12 25 21 39 27c24.667 8.66699 47.667 9 69 1c21.333 -7.33301 37 -21.333 47 -42c9.33301 -17.333 13.333 -37 12 -59c-0.666992 -17.333 -5.33398 -36.333 -14.001 -57
c-6 -15.333 -13.333 -29.666 -22 -42.999s-18.667 -25 -30 -35c-26 -24 -56.333 -40 -91 -48l-15 -3v-2c-1.33301 -25.333 -3 -50.833 -5 -76.5s-5.33301 -51.5 -10 -77.5l-8 -36c24 -2 48.167 -3.33301 72.5 -4s48.833 -0.333984 73.5 0.999023c0 4 0.166992 8 0.5 12
s0.833008 8 1.5 12c4 25.333 9.66699 51.166 17 77.499s16.666 52.166 27.999 77.499c22 52 50.667 100.667 86 146c40 52 86.333 98.333 139 139s109 72.667 169 96c58.667 23.333 119.334 37.666 182.001 42.999c61.333 5.33301 119.666 0.333008 174.999 -15z
M454 189.004l10.002 18.501c3.33301 6.33301 6.33301 12.833 9 19.5l-41 8c-16.667 3.33301 -32.667 6.16602 -48 8.49902s-31 3.5 -47 3.5h-3c-28 -1.33301 -53.333 -6.33301 -76 -15c-26 -11.333 -46.667 -27.333 -62 -48c-7.33301 -10 -12.833 -21 -16.5 -33
s-4.83398 -23.667 -3.50098 -35c3.33301 -21.333 13.333 -37.333 30 -48c16.667 -11.333 38.334 -16 65.001 -14c13.333 1.33301 26.666 4.33301 39.999 9s26.666 10.667 39.999 18c40.667 24.667 75 60.667 103 108zM591.002 611.005
c-2.66699 -13.333 -4.66895 -26.3359 -6.00195 -39.0029l-4 -39c11.333 3.33301 22.333 7.66602 33 12.999s20 12 28 20c16 14 28.333 32.667 37 56c5.33301 12.667 8.66602 25.334 9.99902 38.001c0 12.667 -1.66699 22 -5 28
c-1.33301 2.66699 -3.16602 5.33398 -5.49902 8.00098s-5.5 4.66699 -9.5 6s-7.33301 2 -10 2c-5.33301 0 -10.333 -1 -15 -3c-7.33301 -3.33301 -14 -8 -20 -14c-3.33301 -3.33301 -6.33301 -6.66602 -9 -9.99902s-5 -7 -7 -11
c-5.33301 -8.66699 -9.16602 -17.667 -11.499 -27s-4.16602 -18.666 -5.49902 -27.999z" />
    <glyph glyph-name="I" unicode="I" horiz-adv-x="540" 
d="M160 -256c-5.33301 0 -10.499 0.161133 -15.499 0.494141s-10.167 0.833008 -15.5 1.5c-32.667 6 -60.334 19.333 -83.001 40c-20 18.667 -33.5 40.667 -40.5 66s-6.83301 52.333 0.5 81c8 28.667 23.333 55.334 46 80.001c23.333 25.333 49.333 43 78 53
c24 9.33301 47.667 12.5 71 9.5s45.333 -11.167 66 -24.5c6.66699 -4.66699 10.834 -11 12.501 -19s0.166992 -15.667 -4.5 -23c-5.33301 -6.66699 -11.833 -10.834 -19.5 -12.501s-15.167 -0.166992 -22.5 4.5c-24.667 16.667 -52 19.667 -82 9
c-20 -7.33301 -38.167 -19.833 -54.5 -37.5s-27.166 -36.167 -32.499 -55.5c-6 -22 -5.83301 -40.167 0.5 -54.5s13.833 -25.166 22.5 -32.499c14.667 -13.333 32.5 -21.666 53.5 -24.999s41.833 -1 62.5 7c30 11.333 55 28.333 75 51c19.333 20 36 46.667 50 80
c13.333 31.333 24 64.5 32 99.5s15 69.167 21 102.5l89 486l-87 -40c-29.333 -14 -57.333 -29.167 -84 -45.5s-51.5 -34.166 -74.5 -53.499s-42.167 -40.666 -57.5 -63.999c-8 -12 -14.833 -26.667 -20.5 -44s-6.83398 -33.333 -3.50098 -48s10.666 -25.334 21.999 -32.001
c13.333 -9.33301 28.333 -11 45 -5c11.333 3.33301 21.833 9.5 31.5 18.5s16.5 18.833 20.5 29.5c3.33301 8 8.83301 13.833 16.5 17.5s15.167 3.83398 22.5 0.500977s12.833 -8.83301 16.5 -16.5s3.83398 -15.167 0.500977 -22.5c-7.33301 -19.333 -19 -36.666 -35 -51.999
s-34 -26 -54 -32c-34.667 -11.333 -67 -7.66602 -97 11.001c-26 18 -42 41.667 -48 71c-5.33301 24.667 -4 49.334 4 74.001s17.667 45.667 29 63c32.667 49.333 83.334 94.666 152.001 135.999c29.333 18 59.666 34.333 90.999 49l90 42
c8.66699 3.33301 16.834 6.83301 24.501 10.5l22.5 10.5c10.667 5.33301 21 4 31 -4c10 -6.66699 13.667 -16.334 11 -29.001l-48.5 -263.5l-35 -189c-9.66699 -52.333 -18 -95.5 -25 -129.5s-13.167 -62 -18.5 -84s-10.333 -39.833 -15 -53.5
s-9.33398 -26.167 -14.001 -37.5c-8.66699 -19.333 -17.834 -37 -27.501 -53s-20.5 -30.667 -32.5 -44c-27.333 -29.333 -60.333 -51.666 -99 -66.999c-22 -7.33301 -43.333 -11 -64 -11z" />
    <glyph glyph-name="J" unicode="J" horiz-adv-x="535" 
d="M94 -257c-13.333 0 -24.3389 2.00098 -33.0059 6.00098s-15.667 8 -21 12c-15.333 12 -25.666 27.833 -30.999 47.5s-5.66602 41.834 -0.999023 66.501c6 34.667 21 70.167 45 106.5s55.333 71.833 94 106.5c45.333 40 98 76.333 158 109l90 430l-74.5 -39.5
c-25 -13.667 -49 -28.5 -72 -44.5s-44.5 -33.333 -64.5 -52s-37 -39.334 -51 -62.001c-5.33301 -8.66699 -10.666 -19.5 -15.999 -32.5s-8.66602 -26.5 -9.99902 -40.5c-3.33301 -26 2 -44 16 -54c8.66699 -6.66699 18 -8.66699 28 -6
c10.667 3.33301 20.667 9.66602 30 18.999s16.333 20 21 32c3.33301 7.33301 8.66602 12.833 15.999 16.5s15 3.83398 23 0.500977c7.33301 -3.33301 12.833 -8.66602 16.5 -15.999s3.83398 -15 0.500977 -23c-8 -20.667 -20.333 -38.834 -37 -54.501
s-34.667 -26.167 -54 -31.5c-14.667 -4.66699 -29 -5.66699 -43 -3s-26.667 8.66699 -38 18c-16 13.333 -27.667 30.666 -35 51.999c-4.66699 16 -6 35 -4 57c2 16 6 32.5 12 49.5s13.667 32.833 23 47.5c30 48.667 76 94 138 136c26.667 18 54 34.333 82 49l80 42l42 21
c10.667 6 21.334 5.33301 32.001 -2c9.33301 -7.33301 13 -17.333 11 -30l-94 -444c25.333 11.333 51.5 22.333 78.5 33s54.833 20.667 83.5 30c8 2.66699 15.667 2.16699 23 -1.5s12.333 -9.5 15 -17.5s2.16699 -15.667 -1.5 -23s-9.5 -12.333 -17.5 -15
c-73.333 -23.333 -138.666 -50.333 -195.999 -81l-5 -25c-7.33301 -34 -15.5 -69.667 -24.5 -107s-20.833 -73 -35.5 -107c-36 -83.333 -85 -137.666 -147 -162.999c-10 -4.66699 -19.333 -7.83398 -28 -9.50098s-16.667 -2.5 -24 -2.5zM287.994 118.001
c-19.333 -12 -37.1689 -24.167 -53.502 -36.5s-32.166 -25.166 -47.499 -38.499c-34 -30 -61.167 -60.333 -81.5 -91s-33.166 -60 -38.499 -88c-5.33301 -27.333 -2 -46 10 -56c10 -8 25.333 -7.33301 46 2c48 20 86.333 63.667 115 131c11.333 27.333 21 56.166 29 86.499
s15 60.5 21 90.5z" />
    <glyph glyph-name="K" unicode="K" horiz-adv-x="913" 
d="M1400 864c8 -2 14.1553 -6.66699 18.4883 -14s5.5 -15 3.5 -23c-2.66699 -8 -7.5 -14 -14.5 -18s-14.5 -5 -22.5 -3c-42 11.333 -85.667 15.166 -131 11.499s-90.333 -14.167 -135 -31.5s-86.667 -41.166 -126 -71.499s-74 -65.166 -104 -104.499
c-12 -16.667 -23.333 -33.5 -34 -50.5l-32 -52.5l-34 -56c-11.333 -18.667 -23.666 -36.667 -36.999 -54c-28 -36 -57 -65 -87 -87c3.33301 -5.33301 6.33301 -10.833 9 -16.5l8 -17.5c9.33301 -21.333 16.833 -43.333 22.5 -66s10.167 -44 13.5 -64
c1.33301 -7.33301 2.5 -14.166 3.5 -20.499s2.16699 -13.166 3.5 -20.499c6 -36 12.667 -70.5 20 -103.5s19.666 -63.167 36.999 -90.5c18 -29.333 42.667 -53.333 74 -72c30 -18.667 64.333 -30 103 -34c18.667 -2 38 -2.16699 58 -0.5s40 5.5 60 11.5
c40.667 11.333 78.667 29.333 114 54c7.33301 5.33301 15 7.33301 23 6s14.333 -5.66602 19 -12.999c5.33301 -6.66699 7.33301 -14 6 -22s-5.66602 -14.667 -12.999 -20c-41.333 -28.667 -85.666 -49.667 -132.999 -63c-35.333 -10 -70 -15 -104 -15
c-6.66699 0 -13 0.166992 -19 0.5s-12 0.833008 -18 1.5c-46 5.33301 -88.333 19.666 -127 42.999c-19.333 11.333 -37 24.666 -53 39.999s-29.667 32.333 -41 51c-20 32.667 -34.333 67.5 -43 104.5s-16 74.167 -22 111.5c-1.33301 7.33301 -2.5 14.166 -3.5 20.499
s-2.16699 13.166 -3.5 20.499c-3.33301 18 -7.5 37 -12.5 57s-11.5 39.667 -19.5 59c-2 5.33301 -4.16699 10.166 -6.5 14.499l-7.5 13.5c-7.33301 -3.33301 -14.5 -6.16602 -21.5 -8.49902s-14.167 -4.5 -21.5 -6.5c-9.33301 -39.333 -22.333 -75 -39 -107
c-30.667 -56.667 -71.334 -99.334 -122.001 -128.001c-33.333 -19.333 -67.333 -30 -102 -32h-10c-34.667 0 -65 8.33301 -91 25c-31.333 20.667 -50.666 49.334 -57.999 86.001c-3.33301 17.333 -3.5 35.5 -0.5 54.5s9.5 36.833 19.5 53.5
c6.66699 12.667 14.834 24 24.501 34s20.5 19 32.5 27c24.667 15.333 50.334 24 77.001 26c28.667 2 54.334 -3.66699 77.001 -17c24 -14.667 40.667 -34.667 50 -60c3.33301 -7.33301 3.33301 -14.666 0 -21.999s-9 -12.666 -17 -15.999
c-7.33301 -3.33301 -14.833 -3.33301 -22.5 0s-13.167 9 -16.5 17c-5.33301 12.667 -13.333 22.334 -24 29.001c-12 7.33301 -26.333 10.333 -43 9c-16 -1.33301 -32.333 -7 -49 -17c-15.333 -10 -27.666 -23 -36.999 -39c-6 -10.667 -10.167 -21.834 -12.5 -33.501
s-2.16602 -22.834 0.500977 -33.501c4 -20 14.667 -36 32 -48c17.333 -11.333 38.666 -16.333 63.999 -15c12.667 0.666992 25.334 3 38.001 7s25.334 9.66699 38.001 17c40 22.667 73 57.667 99 105c6 11.333 11.5 23.166 16.5 35.499s9.16699 25.166 12.5 38.499
c-16.667 2 -31 7 -43 15c-9.33301 6.66699 -16.666 15.334 -21.999 26.001c-6.66699 12 -9 24.333 -7 37c2 20.667 11.333 37.667 28 51c14.667 12.667 31.334 20 50.001 22c2.66699 0.666992 6.66699 1 12 1v58l-22 4c-28.667 7.33301 -54.167 18.333 -76.5 33
s-43.5 30.667 -63.5 48c-2.66699 1.33301 -6 4 -10 8l-51 40c-16.667 12.667 -34.667 22.667 -54 30c-22 8 -43.333 11.667 -64 11c-11.333 -1.33301 -22.666 -3.66602 -33.999 -6.99902s-21.666 -8 -30.999 -14c-16.667 -10 -30 -23.333 -40 -40
c-10.667 -16.667 -16.334 -33.334 -17.001 -50.001c-0.666992 -8 -4 -14.833 -10 -20.5s-13.333 -7.83398 -22 -6.50098c-8 0.666992 -14.833 4 -20.5 10s-8.16699 13.333 -7.5 22c2 27.333 10.667 52.666 26 75.999c7.33301 12 16 23 26 33s20.667 18.667 32 26
c29.333 19.333 61 29.333 95 30c28.667 2 58.334 -2.66699 89.001 -14c24 -9.33301 45.667 -21.166 65 -35.499s38 -29.166 56 -44.499l10 -8c17.333 -14.667 35.5 -28.334 54.5 -41.001s39.5 -21.667 61.5 -27c4 -1.33301 6.66699 -2 8 -2c0 14.667 0.5 29.334 1.5 44.001
s2.16699 29.667 3.5 45c1.33301 11.333 3.5 23.166 6.5 35.499s7.5 25.166 13.5 38.499c7.33301 14 15.666 26 24.999 36c12.667 12.667 25.667 21.334 39 26.001c23.333 9.33301 46 10 68 2c10.667 -3.33301 20.167 -8.66602 28.5 -15.999s15.166 -15.666 20.499 -24.999
c9.33301 -17.333 14 -37 14 -59c0 -18.667 -3.33301 -37.667 -10 -57c-11.333 -32.667 -27.666 -59 -48.999 -79c-12 -11.333 -25.5 -21.333 -40.5 -30s-31.167 -14.667 -48.5 -18l-12 -3v-2v-37c0 -12 -0.333008 -24.333 -1 -37l13 -9c11.333 -7.33301 22.333 -17 33 -29
c26 19.333 50.667 44.333 74 75c12.667 16.667 24.334 33.667 35.001 51l32 54l33.5 54.5c11 18.333 23.167 36.166 36.5 53.499c33.333 44 72 82.833 116 116.5s91 60.167 141 79.5s101 31 153 35s101.667 -0.333008 149 -13zM589.988 613
c-2 -13.333 -3.33203 -26.668 -3.99902 -40.001s-1 -26.666 -1 -39.999c11.333 3.33301 22 7.66602 32 12.999s19 12 27 20c15.333 14 26.666 32.667 33.999 56c4.66699 12 7 24.667 7 38c0 11.333 -2 20.666 -6 27.999c-4 6.66699 -9.66699 11.667 -17 15
c-4 1.33301 -7.66699 2 -11 2c-5.33301 0 -10 -1 -14 -3c-7.33301 -3.33301 -13.666 -7.66602 -18.999 -12.999c-6 -7.33301 -10.667 -14.333 -14 -21c-4.66699 -8.66699 -7.83398 -17.667 -9.50098 -27s-3.16699 -18.666 -4.5 -27.999zM497.989 325.998
c1.33301 -1.33301 3.66602 -2.5 6.99902 -3.5s8 -1.83301 14 -2.5v4l3 29h-1c-7.33301 -1.33301 -13.666 -4 -18.999 -8c-2.66699 -2 -4.5 -4.33301 -5.5 -7s-1.83301 -4.66699 -2.5 -6c0 -0.666992 0.166992 -1.16699 0.5 -1.5s0.5 -0.833008 0.5 -1.5z" />
    <glyph glyph-name="L" unicode="L" horiz-adv-x="787" 
d="M1197 -257l-7.00195 0.00292969c-52.667 0.666992 -112.667 14 -180 40c-30.667 12 -61.5 25.667 -92.5 41s-61.667 31.5 -92 48.5l-90 53l-86.5 53.5l-80 49c-25.333 15.333 -49 29 -71 41c-1.33301 -1.33301 -2 -2.33301 -2 -3
c-17.333 -26.667 -37.666 -45.334 -60.999 -56.001c-25.333 -11.333 -49.833 -16.833 -73.5 -16.5s-43.834 7.16602 -60.501 20.499c-11.333 9.33301 -19.333 20.333 -24 33s-5.66699 25.667 -3 39c4 18.667 14 35 30 49s37 24.667 63 32
c12.667 3.33301 27.167 3.66602 43.5 0.999023s35.833 -8.66699 58.5 -18c10 30 18.167 64.167 24.5 102.5s12.166 76.5 17.499 114.5l9.5 60c3 19.333 6.16699 38.333 9.5 57c-22.667 5.33301 -46.167 12.5 -70.5 21.5l-74.5 27.5c-32.667 12.667 -65 24.5 -97 35.5
s-62.5 18.667 -91.5 23s-55.333 3.83301 -79 -1.5s-43.5 -18.333 -59.5 -39c-5.33301 -6.66699 -12 -10.5 -20 -11.5s-15.333 1.16699 -22 6.5s-10.667 11.833 -12 19.5s0.666992 15.167 6 22.5c22 29.333 50.333 49 85 59c28.667 8.66699 62.334 10.667 101.001 6
c34 -4.66699 68.667 -13.167 104 -25.5l107 -38.5c23.333 -9.33301 46.5 -18 69.5 -26s44.833 -14.667 65.5 -20c5.33301 22 11.666 42.5 18.999 61.5s16 36.167 26 51.5c12.667 18.667 27 32.5 43 41.5s32.333 11.833 49 8.5c15.333 -2.66699 28.833 -9.66699 40.5 -21
s19.834 -25.666 24.501 -42.999c6.66699 -22 5.33398 -45.333 -3.99902 -70c-9.33301 -26.667 -26.333 -50 -51 -70c-22.667 -18.667 -51.667 -28 -87 -28h-6.5c-2.33301 0 -4.5 0.333008 -6.5 1c-3.33301 -18.667 -6.33301 -37.834 -9 -57.501s-5.66699 -39.167 -9 -58.5
l-16.5 -108.5c-5.66699 -35.667 -13.167 -69.167 -22.5 -100.5l-9 -26c23.333 -12.667 48.333 -27.167 75 -43.5l83 -50.5l172.5 -104.5c59.667 -35 118.834 -63.5 177.501 -85.5c125.333 -48.667 220.333 -49 285 -1c6.66699 5.33301 14 7.33301 22 6
s14.667 -5.33301 20 -12s7.33301 -14 6 -22s-5.33301 -14.667 -12 -20c-43.333 -32 -95 -48 -155 -48zM601.998 534.003c21.333 0 37.667 4.66895 49 14.002c17.333 14 28.333 28.167 33 42.5s5.33398 26.5 2.00098 36.5c-2 12 -7.33301 18.667 -16 20
c-4.66699 1.33301 -10 -0.333984 -16 -5.00098s-11.667 -11.334 -17 -20.001c-7.33301 -10.667 -13.833 -23.5 -19.5 -38.5s-10.834 -31.5 -15.501 -49.5zM390.999 110.005c-4 0 -6.66895 -0.331055 -8.00195 -0.998047c-17.333 -4.66699 -29.666 -10.334 -36.999 -17.001
s-11.666 -12.667 -12.999 -18c-0.666992 -4.66699 1.33301 -9 6 -13c5.33301 -4.66699 14 -7.33398 26 -8.00098s27 3 45 11c12 5.33301 23.333 16 34 32c-14 5.33301 -25.167 9 -33.5 11s-14.833 3 -19.5 3z" />
    <glyph glyph-name="M" unicode="M" horiz-adv-x="1046" 
d="M1187 -249c-79.333 0 -145.999 20.0088 -199.999 60.0088c-49.333 37.333 -86 89.333 -110 156c-22.667 60.667 -33.334 131 -32.001 211c0.666992 36.667 3.66699 74.167 9 112.5s12.666 76.5 21.999 114.5c6 22 12.5 43.667 19.5 65s14.833 42 23.5 62
c-42.667 -46 -83.167 -93 -121.5 -141s-71.166 -94 -98.499 -138c9.33301 -28 15 -54.333 17 -79c1.33301 -17.333 0.666016 -34.333 -2.00098 -51s-7.33398 -32 -14.001 -46c-12.667 -28 -29.667 -46.667 -51 -56c-10.667 -5.33301 -21.167 -7.33301 -31.5 -6
s-19.166 5.66602 -26.499 12.999c-14.667 14 -21 35.667 -19 65c2 26.667 11 59 27 97c4.66699 11.333 9.83398 22.833 15.501 34.5s12.167 23.5 19.5 35.5c-7.33301 20 -16 40.5 -26 61.5l-31 62.5l-21 -50c-7.33301 -16.667 -15.333 -33.334 -24 -50.001
c-17.333 -32.667 -35 -62.667 -53 -90s-36.667 -51.666 -56 -72.999c-46 -52 -95 -86.667 -147 -104c-52 -16 -97.667 -19.667 -137 -11c-39.333 9.33301 -70.666 28.666 -93.999 57.999c-13.333 16 -23.333 34.333 -30 55s-10.667 42.334 -12 65.001
c0 46.667 11.667 89.667 35 129c26 43.333 62.333 74.666 109 93.999c52 21.333 111.333 25.666 178 12.999c8 -1.33301 14.333 -5.5 19 -12.5s6.33398 -14.5 5.00098 -22.5s-5.5 -14.333 -12.5 -19s-14.5 -6.33398 -22.5 -5.00098
c-50.667 9.33301 -95.5 7.16602 -134.5 -6.50098s-69.167 -37.834 -90.5 -72.501c-17.333 -30 -25.833 -61.667 -25.5 -95s9.83301 -61.666 28.5 -84.999c16.667 -21.333 39.167 -34.333 67.5 -39s60.833 -1 97.5 11c32.667 10.667 63.167 29.5 91.5 56.5
s54.333 58.167 78 93.5s45 73.166 64 113.499s35.5 79.833 49.5 118.5c-14 29.333 -26.167 56.333 -36.5 81s-16.833 47.334 -19.5 68.001c-4.66699 39.333 -0.5 72.333 12.5 99s28.5 45.334 46.5 56.001c12 7.33301 24.167 11 36.5 11s23.833 -3.66699 34.5 -11
c6 -4 11.667 -9.66699 17 -17s9.83301 -17.166 13.5 -29.499s5.66699 -27.333 6 -45s-1.83398 -38.834 -6.50098 -63.501c-3.33301 -18.667 -8.33301 -40.334 -15 -65.001s-14.667 -51 -24 -79l10 -20l29.5 -58.5l28.5 -59.5c21.333 31.333 43.333 61.666 66 90.999
s44.334 56 65.001 80c44 51.333 89.5 100.666 136.5 147.999s91.5 88 133.5 122c6 5.33301 13.167 7.66602 21.5 6.99902s15.166 -4.33398 20.499 -11.001c5.33301 -6 7.66602 -13.167 6.99902 -21.5s-4.33398 -15.166 -11.001 -20.499
c-37.333 -31.333 -71.5 -75.833 -102.5 -133.5s-56.167 -122.5 -75.5 -194.5c-19.333 -75.333 -29.166 -148 -29.499 -218s9.16699 -131.667 28.5 -185c43.333 -117.333 128 -176 254 -176c8 0 15 -3 21 -9s9 -13 9 -21c0 -8.66699 -3 -15.834 -9 -21.501s-13 -8.5 -21 -8.5
zM579.001 711.009c-0.666992 0 -2.00195 -0.334961 -4.00195 -1.00195s-4.66699 -2.66699 -8 -6c-7.33301 -7.33301 -13.666 -18.666 -18.999 -33.999s-6.66602 -34.666 -3.99902 -57.999c1.33301 -9.33301 4 -20.166 8 -32.499s9 -25.5 15 -39.5c4 14 7.5 27.333 10.5 40
s5.5 24.667 7.5 36c3.33301 17.333 5 32 5 44s-0.5 21.667 -1.5 29s-2.5 12.666 -4.5 15.999s-3.33301 5.33301 -4 6h-1zM655.999 171.007l-2 -3.99902c-10 -23.333 -16.333 -41.833 -19 -55.5s-3.66699 -23.834 -3 -30.501c5.33301 6 11 16.333 17 31s8.33301 34 7 58v1z
" />
    <glyph glyph-name="N" unicode="N" horiz-adv-x="962" 
d="M732 -7c-12.667 0 -23.665 4.66992 -32.998 14.0029c-14.667 14 -21 35.667 -19 65c2 27.333 11 59.333 27 96l24 65c-15.333 25.333 -33.833 51.833 -55.5 79.5l-64.5 80.5l-21 26c-8.66699 -23.333 -18.167 -47 -28.5 -71s-21.5 -48 -33.5 -72
c-32.667 -64 -68.667 -118 -108 -162c-47.333 -52.667 -96.666 -87.334 -147.999 -104.001c-50.667 -17.333 -96.334 -21 -137.001 -11c-38 8 -69.333 27.333 -94 58c-12.667 16 -22.5 34.333 -29.5 55s-10.833 42.334 -11.5 65.001c-0.666992 22 2 44 8 66
s14.667 42.667 26 62c26 43.333 62.333 74.666 109 93.999c51.333 21.333 110.666 26 177.999 14c8.66699 -1.33301 15.167 -5.5 19.5 -12.5s5.83301 -14.5 4.5 -22.5c-1.33301 -8.66699 -5.5 -15.167 -12.5 -19.5s-14.5 -5.83301 -22.5 -4.5
c-50.667 9.33301 -95.334 7.16602 -134.001 -6.50098s-68.667 -38.167 -90 -73.5c-18 -29.333 -26.667 -60.833 -26 -94.5s10 -62.167 28 -85.5c17.333 -21.333 40 -34.166 68 -38.499s60.333 -0.5 97 11.5c34.667 11.333 66.834 31.5 96.501 60.5s56.834 62.5 81.501 100.5
s46.667 78.5 66 121.5s35.666 84.5 48.999 124.5c-18 23.333 -32.833 45.333 -44.5 66s-18.5 40 -20.5 58c-4.66699 38.667 -0.5 71.5 12.5 98.5s28.5 45.833 46.5 56.5c11.333 7.33301 23.333 11 36 11s24 -3.66699 34 -11c6 -4 11.833 -9.83301 17.5 -17.5
s10.167 -17.667 13.5 -30s5.16602 -27.333 5.49902 -45s-1.83398 -38.834 -6.50098 -63.501c-2.66699 -14.667 -6.16699 -31.5 -10.5 -50.5s-10.166 -39.167 -17.499 -60.5l46 -55l51.5 -63.5c17 -21 32.833 -41.833 47.5 -62.5l30.5 84.5c11 29.667 23 59.834 36 90.501
s26.667 61.167 41 91.5s29.833 59.166 46.5 86.499c39.333 67.333 81 118.333 125 153c54.667 43.333 111.334 62 170.001 56c8 -0.666992 14.667 -4.16699 20 -10.5s7.66602 -13.5 6.99902 -21.5c-1.33301 -8 -4.83301 -14.667 -10.5 -20s-12.167 -8 -19.5 -8
c-1.33301 0 -2.33301 0.333008 -3 1c-42 3.33301 -82.5 -9.83398 -121.5 -39.501s-77.833 -76.834 -116.5 -141.501c-17.333 -28.667 -33.5 -59 -48.5 -91s-29 -64.167 -42 -96.5s-25.167 -64.166 -36.5 -95.499l-32 -87l-6 -18c7.33301 -15.333 13.333 -30.166 18 -44.499
s7.66699 -28.166 9 -41.499c2 -36.667 -3.33301 -69.334 -16 -98.001c-6 -13.333 -13.333 -24.833 -22 -34.5s-18 -16.834 -28 -21.501c-9.33301 -4 -18 -6 -26 -6zM576.002 704.003c-2.66699 0 -6.66406 -2.66895 -11.9971 -8.00195
c-7.33301 -7.33301 -13.833 -18.666 -19.5 -33.999s-7.16699 -34.333 -4.5 -57c2 -13.333 11 -32.666 27 -57.999c3.33301 11.333 6.16602 22 8.49902 32s4.16602 19.667 5.49902 29c3.33301 17.333 5.16602 32 5.49902 44s-0.166992 21.833 -1.5 29.5s-3 13.167 -5 16.5
s-3.33301 5.33301 -4 6zM764.005 149.001l-2 -4c-9.33301 -23.333 -15.5 -41.833 -18.5 -55.5s-4.16699 -23.834 -3.5 -30.501c5.33301 6 11 16.333 17 31s8.33301 34.334 7 59.001z" />
    <glyph glyph-name="O" unicode="O" horiz-adv-x="668" 
d="M233 -7c-21.333 0 -40.334 2.33105 -57.001 6.99805c-44.667 11.333 -81.667 33.666 -111 66.999c-34 38 -55 87 -63 147c-4 28.667 -5 58.334 -3 89.001s7.66699 61.334 17 92.001c17.333 62 45.666 120.333 84.999 175c39.333 55.333 84.666 99 135.999 131
c7.33301 4.66699 14.833 6.16699 22.5 4.5s13.834 -6.16699 18.501 -13.5c5.33301 -8.66699 6.33301 -17.334 3 -26.001l9 5.5c2.66699 1.66699 5.33398 3.5 8.00098 5.5c24 13.333 49 22.5 75 27.5s51.333 5.5 76 1.5c45.333 -8 83.666 -29.333 114.999 -64
c30 -33.333 49.667 -75 59 -125c8 -48 6 -100 -6 -156c-12 -54.667 -33 -106.667 -63 -156c-30 -48 -66.333 -90 -109 -126c-21.333 -17.333 -43.166 -32.166 -65.499 -44.499s-44.833 -22.166 -67.5 -29.499c-27.333 -8 -53.666 -12 -78.999 -12zM230.999 622.998
c-36 -30 -67.998 -66.4961 -95.998 -109.496s-48.667 -87.833 -62 -134.5c-7.33301 -26.667 -12 -53 -14 -79s-1.33301 -50.833 2 -74.5s9 -45.834 17 -66.501s18.667 -38.334 32 -53.001c31.333 -35.333 72.333 -53 123 -53c19.333 0 39.666 3 60.999 9
c38.667 12 76.667 33.5 114 64.5s68.666 67.833 93.999 110.5c26.667 42.667 45.334 88.167 56.001 136.5s12.667 92.5 6 132.5c-7.33301 38 -22 69.667 -44 95s-49 40.666 -81 45.999c-37.333 6 -74.333 -1.66699 -111 -23c-20 -11.333 -38.667 -26.5 -56 -45.5
s-31 -39.5 -41 -61.5c-10 -20.667 -16.667 -42.834 -20 -66.501s-3.33301 -46.5 0 -68.5c6 -37.333 21.667 -72.333 47 -105c5.33301 -6.66699 7.33301 -14 6 -22s-5.33301 -14.667 -12 -20c-7.33301 -5.33301 -14.833 -7.33301 -22.5 -6s-14.167 5.33301 -19.5 12
c-16 21.333 -28.667 42.833 -38 64.5s-16 44.167 -20 67.5c-4.66699 28 -4.83398 56.667 -0.500977 86s12.5 57.333 24.5 84c7.33301 14.667 15.5 28.667 24.5 42s19.167 26 30.5 38z" />
    <glyph glyph-name="P" unicode="P" horiz-adv-x="642" 
d="M626 586c13.333 -34 17.3301 -69.335 11.9971 -106.002c-4 -33.333 -15 -65.333 -33 -96c-16.667 -28 -37.667 -53.5 -63 -76.5s-53.333 -41.167 -84 -54.5c-32 -14.667 -69 -24 -111 -28c-7.33301 -0.666992 -14.5 -1.16699 -21.5 -1.5s-14.167 -0.5 -21.5 -0.5
s-14.166 0.166992 -20.499 0.5s-12.833 0.833008 -19.5 1.5l-42 -198c-1.33301 -7.33301 -4.66602 -13 -9.99902 -17s-11.666 -6 -18.999 -6h-7c-8 2 -14.167 6.5 -18.5 13.5s-5.83301 14.5 -4.5 22.5l108 502c2 8 6.33301 14.167 13 18.5s14.334 5.83301 23.001 4.5
c8 -2 14.167 -6.5 18.5 -13.5s5.83301 -14.5 4.5 -22.5l-53 -245c26 -2 53.333 -0.833008 82 3.5s53.667 11.166 75 20.499c24.667 11.333 47.334 26 68.001 44s37.667 38.667 51 62c4.66699 8.66699 9.33398 18.5 14.001 29.5s8.16699 23 10.5 36
s3.16602 26.667 2.49902 41s-4 29.166 -10 44.499c-17.333 47.333 -49.333 81 -96 101c-40 18 -81.667 27 -125 27s-83.833 -7.5 -121.5 -22.5s-70.834 -36.667 -99.501 -65s-48.334 -61.833 -59.001 -100.5c-12 -44 -6.33301 -82.333 17 -115
c5.33301 -7.33301 7.33301 -15 6 -23s-5.33301 -14.333 -12 -19c-7.33301 -5.33301 -14.833 -7.33301 -22.5 -6s-14.167 5.33301 -19.5 12c-35.333 48.667 -44.333 104.334 -27 167.001c12.667 42.667 34.667 81.667 66 117c22.667 26 50.667 48 84 66s69 30.833 107 38.5
s76.833 9.83398 116.5 6.50098s77.5 -12.666 113.5 -27.999c30 -13.333 55.333 -30.333 76 -51c11.333 -11.333 21.333 -24.166 30 -38.499s16 -29.5 22 -45.5z" />
    <glyph glyph-name="Q" unicode="Q" horiz-adv-x="675" 
d="M831 -257c-36.667 0 -71.9971 7.66797 -105.997 23.001c-34.667 16 -67.667 40.667 -99 74c-14 15.333 -26.833 31.166 -38.5 47.499s-22.167 31.833 -31.5 46.5c-3.33301 4.66699 -6.16602 9.33398 -8.49902 14.001s-5.16602 9 -8.49902 13l-42 64
c-14 20.667 -29.667 39.667 -47 57l-4 -3c-42.667 -34.667 -87.334 -59.334 -134.001 -74.001c-26 -8 -52.333 -12 -79 -12c-20 0 -39 2.33301 -57 7c-44 11.333 -80.667 33.666 -110 66.999c-34 38 -55 87 -63 147c-4.66699 28.667 -5.83398 58.334 -3.50098 89.001
s7.83301 61.334 16.5 92.001s20.334 60.667 35.001 90s31.667 57.666 51 84.999c19.333 28 40.5 53 63.5 75s46.833 40.667 71.5 56c7.33301 4.66699 15 6.16699 23 4.5s14.333 -6.16699 19 -13.5c5.33301 -8.66699 6.33301 -17.334 3 -26.001
c2.66699 2 5.33398 3.83301 8.00098 5.5l9 5.5c49.333 27.333 99.666 37 150.999 29c44.667 -8 82.667 -29.333 114 -64c15.333 -16.667 28 -35.5 38 -56.5s17 -43.833 21 -68.5c9.33301 -47.333 7.66602 -99.333 -5.00098 -156
c-6.66699 -27.333 -15.167 -54.166 -25.5 -80.499s-23.166 -51.5 -38.499 -75.5c-18.667 -30 -39 -57 -61 -81c19.333 -20 36.666 -41.167 51.999 -63.5l45 -67.5l17 -26l28.5 -43c10.333 -15.333 22.166 -29.666 35.499 -42.999c26 -28 52.333 -48 79 -60
c16.667 -8 34.167 -13.333 52.5 -16s36.5 -2.66699 54.5 0s35.5 7.66699 52.5 15s32.167 17 45.5 29c6.66699 5.33301 14.167 7.66602 22.5 6.99902s15.166 -4.33398 20.499 -11.001c5.33301 -6 7.66602 -13.167 6.99902 -21.5s-4.33398 -15.166 -11.001 -20.499
c-18 -15.333 -38.167 -28 -60.5 -38s-45.166 -16.667 -68.499 -20c-5.33301 -0.666992 -10.833 -1.16699 -16.5 -1.5s-11.5 -0.5 -17.5 -0.5zM232.003 623.001c-36 -30 -68 -66.498 -96 -109.498s-48.667 -87.833 -62 -134.5c-10.667 -38 -15.834 -74.667 -15.501 -110
s5.5 -68 15.5 -98c28 18.667 57.833 32.667 89.5 42s64.5 13.666 98.5 12.999c33.333 -1.33301 65.666 -7.33301 96.999 -18s60.666 -25.667 87.999 -45c21.333 22.667 40 47.334 56 74.001c12.667 21.333 23.834 43.5 33.501 66.5s17.167 46.167 22.5 69.5
s8.5 46.333 9.5 69s-0.5 44 -4.5 64c-6.66699 38 -21 69.667 -43 95s-49 40.666 -81 45.999c-18 3.33301 -36.667 3 -56 -1s-37.666 -11.333 -54.999 -22c-20.667 -11.333 -39.5 -26.5 -56.5 -45.5s-30.833 -39.5 -41.5 -61.5
c-9.33301 -20.667 -15.666 -42.834 -18.999 -66.501s-3.33301 -46.5 0 -68.5c6 -36.667 21.333 -71.667 46 -105c5.33301 -6.66699 7.5 -14 6.5 -22s-5.16699 -14.667 -12.5 -20c-6.66699 -5.33301 -14 -7.33301 -22 -6s-14.667 5.33301 -20 12
c-31.333 42 -50.333 86 -57 132c-4.66699 28 -5 56.667 -1 86s12.333 57.333 25 84c7.33301 14.667 15.5 28.667 24.5 42s19.167 26 30.5 38zM111.003 106.003c15.333 -17.333 33.5 -30.501 54.5 -39.501s43.5 -13.5 67.5 -13.5c20 0 40.667 3 62 9
c37.333 11.333 73.333 31.333 108 60c-21.333 13.333 -44 23.833 -68 31.5s-48.667 11.834 -74 12.501c-29.333 0.666992 -57.333 -3.33301 -84 -12s-51.667 -21 -75 -37z" />
    <glyph glyph-name="R" unicode="R" horiz-adv-x="647" 
d="M770 -195c3.33301 -7.33301 3.33008 -14.835 -0.00292969 -22.502s-8.66602 -13.167 -15.999 -16.5c-25.333 -10.667 -50.666 -16 -75.999 -16c-21.333 0 -42 4 -62 12c-37.333 14 -72.333 42 -105 84c-14 18 -27.5 37.833 -40.5 59.5s-25.333 44.167 -37 67.5
s-22.834 47.166 -33.501 71.499l-31 71.5l-24 56c-8 18 -16 35 -24 51c-10 -0.666992 -19.667 -0.833984 -29 -0.500977s-18.666 1.16602 -27.999 2.49902l-42 -198c-1.33301 -7.33301 -4.83301 -13 -10.5 -17s-12.167 -6 -19.5 -6h-6c-8 2 -14.333 6.5 -19 13.5
s-6 14.5 -4 22.5l43 200c-10 4.66699 -18.667 12 -26 22c-12.667 16.667 -18 34.667 -16 54c1.33301 15.333 7.83301 29.5 19.5 42.5s29.167 20.5 52.5 22.5l35 161c1.33301 8 5.5 14.167 12.5 18.5s14.5 5.83301 22.5 4.5c8 -2 14.333 -6.5 19 -13.5s6 -14.5 4 -22.5
l-35 -164c11.333 -8.66699 21.5 -18.834 30.5 -30.501s16.833 -23.167 23.5 -34.5l8 -13c14 2 27.5 4.66699 40.5 8s25.167 7.66602 36.5 12.999c24.667 11.333 47.5 26 68.5 44s38.167 38.667 51.5 62c4.66699 8.66699 9.33398 18.5 14.001 29.5s8.16699 23 10.5 36
s3 26.667 2 41s-4.16699 29.166 -9.5 44.499c-16.667 46.667 -48.667 80.334 -96 101.001c-40 17.333 -81.833 26 -125.5 26s-84.5 -7.33301 -122.5 -22s-71.167 -36.167 -99.5 -64.5s-47.5 -61.833 -57.5 -100.5c-13.333 -44 -7.66602 -82.333 17.001 -115
c5.33301 -7.33301 7.33301 -15 6 -23s-5.66602 -14.333 -12.999 -19c-6.66699 -5.33301 -14 -7.33301 -22 -6s-14.667 5.33301 -20 12c-34.667 48.667 -43.334 104.334 -26.001 167.001c5.33301 20.667 13.666 40.834 24.999 60.501s25 38.5 41 56.5
c23.333 26 51.666 48 84.999 66s68.833 30.833 106.5 38.5s76.334 9.83398 116.001 6.50098s77.5 -12.666 113.5 -27.999c28.667 -13.333 53.667 -30.333 75 -51c22.667 -22.667 40.334 -50.667 53.001 -84c13.333 -34 17.333 -69.333 12 -106
c-4 -31.333 -15.333 -63.333 -34 -96c-16 -28 -36.833 -53.5 -62.5 -76.5s-53.5 -41.167 -83.5 -54.5c-20.667 -9.33301 -45.334 -16.666 -74.001 -21.999l20 -45l20 -47l29.5 -68c10.333 -23.333 21 -46.166 32 -68.499s22.5 -43.666 34.5 -63.999s24.667 -38.833 38 -55.5
c26 -32.667 52.667 -54.667 80 -66c29.333 -11.333 60 -10 92 4c8 3.33301 15.833 3.5 23.5 0.5s13.167 -8.5 16.5 -16.5zM276.997 283.998c1.33301 0 3 -0.166992 5 -0.5s4 -0.5 6 -0.5l-9 13z" />
    <glyph glyph-name="S" unicode="S" horiz-adv-x="666" 
d="M268 -255c-26.667 0 -52.001 3.00391 -76.001 9.00391c-25.333 6.66699 -48.5 16.334 -69.5 29.001s-39.833 27.667 -56.5 45c-30 33.333 -48 72.666 -54 117.999c-5.33301 42.667 -0.333008 85.334 15 128.001c15.333 42 38 77.667 68 107
c16.667 16 34.5 28.667 53.5 38s38.5 15.666 58.5 18.999c24 4 49.333 2.5 76 -4.5s50.334 -18.167 71.001 -33.5c16.667 -13.333 29.834 -28 39.501 -44s15.167 -33.333 16.5 -52c1.33301 -8.66699 -0.666992 -16 -6 -22s-12.333 -9.66699 -21 -11
c-8 -0.666992 -15.167 1.66602 -21.5 6.99902s-10.166 12 -11.499 20c-1.33301 13.333 -5.33301 24.333 -12 33s-13.667 15.667 -21 21c-13.333 10.667 -29.5 18.5 -48.5 23.5s-36.167 6.16699 -51.5 3.5h-1c-28 -4 -54 -17.333 -78 -40s-42 -51 -54 -85
c-5.33301 -14 -9.16602 -29 -11.499 -45s-2.83301 -32.167 -1.5 -48.5s5.16602 -32.333 11.499 -48s15.5 -30.167 27.5 -43.5c24.667 -26.667 56 -45.334 94 -56.001s77.667 -11.667 119 -3c40 8.66699 74.333 24.334 103 47.001s48.667 50 60 82c9.33301 26 14 53 14 81
s-2.83301 56.167 -8.5 84.5s-13.5 57 -23.5 86l-31 86.5l-27 76c-8.66699 25.333 -16 50.666 -22 75.999c-7.33301 29.333 -11.333 56.333 -12 81s1.66602 47.667 6.99902 69c10 45.333 30.333 79.666 61 102.999c14.667 11.333 30.334 19.333 47.001 24
s33.667 5.33398 51 2.00098c37.333 -5.33301 66.666 -24.333 87.999 -57c23.333 -33.333 33 -75.333 29 -126c-0.666992 -8.66699 -4 -15.667 -10 -21s-13.333 -7.66602 -22 -6.99902c-8 0.666992 -14.833 4 -20.5 10s-8.16699 13.333 -7.5 22
c2.66699 36 -3.33301 65.667 -18 89c-12.667 17.333 -28.334 27.666 -47.001 30.999c-19.333 3.33301 -37 -1.66699 -53 -15c-19.333 -14 -32.666 -36.667 -39.999 -68c-4.66699 -19.333 -6.16699 -39.5 -4.5 -60.5s5.16699 -42.833 10.5 -65.5
s12.166 -45.834 20.499 -69.501l26.5 -72.5c11.333 -30 22.166 -60.5 32.499 -91.5s18.5 -62.167 24.5 -93.5c14.667 -72 12 -136.667 -8 -194c-7.33301 -21.333 -18 -41.333 -32 -60s-30.667 -35.667 -50 -51c-18 -13.333 -37.667 -24.833 -59 -34.5
s-43.666 -16.834 -66.999 -21.501c-20.667 -4.66699 -43 -7 -67 -7z" />
    <glyph glyph-name="T" unicode="T" horiz-adv-x="884" 
d="M876 718c9.33301 -17.333 13.9961 -37.0117 13.9961 -59.0117c0 -9.33301 -0.833008 -18.666 -2.5 -27.999s-4.16699 -19 -7.5 -29c-11.333 -31.333 -27.666 -57.666 -48.999 -78.999c-12 -11.333 -25.667 -21.333 -41 -30s-31.333 -14.667 -48 -18l-13 -3v-2
c0.666992 -25.333 0.666992 -50.666 0 -75.999s-2.66699 -51.333 -6 -78c-7.33301 -59.333 -23.333 -112 -48 -158c-14.667 -28 -32.5 -53 -53.5 -75s-43.5 -40 -67.5 -54c-34 -18.667 -68.333 -29 -103 -31h-10c-34 0 -64 8.33301 -90 25
c-31.333 20.667 -50.666 49.334 -57.999 86.001c-4 17.333 -4.33301 35.5 -1 54.5s9.66602 36.833 18.999 53.5c14 24 33 44.333 57 61c24.667 15.333 50.667 24 78 26c28 2 53.667 -3.66699 77 -17c23.333 -14.667 40 -34.667 50 -60
c3.33301 -7.33301 3.16602 -14.666 -0.500977 -21.999s-9.16699 -12.666 -16.5 -15.999c-8 -3.33301 -15.667 -3.33301 -23 0s-12.666 9 -15.999 17c-5.33301 12.667 -13.666 22.334 -24.999 29.001c-12 7.33301 -26 10.333 -42 9c-17.333 -1.33301 -33.666 -7 -48.999 -17
c-16 -10.667 -28.667 -23.667 -38 -39c-12.667 -22 -16.667 -44.333 -12 -67c5.33301 -20 16.333 -36 33 -48c17.333 -11.333 38.666 -16.333 63.999 -15c26 1.33301 51.333 9.33301 76 24c19.333 11.333 37.5 25.833 54.5 43.5s31.5 38.167 43.5 61.5
c11.333 19.333 20.333 40.333 27 63s11.667 47.334 15 74.001c3.33301 24 5.16602 47.833 5.49902 71.5s0.166016 48.167 -0.500977 73.5v2c-36 4 -68.5 12.833 -97.5 26.5s-56.833 28.834 -83.5 45.501l-80.5 50c-27 16.667 -56.833 30 -89.5 40
c-30.667 9.33301 -60.667 13 -90 11c-34 -1.33301 -64.667 -8.66602 -92 -21.999c-22 -10 -40 -23.667 -54 -41c-12.667 -16 -19.667 -31.667 -21 -47c-1.33301 -8.66699 -5 -15.667 -11 -21s-13.333 -7.33301 -22 -6c-8 0.666992 -14.667 4.16699 -20 10.5
s-7.66602 13.5 -6.99902 21.5c2 28 13.333 54.333 34 79c9.33301 12 20.333 22.833 33 32.5s26.334 18.167 41.001 25.5c17.333 8.66699 35.833 15.334 55.5 20.001s39.834 7.33398 60.501 8.00098c36.667 2 73.334 -2.66699 110.001 -14
c32 -8.66699 61.167 -20.667 87.5 -36l77.5 -47c25.333 -16 51.5 -31 78.5 -45s57.167 -24 90.5 -30l2 44c0.666992 14.667 2 29.667 4 45c1.33301 11.333 3.33301 23.166 6 35.499s7.33398 24.833 14.001 37.5c3.33301 7.33301 7 14 11 20s8.66699 11.667 14 17
s11.333 10.333 18 15s13.667 8.33398 21 11.001c23.333 9.33301 46 10 68 2c21.333 -7.33301 37.666 -21 48.999 -41zM822.996 621.988c2 6.66699 3.66699 13.1641 5 19.4971s2 12.166 2 17.499c0 12.667 -2.33301 22.334 -7 29.001c-4 7.33301 -9.33301 12.333 -16 15
c-2 0.666992 -3.83301 1.16699 -5.5 1.5s-3.5 0.5 -5.5 0.5c-5.33301 0 -10.333 -1 -15 -3c-6.66699 -3.33301 -12.667 -7.66602 -18 -12.999c-6 -6 -11 -13 -15 -21c-4 -8.66699 -7 -17.667 -9 -27s-3.66699 -18.666 -5 -27.999
c-1.33301 -13.333 -2.33301 -26.666 -3 -39.999l-2 -40c24.667 6.66699 44.667 17.667 60 33c14.667 13.333 26 32 34 56z" />
    <glyph glyph-name="U" unicode="U" horiz-adv-x="850" 
d="M711 1c-9.33301 0 -17.334 2 -24.001 6c-7.33301 4 -13 9.66699 -17 17s-7 14.666 -9 21.999c-1.33301 6 -2.83301 13.167 -4.5 21.5s-3.16699 17.5 -4.5 27.5l-4 35.5c-1.33301 12.333 -2.33301 25.833 -3 40.5l-19.5 -28.5l-19.5 -26.5
c-59.333 -75.333 -114 -113 -164 -113c-3.33301 0 -6.66602 0.166992 -9.99902 0.5s-6.66602 0.833008 -9.99902 1.5c-23.333 4.66699 -41.333 16.667 -54 36c-7.33301 12 -11.833 25.667 -13.5 41s-1.33398 32.166 0.999023 50.499s6.16602 38 11.499 59l17 67.5
c9.33301 36.667 18.333 74.667 27 114s12.334 77 11.001 113c-1.33301 38 -9.83301 69.5 -25.5 94.5s-39.167 44.833 -70.5 59.5c-19.333 9.33301 -40.666 14 -63.999 14s-46.333 -4.66699 -69 -14c-23.333 -9.33301 -45 -23 -65 -41s-35.667 -38 -47 -60
c-12 -23.333 -19.167 -47 -21.5 -71s0.833984 -46 9.50098 -66c7.33301 -19.333 19.333 -35.833 36 -49.5s36 -22.834 58 -27.501c8 -1.33301 14.167 -5.5 18.5 -12.5s5.83301 -14.5 4.5 -22.5s-5.5 -14.333 -12.5 -19s-14.5 -6 -22.5 -4c-32 6 -60.167 18.833 -84.5 38.5
s-42.166 44.167 -53.499 73.5c-11.333 28.667 -15.666 59.5 -12.999 92.5s11.667 64.833 27 95.5c14.667 27.333 35 53 61 77c24 22 51.333 39.333 82 52c30 12 61 18 93 18c16 -0.666992 31.5 -2.5 46.5 -5.5s29.167 -7.83301 42.5 -14.5c44 -21.333 77 -50.666 99 -87.999
c18.667 -32.667 29 -71.667 31 -117c1.33301 -40 -2.5 -81.167 -11.5 -123.5s-18.5 -82.833 -28.5 -121.5l-15 -59.5c-4.66699 -19 -8.33398 -36.5 -11.001 -52.5c-2.66699 -18 -3.33398 -31.5 -2.00098 -40.5s3 -15.167 5 -18.5c2.66699 -4.66699 7.66699 -7.66699 15 -9
c15.333 -3.33301 33.666 2.66699 54.999 18s44 38.333 68 69c14 18 28.167 38.167 42.5 60.5s28.5 46.166 42.5 71.499c0.666992 56.667 3.66699 110.667 9 162s12.666 95.666 21.999 132.999c10 38.667 22 69.667 36 93c12.667 18.667 25.5 30.834 38.5 36.501
s24.5 8.5 34.5 8.5c19.333 0 33.666 -9 42.999 -27c2 -3.33301 3.66699 -7.66602 5 -12.999s2.16602 -12.166 2.49902 -20.499s0 -18.5 -1 -30.5s-3.5 -26.333 -7.5 -43c-9.33301 -43.333 -24.666 -93 -45.999 -149c-11.333 -28.667 -23.333 -56.834 -36 -84.501
s-26 -54.5 -40 -80.5c0 -22.667 0.5 -44.667 1.5 -66s2.16699 -41.666 3.5 -60.999s3 -35 5 -47s4 -21.333 6 -28c4.66699 4 11.334 11.167 20.001 21.5s19.667 26.5 33 48.5c24.667 40 52.667 94 84 162c3.33301 7.33301 9 12.333 17 15s15.667 2.33398 23 -0.999023
s12.5 -9 15.5 -17s2.83301 -15.667 -0.5 -23c-32 -68.667 -60.667 -124 -86 -166c-19.333 -30.667 -36.5 -54 -51.5 -70s-29.5 -26.667 -43.5 -32c-7.33301 -2 -13.333 -3 -18 -3zM772.999 653c-3.33301 -2.66699 -6.5 -6.00098 -9.5 -10.001s-5.5 -7.66699 -7.5 -11
c-11.333 -19.333 -21 -47.166 -29 -83.499s-14 -78.5 -18 -126.5l12 31c10.667 26.667 19.667 51.834 27 75.501s13.333 45.167 18 64.5c3.33301 16 5.33301 28.667 6 38s1 16.666 1 21.999z" />
    <glyph glyph-name="V" unicode="V" horiz-adv-x="804" 
d="M1828 791c3.33301 -7.33301 3.16504 -14.8379 -0.501953 -22.5049s-9.16699 -13.167 -16.5 -16.5c-8 -3.33301 -15.667 -3.16602 -23 0.500977s-12.666 9.5 -15.999 17.5c-12.667 31.333 -38 52 -76 62c-19.333 4.66699 -41.833 6.83398 -67.5 6.50098
s-54.5 -3.16602 -86.5 -8.49902c-31.333 -5.33301 -64.5 -12.5 -99.5 -21.5s-70.667 -19.167 -107 -30.5s-72.833 -23.333 -109.5 -36l-107 -38l-172 -59c-52.667 -18 -99.667 -30.667 -141 -38c-6 -29.333 -17.667 -64 -35 -104c-13.333 -31.333 -30 -65.5 -50 -102.5
s-43.667 -76.5 -71 -118.5l-67.5 -102.5l-60 -85.5l-43.5 -59l-17 -22c-6 -8 -14 -12 -24 -12c-4.66699 0 -9 1 -13 3c-6.66699 3.33301 -11.334 8.16602 -14.001 14.499s-3.33398 13.166 -2.00098 20.499c7.33301 29.333 14.5 59.666 21.5 90.999s12.667 63.166 17 95.499
s7 65 8 98s-0.833008 65.833 -5.5 98.5c-2.66699 17.333 -6.83398 37.5 -12.501 60.5s-14.167 45.833 -25.5 68.5c-21.333 42.667 -50.333 73.334 -87 92.001c-19.333 9.33301 -40.666 14 -63.999 14s-46.333 -4.66699 -69 -14c-23.333 -9.33301 -45 -23 -65 -41
s-36 -38.333 -48 -61c-11.333 -22.667 -18.166 -46 -20.499 -70s0.5 -46.333 8.5 -67c8 -19.333 20.333 -35.666 37 -48.999s35.667 -22.333 57 -27c8.66699 -1.33301 15.167 -5.5 19.5 -12.5s5.83301 -14.5 4.5 -22.5s-5.5 -14.333 -12.5 -19
s-14.5 -6.33398 -22.5 -5.00098c-32 6.66699 -60.167 19.834 -84.5 39.501s-42.166 44.167 -53.499 73.5c-11.333 28.667 -15.833 59.5 -13.5 92.5s11.5 64.5 27.5 94.5c15.333 28.667 35.333 54.334 60 77.001s52.334 40.334 83.001 53.001c30 12 61 18 93 18
c32.667 -1.33301 62.334 -8 89.001 -20c48.667 -24.667 86.667 -64.334 114 -119.001c13.333 -26.667 23.333 -53.167 30 -79.5s11.334 -49.166 14.001 -68.499c6.66699 -44.667 8.5 -89.5 5.5 -134.5s-8.16699 -89.167 -15.5 -132.5l49 71l52 80
c25.333 41.333 47.833 79.666 67.5 114.999s35.834 68 48.501 98c13.333 30.667 22.333 55.334 27 74.001c-28.667 1.33301 -54 7.33301 -76 18c-11.333 6.66699 -21.333 14.334 -30 23.001s-15.334 18.334 -20.001 29.001c-6.66699 14.667 -9 29.167 -7 43.5
s7.66699 26.5 17 36.5c5.33301 5.33301 12.166 10.166 20.499 14.499s19.5 6.83301 33.5 7.5c20 2 43.333 -2.66699 70 -14c28.667 -12 47.667 -33.667 57 -65c1.33301 -3.33301 2.16602 -7.16602 2.49902 -11.499s0.833008 -8.5 1.5 -12.5c38 8 81.833 20.333 131.5 37
l155.5 54l109 38.5c37.333 13 74.5 25.167 111.5 36.5s73.5 21.833 109.5 31.5s70.333 17.167 103 22.5c73.333 12 133 12 179 0c58 -15.333 97 -48.333 117 -99zM670.999 695.995c4 -8.66699 12.667 -16.832 26 -24.499s31.666 -11.167 54.999 -10.5
c0 5.33301 -0.666992 11.333 -2 18c-4 12 -11.333 20.333 -22 25c-17.333 6.66699 -31 10 -41 10c-5.33301 0 -9.16602 -0.5 -11.499 -1.5s-3.83301 -1.83301 -4.5 -2.5c-2.66699 -2.66699 -2.66699 -7.33398 0 -14.001z" />
    <glyph glyph-name="W" unicode="W" horiz-adv-x="1026" 
d="M2051 791c3.33301 -7.33301 3.16016 -14.6631 -0.506836 -21.9961s-9.5 -12.666 -17.5 -15.999c-7.33301 -3.33301 -14.666 -3.33301 -21.999 0s-12.666 9 -15.999 17c-12.667 31.333 -38 52 -76 62c-36.667 9.33301 -88.334 9 -155.001 -1
c-31.333 -5.33301 -64.5 -12.5 -99.5 -21.5s-70.667 -19.333 -107 -31l-109.5 -36.5l-107 -38l-171.5 -58.5c-53 -17.667 -99.833 -30.167 -140.5 -37.5c-3.33301 -15.333 -7.83301 -31.666 -13.5 -48.999s-12.5 -36 -20.5 -56
c-27.333 -62.667 -67.666 -136.334 -120.999 -221.001l-67.5 -102.5l-60 -85.5l-43.5 -59l-17 -22c-6 -8 -13.667 -12 -23 -12c-2 0 -5 0.666992 -9 2c-6 1.33301 -10.833 4.5 -14.5 9.5s-5.83398 10.5 -6.50098 16.5l-1.5 19.5c-1 13 -2.16699 30.333 -3.5 52l-4.5 75
c-1.66699 28.333 -2.83398 58.166 -3.50098 89.499c-4 -7.33301 -8.66699 -15 -14 -23l-53 -86l-45.5 -72.5c-13 -21 -23.667 -37.667 -32 -50l-12.5 -18.5c-4 -6 -9.5 -10.167 -16.5 -12.5s-13.833 -1.83301 -20.5 1.5c-7.33301 3.33301 -12.5 8.16602 -15.5 14.499
s-3.5 13.166 -1.5 20.499c7.33301 28.667 14.5 58.667 21.5 90s12.5 63.333 16.5 96s6.5 65.5 7.5 98.5s-0.833008 65.833 -5.5 98.5c-2 16 -5.66699 34.5 -11 55.5s-12.666 42 -21.999 63s-21.5 40.667 -36.5 59s-33.5 32.833 -55.5 43.5
c-19.333 9.33301 -40.666 14 -63.999 14s-46.333 -4.66699 -69 -14c-23.333 -9.33301 -45 -23 -65 -41s-36 -38 -48 -60c-11.333 -23.333 -18.166 -47 -20.499 -71s0.5 -46 8.5 -66s20.333 -36.667 37 -50s35.667 -22.333 57 -27c8.66699 -1.33301 15.167 -5.5 19.5 -12.5
s5.83301 -14.5 4.5 -22.5s-5.5 -14.333 -12.5 -19s-14.5 -6.33398 -22.5 -5.00098c-32 6.66699 -60.167 19.834 -84.5 39.501s-42.166 44.167 -53.499 73.5c-11.333 28.667 -15.666 59.5 -12.999 92.5s11.667 64.5 27 94.5c14.667 28 35 54 61 78c24 22 51.333 39.333 82 52
c30 12 61 18 93 18c32.667 0 62.334 -6.66699 89.001 -20c47.333 -22.667 85.333 -62 114 -118c13.333 -26.667 23.333 -53.334 30 -80.001s11.667 -49.667 15 -69c5.33301 -40.667 7 -81.334 5 -122.001s-6 -81 -12 -121l53 86c12.667 20 24.167 39 34.5 57l29.5 51
c0.666992 116 9.66699 193 27 231c11.333 24 25 41 41 51c19.333 12.667 38.333 15.334 57 8.00098c18.667 -6.66699 31 -19.667 37 -39c5.33301 -18 5 -37.333 -1 -58c-12 -41.333 -45.667 -111 -101 -209v-42c0 -14.667 0.333008 -30 1 -46
c1.33301 -30.667 2.5 -60 3.5 -88s2.16699 -53 3.5 -75l63 89c24 34.667 48.333 71.667 73 111c52.667 83.333 91.334 154.333 116.001 213c13.333 30.667 22.333 55.334 27 74.001c-28.667 1.33301 -54 7.33301 -76 18c-24 13.333 -41 30.666 -51 51.999
c-6.66699 14.667 -8.83398 29.167 -6.50098 43.5s8.16602 26.5 17.499 36.5c4.66699 5.33301 11.334 10.166 20.001 14.499s20 7.16602 34 8.49902c20.667 1.33301 44 -3.66699 70 -15c29.333 -11.333 48 -33 56 -65c1.33301 -3.33301 2.33301 -7.16602 3 -11.499
s1 -8.5 1 -12.5c38 8 81.833 20.333 131.5 37l155.5 54l109 38.5c37.333 13 74.5 25.167 111.5 36.5s73.5 21.833 109.5 31.5s70.667 17.167 104 22.5c72.667 12 132.334 12 179.001 0c58 -15.333 97 -48.333 117 -99zM893.994 696.003
c4 -8.66699 12.667 -16.832 26 -24.499s31.666 -11.167 54.999 -10.5c0 6.66699 -1 12.667 -3 18c-2.66699 11.333 -9.66699 19.666 -21 24.999c-18 6.66699 -32 10 -42 10c-4.66699 0 -8.16699 -0.5 -10.5 -1.5s-4.16602 -1.83301 -5.49902 -2.5
c-2 -3.33301 -1.66699 -8 1 -14zM700.994 588.005c-2.66699 -6 -5.50098 -15.668 -8.50098 -29.001s-5.83301 -32.666 -8.5 -57.999c11.333 22.667 19.833 41 25.5 55s9.83398 25.333 12.501 34c3.33301 12.667 3.66602 21 0.999023 25
c-1.33301 -1.33301 -4.16602 -3.83301 -8.49902 -7.5s-8.83301 -10.167 -13.5 -19.5z" />
    <glyph glyph-name="X" unicode="X" horiz-adv-x="724" 
d="M1075 -208c1.33301 -8.66699 -0.165039 -16.498 -4.49805 -23.498s-10.833 -11.167 -19.5 -12.5c-42.667 -8.66699 -84.334 -13 -125.001 -13h-21c-43.333 2 -84 9.66699 -122 23c-36 12.667 -69 30.667 -99 54c-28 20.667 -54 46.667 -78 78
c-20 25.333 -38.667 54.333 -56 87s-34 70 -50 112c-13.333 36.667 -25.666 73.667 -36.999 111s-22 74.666 -32 111.999c-2.66699 7.33301 -5 14.666 -7 21.999l-6 22l-374 -364c-6 -6 -13 -9 -21 -9c-8.66699 0 -16 3 -22 9c-5.33301 6 -8 13.167 -8 21.5s3 15.5 9 21.5
l397 386c-15.333 48.667 -31.166 91.667 -47.499 129s-35 67.833 -56 91.5s-45.167 39.667 -72.5 48s-60 7.83301 -98 -1.5c-8.66699 -2 -16.5 -0.833008 -23.5 3.5s-11.5 10.5 -13.5 18.5s-0.833008 15.5 3.5 22.5s10.5 11.5 18.5 13.5
c59.333 14.667 110.666 12 153.999 -8c40.667 -18 75.667 -49.333 105 -94c16 -24 30.167 -50.833 42.5 -80.5s24.166 -61.5 35.499 -95.5l233 226c6 6 13.167 9 21.5 9s15.5 -3 21.5 -9c5.33301 -6 8 -13.167 8 -21.5s-3 -15.5 -9 -21.5l-255 -248l21 -75l32 -110
c10.667 -36.667 22.5 -72.167 35.5 -106.5s27.5 -67.333 43.5 -99s34.333 -60.5 55 -86.5c45.333 -58.667 99.166 -97.5 161.499 -116.5s136.833 -19.833 223.5 -2.5c8.66699 1.33301 16.5 -0.166992 23.5 -4.5s11.167 -10.5 12.5 -18.5z" />
    <glyph glyph-name="Y" unicode="Y" horiz-adv-x="802" 
d="M1157 -288c-9.33301 0 -18.8379 0.500977 -28.5049 1.50098s-19.5 2.16699 -29.5 3.5c-45.333 6.66699 -90.5 18.667 -135.5 36s-89.833 35.666 -134.5 54.999l-108 45.5c-35.333 14.333 -69.666 25.166 -102.999 32.499c-8 -24 -17 -44.667 -27 -62
c-25.333 -43.333 -56.666 -71.666 -93.999 -84.999c-29.333 -10 -58 -10.667 -86 -2c-27.333 8.66699 -46.666 24.334 -57.999 47.001c-10.667 22 -11.334 44.333 -2.00098 67c8 22 25 42 51 60c25.333 17.333 52 29.333 80 36s59 8.66699 93 6l6 25
c4 17.333 7.5 35.5 10.5 54.5s5.83301 38.5 8.5 58.5c-3.33301 -3.33301 -6.33301 -6.83301 -9 -10.5s-5.66699 -7.16699 -9 -10.5c-48 -57.333 -94 -86 -138 -86c-7.33301 0 -14.333 1 -21 3c-24.667 5.33301 -42.334 17.333 -53.001 36
c-7.33301 12 -11.833 25.5 -13.5 40.5s-1.5 31.667 0.5 50s5.66699 38 11 59l17 67.5c9.33301 37.333 18.333 75.5 27 114.5s12.334 76.5 11.001 112.5c-1.33301 38 -9.83301 69.5 -25.5 94.5s-39.167 44.833 -70.5 59.5c-19.333 9.33301 -40.666 14.166 -63.999 14.499
s-46.333 -4.16699 -69 -13.5c-23.333 -9.33301 -45 -23 -65 -41s-35.667 -38.333 -47 -61c-12 -22.667 -19 -46.167 -21 -70.5s1 -46.5 9 -66.5c7.33301 -19.333 19.5 -35.833 36.5 -49.5s36.167 -22.5 57.5 -26.5c8 -1.33301 14.333 -5.5 19 -12.5s6 -14.833 4 -23.5
c-1.33301 -8 -5.5 -14.167 -12.5 -18.5s-14.5 -5.83301 -22.5 -4.5c-32 6.66699 -60.167 19.834 -84.5 39.501s-42.166 44.167 -53.499 73.5c-11.333 28 -15.666 58.5 -12.999 91.5s12 64.833 28 95.5c14.667 28.667 34.667 54.334 60 77.001c26 22.667 53.667 40 83 52
c28.667 12 59.667 18 93 18c32 0 61.333 -6.66699 88 -20c43.333 -20 76.333 -49.333 99 -88c18.667 -32.667 29 -71.667 31 -117c1.33301 -40 -2.5 -81.167 -11.5 -123.5s-18.5 -82.833 -28.5 -121.5l-15 -59.5c-4.66699 -19 -8 -36.5 -10 -52.5
c-3.33301 -18 -4.33301 -31.5 -3 -40.5s3.33301 -15.167 6 -18.5l4.5 -4.5c1.66699 -1.66699 4.83398 -3.16699 9.50098 -4.5c22.667 -4 51 11 85 45c15.333 15.333 30.833 33.833 46.5 55.5s31.167 46.5 46.5 74.5l7 102c3.33301 41.333 6.33301 80.666 9 117.999
s6.33398 72 11.001 104c6 38.667 13.5 69.167 22.5 91.5s20.167 39.166 33.5 50.499c15.333 12 32.666 17 51.999 15c6.66699 -1.33301 14.834 -4.66602 24.501 -9.99902s17.5 -16 23.5 -32c6.66699 -18 9.16699 -39.833 7.5 -65.5s-5.33398 -51.834 -11.001 -78.501
s-12.5 -52.167 -20.5 -76.5s-14.667 -43.833 -20 -58.5c-11.333 -32 -23.833 -62.833 -37.5 -92.5s-28.167 -58.167 -43.5 -85.5c-3.33301 -41.333 -7.5 -82.166 -12.5 -122.499s-11.167 -78.5 -18.5 -114.5c-1.33301 -3.33301 -2.33301 -6.83301 -3 -10.5l-2 -10.5
c36 -8.66699 72.333 -20.334 109 -35.001s73 -30 109 -46c42.667 -18.667 85.5 -36.334 128.5 -53.001s84.833 -28 125.5 -34c44 -6.66699 83.667 -5 119 5s68 28.667 98 56c6 6 13.167 8.83301 21.5 8.5s15.166 -3.83301 20.499 -10.5
c5.33301 -6 7.83301 -13.167 7.5 -21.5s-3.5 -15.166 -9.5 -20.499c-59.333 -54 -128.333 -81 -207 -81zM546.995 -105.999c-20 0 -39.168 -2.49902 -57.501 -7.49902s-36.166 -13.167 -53.499 -24.5c-12.667 -9.33301 -21.5 -18.333 -26.5 -27s-5.83301 -16.667 -2.5 -24
c4 -8 12.5 -13.833 25.5 -17.5s28.167 -2.83398 45.5 2.49902c23.333 8 43.333 27.333 60 58c3.33301 5.33301 6.5 11.5 9.5 18.5l9.5 21.5h-10zM737.994 641.002c-2 0 -3.33301 -0.667969 -4 -2.00098c-2 -1.33301 -4.33301 -4 -7 -8s-5.5 -10 -8.5 -18
s-6.16699 -18.333 -9.5 -31s-6.33301 -28.334 -9 -47.001c-3.33301 -23.333 -6.33301 -49.166 -9 -77.499s-5.33398 -58.166 -8.00098 -89.499c19.333 46.667 34 91 44 133c5.33301 19.333 9.33301 37.5 12 54.5s4.33398 32.167 5.00098 45.5
c0.666992 14 0.166992 23.833 -1.5 29.5s-3.16699 9.16699 -4.5 10.5z" />
    <glyph glyph-name="Z" unicode="Z" horiz-adv-x="556" 
d="M854 -249c-26.667 0 -52.6689 2.33984 -78.002 7.00684c-32 5.33301 -64.333 13.666 -97 24.999s-65.5 24.166 -98.5 38.499s-65.5 29.5 -97.5 45.5l-94 48l-119.5 60c-37.667 18.667 -72.5 33 -104.5 43c-20 6 -36.833 9.83301 -50.5 11.5s-25.167 1.66699 -34.5 0
s-16.666 -4.33398 -21.999 -8.00098s-9.66602 -7.5 -12.999 -11.5c-5.33301 -6 -12 -9.33301 -20 -10s-15.333 1.66602 -22 6.99902c-6 5.33301 -9.5 12 -10.5 20s1.16699 15 6.5 21l76.5 97l88.5 107l93.5 110l91.5 105.5l83 94.5l68 77
c-54.667 -2 -106.334 7.66699 -155.001 29l-12 6c-20 9.33301 -39.667 17.5 -59 24.5s-39.333 11.5 -60 13.5c-24 2 -45.667 -0.333008 -65 -7c-23.333 -8.66699 -42.333 -21.334 -57 -38.001c-6.66699 -7.33301 -12.167 -15.166 -16.5 -23.499
s-8.16602 -16.833 -11.499 -25.5c-2.66699 -9.33301 -4 -18.333 -4 -27s0.666992 -17 2 -25c1.33301 -8.66699 -0.166992 -16.5 -4.5 -23.5s-10.5 -11.167 -18.5 -12.5s-15.5 0.166992 -22.5 4.5s-11.5 10.5 -13.5 18.5c-5.33301 27.333 -4 54.333 4 81
c6.66699 26.667 20 51 40 73c22.667 25.333 50 43.666 82 54.999c29.333 9.33301 59.333 12.666 90 9.99902c25.333 -2.66699 49.5 -8.16699 72.5 -16.5s45.167 -17.5 66.5 -27.5c2 -0.666992 3.83301 -1.33398 5.5 -2.00098s3.5 -1.66699 5.5 -3c42 -18 85.667 -26 131 -24
c10 0.666992 21.667 2.33398 35 5.00098s25.333 6.66699 36 12c6.66699 3.33301 13.5 4.33301 20.5 3s12.833 -4.66602 17.5 -9.99902c4.66699 -6 7 -12.667 7 -20s-2.66699 -13.666 -8 -18.999c-0.666992 -0.666992 -8.83398 -9.83398 -24.501 -27.501l-63 -71
l-90.5 -102.5l-106.5 -122.5l-111 -130.5l-104.5 -126c22 -1.33301 47 -6.33301 75 -15c34 -10.667 70.667 -25.667 110 -45l123 -62l91.5 -46.5c31 -15.667 62.333 -30.334 94 -44.001s63 -25.834 94 -36.501s61.167 -18.667 90.5 -24
c64.667 -11.333 119.5 -7.33301 164.5 12s82.833 55 113.5 107c4 7.33301 10 12 18 14s15.667 0.666992 23 -4c7.33301 -4 12 -10 14 -18s0.666992 -15.667 -4 -23c-39.333 -66.667 -89.666 -111.667 -150.999 -135c-33.333 -12.667 -70 -19 -110 -19z" />
    <glyph glyph-name="bracketleft" unicode="[" horiz-adv-x="494" 
d="M52 -194c-10 0 -18 3.66602 -24 10.999c-6.66699 7.33301 -8.33398 16 -5.00098 26l217 819c3.33301 14 12.333 21.667 27 23l191 13c8.66699 0.666992 16 -1.66602 22 -6.99902s9.33301 -12.333 10 -21c0.666992 -8 -1.66602 -15.167 -6.99902 -21.5
s-12.333 -9.83301 -21 -10.5l-169 -12l-202 -760l176 4c8 0 15 -2.83301 21 -8.5s9 -12.5 9 -20.5c0 -8.66699 -2.83301 -16 -8.5 -22s-12.5 -9 -20.5 -9z" />
    <glyph glyph-name="backslash" unicode="\" horiz-adv-x="406" 
d="M331 16l-310 641c-4.66699 9.33301 -5.33398 17.666 -2.00098 24.999s8.5 12.666 15.5 15.999s14.333 4 22 2s13.834 -7.66699 18.501 -17l310 -641c4.66699 -9.33301 5.33398 -17.666 2.00098 -24.999s-8.5 -12.666 -15.5 -15.999s-14.333 -4 -22 -2
s-13.834 7.66699 -18.501 17z" />
    <glyph glyph-name="bracketright" unicode="]" horiz-adv-x="495" 
d="M443 699c10 0 18 -3.66602 24 -10.999c6.66699 -7.33301 8.33398 -16 5.00098 -26l-217 -819c-3.33301 -14 -12.333 -21.667 -27 -23l-191 -13c-8.66699 -0.666992 -16 1.66602 -22 6.99902s-9.33301 12.333 -10 21c-0.666992 8 1.66602 15.167 6.99902 21.5
s12.333 9.83301 21 10.5l169 12l202 760l-176 -4c-8 0 -15 2.83301 -21 8.5s-9 12.5 -9 20.5c0 8.66699 2.83301 16 8.5 22s12.5 9 20.5 9z" />
    <glyph glyph-name="asciicircum" unicode="^" horiz-adv-x="537" 
d="M473 340c-12 0 -21.002 5.66699 -27.002 17l-117 236l-262 -244c-6 -6 -13.167 -8.83301 -21.5 -8.5s-15.166 3.5 -20.499 9.5s-8 13.167 -8 21.5s3 15.166 9 20.499l291 272c6.66699 6.66699 15.334 9.33398 26.001 8.00098c10 -2 17 -7.33301 21 -16l136 -272
c3.33301 -7.33301 3.83301 -15 1.5 -23s-7.16602 -13.667 -14.499 -17c-4.66699 -2.66699 -9.33398 -4 -14.001 -4z" />
    <glyph glyph-name="underscore" unicode="_" horiz-adv-x="548" 
d="M-10 -205c-10 0 -17.667 3.16699 -23 9.5s-8 13.166 -8 20.499s2.66699 14.166 8 20.499s13 9.5 23 9.5h469c10 0 17.667 -3.16699 23 -9.5s8 -13.166 8 -20.499s-2.66699 -14.166 -8 -20.499s-13 -9.5 -23 -9.5h-469v0z" />
    <glyph glyph-name="grave" unicode="`" horiz-adv-x="183" 
d="M31 636c-7.33301 7.33301 -10.333 15 -9 23s4.66602 14.5 9.99902 19.5s12 7.66699 20 8s15.667 -3.16699 23 -10.5l76 -76c6.66699 -7.33301 9.5 -15 8.5 -23s-4.16699 -14.5 -9.5 -19.5s-12.166 -7.66699 -20.499 -8s-15.833 3.16699 -22.5 10.5l-76 76v0z" />
    <glyph glyph-name="a" unicode="a" horiz-adv-x="365" 
d="M58 -8c-4.66699 0 -9.67188 0.668945 -15.0049 2.00195c-17.333 3.33301 -32 12 -44 26c-11.333 12.667 -19.333 28.667 -24 48c-11.333 38 -11.333 83.333 0 136c8.66699 40 20.5 77.833 35.5 113.5s32.833 67.167 53.5 94.5c19.333 24.667 40 45 62 61
c24.667 16 47.667 23.667 69 23c5.33301 0 12.333 -1.16699 21 -3.5s17.5 -7.33301 26.5 -15s17.167 -18.334 24.5 -32.001s12.666 -32.167 15.999 -55.5c1.33301 -8 -0.5 -15.167 -5.5 -21.5s-11.5 -10.166 -19.5 -11.499c-8.66699 -1.33301 -16.167 0.5 -22.5 5.5
s-10.166 11.5 -11.499 19.5c-0.666992 4 -1.66699 9 -3 15s-3.16602 11.833 -5.49902 17.5s-5.33301 10.667 -9 15s-8.16699 6.5 -13.5 6.5c-8 0 -19.167 -4.33301 -33.5 -13s-30.166 -24.334 -47.499 -47.001c-18 -23.333 -33.667 -50.833 -47 -82.5
s-23.666 -65.5 -30.999 -101.5c-4.66699 -21.333 -7.16699 -40.333 -7.5 -57s0.833984 -30.834 3.50098 -42.501s6.16699 -21 10.5 -28s9.16602 -10.833 14.499 -11.5c6 -1.33301 14.667 1.66699 26 9s23.5 20.833 36.5 40.5s26.333 46.334 40 80.001
s25.834 76.167 36.501 127.5c1.33301 8 5.5 14.167 12.5 18.5s14.5 5.83301 22.5 4.5s14.333 -5.33301 19 -12s6.33398 -14 5.00098 -22c-7.33301 -42 -13 -77.167 -17 -105.5s-7 -52.5 -9 -72.5c-1.33301 -17.333 -2 -31 -2 -41s0.333008 -17.667 1 -23
c4.66699 3.33301 11.5 10.166 20.5 20.499s20.5 26.833 34.5 49.5c12 20 25.167 43.5 39.5 70.5s29.166 57.5 44.499 91.5c3.33301 7.33301 9 12.5 17 15.5s15.667 2.83301 23 -0.5s12.333 -9 15 -17s2.33398 -15.667 -0.999023 -23c-31.333 -68.667 -60 -124 -86 -166
c-18.667 -30.667 -35.667 -54.167 -51 -70.5s-30 -26.833 -44 -31.5c-15.333 -5.33301 -29.333 -4.33301 -42 3c-10.667 5.33301 -18.167 14 -22.5 26s-7.16602 25.667 -8.49902 41c0 -0.666992 -0.666992 -1.66699 -2 -3c-20 -29.333 -39.333 -48.5 -58 -57.5
s-34.334 -13.5 -47.001 -13.5z" />
    <glyph glyph-name="b" unicode="b" horiz-adv-x="357" 
d="M40 -8c-9.33301 0 -18.335 1.66602 -27.002 4.99902c-5.33301 2 -11.333 6.16699 -18 12.5s-12 16.166 -16 29.499c-2 7.33301 -3.33301 15.333 -4 24s-1 18.667 -1 30c0 36.667 6 88.667 18 156c10.667 60.667 24.5 127.667 41.5 201l51.5 222l3 12
c2 8 6.5 14.167 13.5 18.5s14.5 5.5 22.5 3.5s14.167 -6.5 18.5 -13.5s5.5 -14.5 3.5 -22.5l-3 -12l-47.5 -205c-15.667 -68 -29.167 -131.333 -40.5 -190c-5.33301 -32 -9.66602 -60 -12.999 -84s-5.66602 -45.333 -6.99902 -64c-1.33301 -20 -1.5 -34.667 -0.5 -44
s2.16699 -15.666 3.5 -18.999c14 -1.33301 31.333 10 52 34c13.333 15.333 26.333 34 39 56s24.667 46 36 72c12 28.667 21.667 56.667 29 84c-18 13.333 -32.667 30 -44 50c-12 22.667 -17.667 46.334 -17 71.001s7.66699 44 21 58c8.66699 9.33301 18.834 15 30.501 17
s23.167 0.333008 34.5 -5c6 -3.33301 12.167 -7.83301 18.5 -13.5s12 -13.5 17 -23.5s8.66699 -22.333 11 -37s2.5 -32.334 0.5 -53.001c0 -5.33301 -0.333008 -10.666 -1 -15.999s-1.66699 -10.666 -3 -15.999c30.667 -9.33301 67.667 -10 111 -2
c8.66699 1.33301 16.334 -0.333984 23.001 -5.00098s10.667 -11 12 -19s-0.333984 -15.5 -5.00098 -22.5s-11 -11.167 -19 -12.5c-51.333 -9.33301 -96.333 -8.33301 -135 3c-3.33301 -13.333 -7.5 -26.833 -12.5 -40.5l-15.5 -40.5
c-12.667 -29.333 -26.334 -56.333 -41.001 -81s-29.667 -45.667 -45 -63c-18.667 -21.333 -36 -35.833 -52 -43.5s-30.333 -11.5 -43 -11.5zM195.998 432.999c-2 -4.66699 -3 -12 -3 -22s3 -21 9 -33l5 -8c2 34 -1.66699 55 -11 63z" />
    <glyph glyph-name="c" unicode="c" 
d="M82 -8c-5.33301 0 -10.1709 0.332031 -14.5039 0.999023s-8.83301 1.66699 -13.5 3c-33.333 10.667 -56.333 35.667 -69 75c-11.333 34 -13 77.667 -5 131c6.66699 38 15.834 74.333 27.501 109s25.167 65.667 40.5 93c7.33301 12.667 14.833 24.334 22.5 35.001
s15.834 19.667 24.501 27c20 18.667 39 29 57 31c4 0.666992 9 0.833984 15 0.500977s12.333 -2 19 -5s13.334 -7.83301 20.001 -14.5s12.667 -16 18 -28c3.33301 -7.33301 3.5 -14.833 0.5 -22.5s-8.16699 -13.167 -15.5 -16.5s-15 -3.5 -23 -0.5s-13.667 8.16699 -17 15.5
c-2.66699 7.33301 -5 11 -7 11c-0.666992 0.666992 -1.33398 1 -2.00098 1c-4.66699 -1.33301 -12.5 -6.33301 -23.5 -15s-23.167 -25 -36.5 -49c-14 -24 -26.167 -51.667 -36.5 -83s-18.5 -64.333 -24.5 -99c-7.33301 -42 -7.16602 -74.5 0.500977 -97.5
s18.167 -36.5 31.5 -40.5c10.667 -3.33301 23.334 -1.83301 38.001 4.5s30.334 16.833 47.001 31.5c15.333 14 34.166 35.833 56.499 65.5s46.166 71.5 71.499 125.5c3.33301 7.33301 9 12.5 17 15.5s15.667 2.83301 23 -0.5s12.333 -9 15 -17
s2.33398 -15.667 -0.999023 -23c-21.333 -46 -43.833 -86.833 -67.5 -122.5s-48.167 -64.834 -73.5 -87.501c-40 -36 -78.333 -54 -115 -54z" />
    <glyph glyph-name="d" unicode="d" horiz-adv-x="367" 
d="M59 -8c-4.66699 0 -9.67188 0.666016 -15.0049 1.99902c-17.333 3.33301 -32 12 -44 26c-10.667 12.667 -19 28.667 -25 48c-11.333 37.333 -11.333 83 0 137c8 38.667 19.333 75.167 34 109.5s31.667 65.166 51 92.499c41.333 55.333 83 84.666 125 87.999
c16 1.33301 30 -1.66699 42 -9l17.5 94.5c6.33301 33 12.5 67.167 18.5 102.5c1.33301 8.66699 5.5 15.334 12.5 20.001s14.5 6.33398 22.5 5.00098c8.66699 -1.33301 15.334 -5.5 20.001 -12.5s6.33398 -14.5 5.00098 -22.5l-19 -104l-17 -95l-30.5 -169
c-9 -49.333 -16.167 -93 -21.5 -131c-2.66699 -19.333 -4.5 -36.333 -5.5 -51s-1.83301 -27.667 -2.5 -39c0 -11.333 0.666992 -20.333 2 -27c4.66699 3.33301 11.334 10.166 20.001 20.499s20 26.833 34 49.5c12 20 25.167 43.5 39.5 70.5s29.166 57.5 44.499 91.5
c3.33301 7.33301 9 12.333 17 15s15.667 2.33398 23 -0.999023s12.333 -9 15 -17s2.33398 -15.667 -0.999023 -23c-15.333 -34 -30.166 -64.667 -44.499 -92s-28.166 -51.666 -41.499 -72.999c-18.667 -31.333 -35.667 -55 -51 -71s-30 -26.667 -44 -32c-6 -2 -12 -3 -18 -3
c-8 0 -16 2 -24 6c-12 7.33301 -19.833 17.333 -23.5 30s-5.83398 24.667 -6.50098 36c0 0.666992 -0.166992 1 -0.5 1s-0.5 0.333008 -0.5 1l-2 -3c-20.667 -29.333 -40.167 -48.5 -58.5 -57.5s-34.166 -13.5 -47.499 -13.5zM213.995 414.999
c-4.66699 10.667 -9.49805 16.668 -14.498 18.001s-8.5 2 -10.5 2c-8.66699 -0.666992 -20 -5.66699 -34 -15s-29.333 -25.333 -46 -48c-17.333 -23.333 -32.333 -50.5 -45 -81.5s-22.667 -63.833 -30 -98.5c-4.66699 -21.333 -7 -40.333 -7 -57s1.33301 -30.834 4 -42.501
s6.16699 -21 10.5 -28s9.16602 -10.833 14.499 -11.5c6.66699 -1.33301 15.5 1.5 26.5 8.5s23 20.167 36 39.5s26.167 45.5 39.5 78.5s25.666 74.833 36.999 125.5z" />
    <glyph glyph-name="e" unicode="e" 
d="M82 -8c-5.33301 0 -10.168 0.333984 -14.501 1.00098s-9.16602 1.66699 -14.499 3c-16 5.33301 -29.833 14.333 -41.5 27s-20.5 28.667 -26.5 48c-11.333 34 -13 77.667 -5 131v1c6.66699 38 15.667 74 27 108s24.666 64.333 39.999 91c15.333 26 31 46.667 47 62
c18.667 18 37.667 28 57 30c4 0.666992 9 0.833984 15 0.500977s12.5 -2 19.5 -5s13.833 -7.83301 20.5 -14.5s12.667 -16 18 -28c8.66699 -18.667 8 -45.667 -2 -81c-8.66699 -30.667 -22.667 -60.334 -42 -89.001c-10.667 -15.333 -21.834 -29.5 -33.501 -42.5
s-24.167 -24.167 -37.5 -33.5c-24.667 -17.333 -49 -28 -73 -32c-3.33301 -35.333 -1.16602 -62.5 6.50098 -81.5s17.167 -30.167 28.5 -33.5c10.667 -3.33301 23.334 -1.83301 38.001 4.5s30.334 16.833 47.001 31.5c15.333 14 34.166 35.833 56.499 65.5
s46.166 71.5 71.499 125.5c3.33301 7.33301 8.83301 12.5 16.5 15.5s15.5 2.83301 23.5 -0.5c7.33301 -3.33301 12.333 -9 15 -17s2.33398 -15.667 -0.999023 -23c-21.333 -46 -44 -86.833 -68 -122.5s-48.667 -64.834 -74 -87.501c-40 -36 -78 -54 -114 -54z
M159.998 435.001l-0.998047 0.000976562c-4.66699 -0.666992 -12.5 -5.5 -23.5 -14.5s-23.167 -25.167 -36.5 -48.5c-10.667 -18.667 -20.334 -39.667 -29.001 -63s-16 -48 -22 -74c10 4 19.167 9.33301 27.5 16s16 13.5 23 20.5s13.167 14 18.5 21l13 17.5
c8 12 15 24.333 21 37s10.667 24.667 14 36c3.33301 12.667 5 22.167 5 28.5s-0.333008 10.166 -1 11.499c-2.66699 7.33301 -5.33398 11 -8.00098 11c0 0.666992 -0.333008 1 -1 1z" />
    <glyph glyph-name="f" unicode="f" horiz-adv-x="280" 
d="M282 237l-229.003 0.000976562l-4 -21c-5.33301 -30 -10.666 -61.667 -15.999 -95s-11.333 -68 -18 -104c-1.33301 -7.33301 -4.66602 -13.333 -9.99902 -18s-11.666 -7 -18.999 -7c-2.66699 0 -4.66699 0.333008 -6 1c-8 1.33301 -14.333 5.33301 -19 12
s-6.33398 14 -5.00098 22c6.66699 36 12.667 70.667 18 104s10.666 65 15.999 95c1.33301 5.33301 2.33301 10.333 3 15s1.33398 9.66699 2.00098 15c-1.33301 4 -2 7.66699 -2 11c0 6.66699 2.33301 13 7 19l26 147.5c8 43.667 16 82.167 24 115.5
c11.333 49.333 22.5 85.5 33.5 108.5s24.167 38.167 39.5 45.5c18 7.33301 34.667 6.66602 50 -2.00098c6.66699 -4 13.834 -10.5 21.501 -19.5s15.167 -23.5 22.5 -43.5s14.5 -46.833 21.5 -80.5s13.5 -76.834 19.5 -129.501c1.33301 -8.66699 -0.666992 -16.167 -6 -22.5
s-12 -9.83301 -20 -10.5c-8.66699 -1.33301 -16 0.666992 -22 6s-9.66699 12 -11 20c-4.66699 42.667 -9.66699 78 -15 106s-10.5 50.333 -15.5 67s-9.5 28.834 -13.5 36.501s-7 12.834 -9 15.501c-1.33301 -2 -3.33301 -5.16699 -6 -9.5s-5.66699 -10.833 -9 -19.5
c-8 -22 -16 -51.667 -24 -89c-7.33301 -30 -14.5 -64.167 -21.5 -102.5l-22.5 -128.5h219c8.66699 0 15.834 -3 21.501 -9s8.5 -13 8.5 -21c0 -8.66699 -2.83301 -15.834 -8.5 -21.501s-12.834 -8.5 -21.501 -8.5z" />
    <glyph glyph-name="g" unicode="g" horiz-adv-x="364" 
d="M47 -259c-20.667 0 -39 4.99805 -55 14.998c-19.333 11.333 -31.666 27 -36.999 47c-2.66699 7.33301 -3.5 16.833 -2.5 28.5s6.16699 24.5 15.5 38.5c13.333 22 36 41.333 68 58c18.667 10.667 36.667 21.5 54 32.5s33.666 22.5 48.999 34.5l4 22l4 23
c-17.333 -20 -33.5 -33.167 -48.5 -39.5s-28.167 -9.5 -39.5 -9.5c-7.33301 0 -12.333 0.333008 -15 1c-17.333 4 -32 13 -44 27c-10 11.333 -18.333 27 -25 47c-5.33301 19.333 -8 40.5 -8 63.5s2.66699 47.833 8 74.5c8.66699 40 20.667 77.667 36 113s33.333 67 54 95
c9.33301 13.333 19.166 25 29.499 35s20.833 18.667 31.5 26c24.667 16.667 48 24.334 70 23.001c5.33301 0 12.333 -1.16699 21 -3.5s17.5 -7.16602 26.5 -14.499s17.167 -18 24.5 -32s12.666 -32.333 15.999 -55c1.33301 -8.66699 -0.5 -16.167 -5.5 -22.5
s-11.833 -10.166 -20.5 -11.499c-8 -1.33301 -15.333 0.5 -22 5.5s-10.667 11.833 -12 20.5l-2.5 14.5c-1 5.66699 -2.66699 11.334 -5 17.001s-5.33301 10.667 -9 15s-8.16699 6.5 -13.5 6.5c-8 0.666992 -19.167 -3.5 -33.5 -12.5s-30.166 -24.833 -47.499 -47.5
c-18 -24 -33.833 -51.833 -47.5 -83.5s-24.167 -65.5 -31.5 -101.5c-9.33301 -43.333 -9.66602 -79.333 -0.999023 -108c5.33301 -19.333 13 -30 23 -32c6 -1.33301 14.667 1.66699 26 9s23.5 20.833 36.5 40.5s26.167 46.167 39.5 79.5s25.333 75.666 36 126.999
c1.33301 8 5.5 14.333 12.5 19s14.5 6.33398 22.5 5.00098s14.333 -5.5 19 -12.5s6.33398 -14.5 5.00098 -22.5l-1 -8l-20 -113l-20 -116c62 62 112.667 137.333 152 226c3.33301 8 8.83301 13.5 16.5 16.5s15.167 2.83301 22.5 -0.5s12.666 -8.83301 15.999 -16.5
s3.33301 -15.5 0 -23.5c-18.667 -42 -39.5 -80.833 -62.5 -116.5s-48.833 -69.5 -77.5 -101.5c-26.667 -30 -55 -57 -85 -81c-3.33301 -20.667 -6.5 -39.167 -9.5 -55.5s-5.83301 -30.166 -8.5 -41.499c-4.66699 -22 -11.5 -40.833 -20.5 -56.5
s-19.167 -28.334 -30.5 -38.001s-23.5 -16.834 -36.5 -21.501s-25.5 -7.33398 -37.5 -8.00098h-4zM124 -89.002l-59 -35.998c-20.667 -11.333 -35 -22 -43 -32s-11.333 -18 -10 -24c1.33301 -4.66699 5.5 -8.83398 12.5 -12.501s15.167 -5.5 24.5 -5.5
c16.667 0.666992 31 7.66699 43 21s20.333 31.666 25 54.999z" />
    <glyph glyph-name="h" unicode="h" horiz-adv-x="355" 
d="M-18 -8c-2 0 -3.34082 0.328125 -4.00781 0.995117h-4c-3.33301 0.666992 -6.66602 2.66699 -9.99902 6c-10 6.66699 -14 16 -12 28l116 655c1.33301 8.66699 5.33301 15.334 12 20.001s14.334 6.33398 23.001 5.00098c8 -1.33301 14.333 -5.5 19 -12.5
s6.33398 -14.5 5.00098 -22.5l-55 -308l12 23c28.667 53.333 56.334 87 83.001 101c11.333 6 21.5 9 30.5 9s16.5 -1 22.5 -3c6.66699 -2.66699 13.834 -7.5 21.501 -14.5s13.5 -18.167 17.5 -33.5c2.66699 -8 4.33398 -17.167 5.00098 -27.5s0.666992 -22.166 0 -35.499
c-1.33301 -22 -4.16602 -46.167 -8.49902 -72.5s-9.16602 -53.166 -14.499 -80.499l-11.5 -63.5c-3.66699 -21 -6.16699 -40.167 -7.5 -57.5c-1.33301 -13.333 -2 -24 -2 -32s0.333008 -14.333 1 -19c6 6 15 17.333 27 34s28.333 43.334 49 80.001l22.5 42.5l18.5 36
c5.33301 10.333 9.5 18.833 12.5 25.5l4.5 10c3.33301 7.33301 9 12.333 17 15s15.667 2.33398 23 -0.999023s12.333 -9 15 -17s2.33398 -15.667 -0.999023 -23c0 -0.666992 -1.83301 -4.83398 -5.5 -12.501l-14.5 -29l-21 -40l-25 -46.5c-22 -38 -41 -68 -57 -90
c-14 -18 -26.5 -31 -37.5 -39s-22.167 -11.667 -33.5 -11c-16.667 2 -29.334 9 -38.001 21c-14.667 18 -20.334 45.667 -17.001 83s10.666 85.666 21.999 144.999c4.66699 23.333 8.83398 46.5 12.501 69.5s6.5 44.167 8.5 63.5c2 23.333 2.16699 39.333 0.5 48
s-3.16699 13.667 -4.5 15c-2.66699 0 -4 -0.666992 -4 -2c-3.33301 -1.33301 -10 -7.16602 -20 -17.499s-22.667 -29.833 -38 -58.5c-10 -19.333 -20.167 -40.833 -30.5 -64.5s-20.833 -50.5 -31.5 -80.5c-9.33301 -25.333 -18 -50 -26 -74s-14.833 -45.333 -20.5 -64
s-10 -33.667 -13 -45l-4.5 -17c-0.666992 -2.66699 -2.33398 -6 -5.00098 -10c-4.66699 -5.33301 -10 -9 -16 -11c-1.33301 0 -2.66602 -0.166992 -3.99902 -0.5s-2.66602 -0.5 -3.99902 -0.5z" />
    <glyph glyph-name="i" unicode="i" horiz-adv-x="174" 
d="M29 -8c-8 0 -16.001 1.99902 -24.001 5.99902c-12 6.66699 -19.833 16.334 -23.5 29.001s-5.83398 24.334 -6.50098 35.001c-1.33301 11.333 -1.5 24.5 -0.5 39.5s2.83301 32.833 5.5 53.5c4.66699 38 11.5 82.667 20.5 134l31.5 176l1 7
c1.33301 8.66699 5.5 15.167 12.5 19.5s14.5 5.83301 22.5 4.5s14.333 -5.33301 19 -12s6.33398 -14.334 5.00098 -23.001l-1 -7l-29.5 -162c-8.33301 -47.333 -14.833 -89 -19.5 -125c-2.66699 -18 -4.5 -34 -5.5 -48s-1.83301 -26.333 -2.5 -37c0 -6 0.166992 -11 0.5 -15
s0.833008 -7.33301 1.5 -10c4.66699 3.33301 11.334 10.166 20.001 20.499s20 26.833 34 49.5c12 20 25.167 43.5 39.5 70.5s29.166 57.5 44.499 91.5c3.33301 7.33301 9 12.333 17 15s15.667 2.33398 23 -0.999023s12.5 -9 15.5 -17s2.83301 -15.667 -0.5 -23
c-16 -34 -31.167 -64.833 -45.5 -92.5s-28.166 -52.167 -41.499 -73.5c-18.667 -30.667 -35.5 -54 -50.5 -70s-29.833 -26.667 -44.5 -32c-6 -2 -12 -3 -18 -3zM77.999 523.999c-2 0 -5 0.669922 -9 2.00293c-8 2.66699 -13.833 7.66699 -17.5 15
s-4.16699 14.666 -1.5 21.999c3.33301 10.667 6.16602 21.167 8.49902 31.5s3.83301 18.833 4.5 25.5c-5.33301 5.33301 -8 12 -8 20s2.83301 15 8.5 21s12.834 9 21.501 9c11.333 0 21 -5 29 -15c5.33301 -7.33301 8.33301 -16.5 9 -27.5s-1.33301 -25.5 -6 -43.5
c-2 -10 -4.16699 -18.833 -6.5 -26.5s-3.5 -11.834 -3.5 -12.501c-2 -6.66699 -5.66699 -11.834 -11 -15.501s-11.333 -5.5 -18 -5.5z" />
    <glyph glyph-name="j" unicode="j" horiz-adv-x="174" 
d="M-142 -258c-20 0 -38.3311 4.66602 -54.998 13.999c-18.667 10.667 -31.334 26.334 -38.001 47.001c-2 8 -2.66699 17.833 -2 29.5s5.66699 24.5 15 38.5c14 20.667 36.667 39.667 68 57c19.333 10.667 37.5 21.667 54.5 33s33.5 23 49.5 35l17.5 98l18.5 105.5l17.5 101
l15 86.5l10.5 60.5c2.66699 15 4 22.833 4 23.5c1.33301 8.66699 5.33301 15.334 12 20.001s14.334 6.33398 23.001 5.00098c8 -1.33301 14.333 -5.5 19 -12.5s6.33398 -14.5 5.00098 -22.5c0 -0.666992 -2.16699 -13.667 -6.5 -39l-16.5 -96.5l-22.5 -129l-24.5 -137.5
c32 32 60.5 66.667 85.5 104s47.167 78.333 66.5 123c3.33301 7.33301 8.83301 12.5 16.5 15.5s15.5 2.83301 23.5 -0.5c7.33301 -3.33301 12.5 -8.83301 15.5 -16.5s2.83301 -15.167 -0.5 -22.5c-18.667 -42 -39.334 -81 -62.001 -117s-48.334 -70 -77.001 -102l-41 -41
c-14 -13.333 -28.667 -26.333 -44 -39l-10.5 -56c-3 -16.667 -5.83301 -30.667 -8.5 -42c-4 -22 -10.5 -40.667 -19.5 -56s-19.333 -27.833 -31 -37.5s-23.834 -16.834 -36.501 -21.501s-25 -7.33398 -37 -8.00098h-4zM78.002 523.999c-2 0 -5 0.669922 -9 2.00293
c-8 2.66699 -13.833 7.66699 -17.5 15s-4.16699 14.666 -1.5 21.999c3.33301 10.667 6.16602 21.167 8.49902 31.5s3.83301 18.833 4.5 25.5c-5.33301 5.33301 -8 12 -8 20s2.83301 15 8.5 21s12.834 9 21.501 9c11.333 0 21 -5 29 -15
c5.33301 -7.33301 8.33301 -16.5 9 -27.5s-1.33301 -25.5 -6 -43.5c-2 -10 -4.16699 -18.833 -6.5 -26.5s-3.5 -11.834 -3.5 -12.501c-2 -6.66699 -5.66699 -11.834 -11 -15.501s-11.333 -5.5 -18 -5.5zM-65.998 -88.998c-19.333 -12.667 -39.001 -24.333 -59.001 -35
c-20 -11.333 -34 -22.166 -42 -32.499s-11.333 -18.5 -10 -24.5c1.33301 -4.66699 5.33301 -8.83398 12 -12.501s15 -5.16699 25 -4.5c16.667 0.666992 30.834 7.5 42.501 20.5s20.167 31.167 25.5 54.5z" />
    <glyph glyph-name="k" unicode="k" horiz-adv-x="302" 
d="M-18 -8c-2 0 -3.66602 0.331055 -4.99902 0.998047c-8 1.33301 -14.333 5.33301 -19 12s-6.33398 14 -5.00098 22l115 655c1.33301 8.66699 5.5 15.334 12.5 20.001s14.5 6.33398 22.5 5.00098s14.333 -5.5 19 -12.5s6.33398 -14.5 5.00098 -22.5l-42 -238l13.5 17
c4.33301 5.33301 9.16602 10.333 14.499 15c18.667 18 37.667 28 57 30c3.33301 0.666992 8 0.833984 14 0.500977s12.5 -2 19.5 -5s14 -7.83301 21 -14.5s13.167 -16 18.5 -28c8.66699 -20.667 8 -47.667 -2 -81c-4.66699 -14.667 -10.667 -29.667 -18 -45
s-15.666 -30 -24.999 -44c-20.667 -32.667 -44.334 -58 -71.001 -76c-23.333 -17.333 -47.333 -28 -72 -32c-3.33301 -35.333 -1.33301 -62.5 6 -81.5s16.666 -30.167 27.999 -33.5s24.333 -2 39 4s30.334 16.667 47.001 32c15.333 14 34.166 35.833 56.499 65.5
s45.833 71.5 70.5 125.5c3.33301 7.33301 9 12.5 17 15.5s15.667 2.83301 23 -0.5s12.5 -9 15.5 -17s2.83301 -15.667 -0.5 -23c-21.333 -46 -44 -86.833 -68 -122.5s-48.667 -64.834 -74 -87.501c-39.333 -36 -77.666 -54 -114.999 -54c-10.667 0 -20 1.33301 -28 4
c-23.333 7.33301 -42 22 -56 44l-4 -25c-3.33301 -16.667 -13.333 -25 -30 -25zM178.001 436.998l-0.999023 0.000976562c-4 -0.666992 -11.5 -5.5 -22.5 -14.5s-23.167 -25.167 -36.5 -48.5c-22.667 -37.333 -40 -83.333 -52 -138c20 8.66699 37 21 51 37s24.333 29 31 39
c8 11.333 15 23.333 21 36s10.667 25 14 37c4 12.667 6 22.167 6 28.5s-0.333008 10.166 -1 11.499c-4 7.33301 -6.66699 11 -8 11c-0.666992 0.666992 -1.33398 1 -2.00098 1z" />
    <glyph glyph-name="l" unicode="l" horiz-adv-x="173" 
d="M29 -8c-9.33301 0 -17.333 1.99805 -24 5.99805c-12.667 7.33301 -20.834 17.333 -24.501 30s-5.83398 24.667 -6.50098 36c-0.666992 22.667 1.33301 55 6 97c4.66699 40 11.667 86.667 21 140l33 183l36 199c1.33301 8.66699 5.33301 15.334 12 20.001
s14.334 6.33398 23.001 5.00098c8 -1.33301 14.333 -5.5 19 -12.5s6.33398 -14.5 5.00098 -22.5l-36 -200l-30 -168c-8.66699 -49.333 -15.667 -93 -21 -131c-2.66699 -19.333 -4.66699 -36.333 -6 -51s-2 -27.667 -2 -39c0 -14.667 0.333008 -23.667 1 -27
c4.66699 3.33301 11.5 10.166 20.5 20.499s20.167 26.833 33.5 49.5c24.667 40 52.667 94 84 162c3.33301 7.33301 9 12.333 17 15s15.667 2.33398 23 -0.999023s12.5 -9 15.5 -17s2.83301 -15.667 -0.5 -23c-32 -68.667 -60.667 -124 -86 -166
c-19.333 -30.667 -36.5 -54 -51.5 -70s-29.5 -26.667 -43.5 -32c-6 -2 -12 -3 -18 -3z" />
    <glyph glyph-name="m" unicode="m" horiz-adv-x="551" 
d="M175 -8c-3.33301 0 -5.66309 0.330078 -6.99609 0.99707c-8 2 -14.167 6.5 -18.5 13.5s-5.5 14.5 -3.5 22.5c4 18 8 37.667 12 59c3.33301 18 6.83301 38.5 10.5 61.5s7.16699 47.167 10.5 72.5c5.33301 37.333 8.83301 68.833 10.5 94.5s2.33398 46.5 2.00098 62.5
s-1.33301 28.167 -3 36.5s-3.16699 14.166 -4.5 17.499c-3.33301 -2 -7.83301 -6.5 -13.5 -13.5s-12.834 -18.333 -21.501 -34s-18.667 -36.5 -30 -62.5s-24.333 -59.333 -39 -100c-9.33301 -26 -18 -51.5 -26 -76.5l-21 -67c-6 -19.667 -10.667 -35.5 -14 -47.5l-5 -18
c-2 -7.33301 -6.5 -13.166 -13.5 -17.499s-14.5 -5.5 -22.5 -3.5c-7.33301 1.33301 -13.333 5.5 -18 12.5s-6.33398 14.167 -5.00098 21.5l78 444c1.33301 8 5.33301 14.333 12 19s14.334 6.33398 23.001 5.00098c8 -1.33301 14.333 -5.33301 19 -12
s6.33398 -14.334 5.00098 -23.001l-15 -83c10 20 19 36.667 27 50s15.5 24.333 22.5 33s13.333 15.167 19 19.5s10.834 7.5 15.501 9.5c10 5.33301 18.833 7.5 26.5 6.5s14.167 -2.5 19.5 -4.5c16.667 -6.66699 28.667 -22 36 -46c2.66699 -8 4.5 -17 5.5 -27
s1.83301 -21.667 2.5 -35c0.666992 -8 0.833984 -16.667 0.500977 -26s-0.833008 -19.333 -1.5 -30c5.33301 10.667 10.166 20.834 14.499 30.501s9.16602 18.834 14.499 27.501c29.333 54.667 57 88.667 83 102c11.333 6 21.5 8.83301 30.5 8.5s16.5 -1.5 22.5 -3.5
c7.33301 -2.66699 14.833 -7.5 22.5 -14.5s13.5 -18.167 17.5 -33.5c4 -14.667 5.33301 -35.334 4 -62.001c-1.33301 -22 -4.16602 -46.167 -8.49902 -72.5s-9.16602 -52.833 -14.499 -79.5c-4 -22 -7.66699 -43.333 -11 -64s-6 -39.667 -8 -57
c-1.33301 -13.333 -2 -24 -2 -32s0.666992 -14 2 -18c5.33301 5.33301 14 16.333 26 33s28.333 43.667 49 81c8 14 15.5 27.833 22.5 41.5l18.5 36c5.33301 10.333 9.5 18.833 12.5 25.5l4.5 10c3.33301 7.33301 9 12.333 17 15s15.667 2.33398 23 -0.999023
s12.5 -9 15.5 -17s2.83301 -15.667 -0.5 -23c-0.666992 -0.666992 -2.83398 -4.66699 -6.50098 -12l-14.5 -29l-21 -40.5l-25 -46.5c-21.333 -38 -40.333 -68 -57 -90c-26 -34.667 -49.667 -51 -71 -49c-16 1.33301 -28.667 8 -38 20c-14 18.667 -19.333 46.5 -16 83.5
s10.333 85.167 21 144.5c4.66699 23.333 9 46.333 13 69s6.66699 43.667 8 63c2 22.667 2.16699 38.334 0.5 47.001s-3.16699 13.667 -4.5 15c-0.666992 0 -1.33398 -0.166992 -2.00098 -0.5s-1.33398 -0.5 -2.00098 -0.5c-4.66699 -2.66699 -11.834 -9.16699 -21.501 -19.5
s-21.834 -29.5 -36.501 -57.5c-10 -18.667 -20.333 -40 -31 -64s-21.334 -51 -32.001 -81l-26 -73.5c-8 -23.667 -14.833 -44.667 -20.5 -63l-13.5 -44.5l-5 -17c-4.66699 -14.667 -14.334 -22 -29.001 -22z" />
    <glyph glyph-name="n" unicode="n" horiz-adv-x="358" 
d="M-13 -8l-5.00488 -0.00195312c-0.666992 0 -1.33398 0.333008 -2.00098 1h-4c-8 2.66699 -14 7.5 -18 14.5s-5 14.5 -3 22.5c0.666992 0 1 0.333008 1 1c0 2 0.333008 3.66699 1 5l75 434c1.33301 8 5.33301 14.5 12 19.5s14.334 6.83301 23.001 5.5
c8 -1.33301 14.333 -5.5 19 -12.5s6.33398 -14.5 5.00098 -22.5l-18 -99l13 24c28.667 53.333 56.334 87 83.001 101c11.333 6 21.5 9 30.5 9s16.5 -1 22.5 -3c7.33301 -2.66699 14.833 -7.5 22.5 -14.5s13.5 -18.167 17.5 -33.5c4 -14.667 5.33301 -35.334 4 -62.001
c-1.33301 -22 -4.16602 -46.167 -8.49902 -72.5s-9.16602 -53.166 -14.499 -80.499l-11.5 -63.5c-3.66699 -20.333 -6.16699 -39.166 -7.5 -56.499c-1.33301 -13.333 -2 -24 -2 -32s0.666992 -14.333 2 -19c5.33301 6 14 17.333 26 34s28.333 43.334 49 80.001l22.5 42.5
l18.5 36c5.33301 10.333 9.5 18.833 12.5 25.5l4.5 10c3.33301 7.33301 9 12.333 17 15s15.667 2.33398 23 -0.999023s12.5 -9 15.5 -17s2.83301 -15.667 -0.5 -23c-0.666992 -0.666992 -2.83398 -4.83398 -6.50098 -12.501l-14.5 -29l-21 -40l-25 -46.5
c-21.333 -38 -40.333 -68 -57 -90c-13.333 -18 -25.666 -31 -36.999 -39s-22.666 -11.667 -33.999 -11c-16.667 2 -29.334 9 -38.001 21c-14 18 -19.333 45.667 -16 83s10.333 85.333 21 144c4.66699 23.333 9 46.333 13 69s6.66699 43.667 8 63
c2 23.333 2.16699 39.333 0.5 48s-3.16699 13.667 -4.5 15c-1.33301 0 -2.66602 -0.666992 -3.99902 -2c-4.66699 -2 -11.667 -8.16699 -21 -18.5s-21.666 -29.5 -36.999 -57.5c-10 -18.667 -20 -40 -30 -64l-32 -80c-8 -21.333 -15.5 -42.333 -22.5 -63l-18.5 -56.5
l-13.5 -44.5c-3.66699 -12.667 -6.5 -22 -8.5 -28v-4c-1.33301 -6.66699 -4 -12 -8 -16c-0.666992 0 -1 -0.166992 -1 -0.5s-0.333008 -0.5 -1 -0.5c-2.66699 -2.66699 -6.66699 -5 -12 -7c-0.666992 0 -1.33398 -0.166992 -2.00098 -0.5s-1.66699 -0.5 -3 -0.5z" />
    <glyph glyph-name="o" unicode="o" horiz-adv-x="352" 
d="M68 -8c-22 0 -40.999 6.99707 -56.999 20.9971c-20.667 16 -34.667 39.667 -42 71c-3.33301 15.333 -4.83301 31.833 -4.5 49.5s2.5 36.5 6.5 56.5c8.66699 40.667 20.834 79.334 36.501 116.001s34.167 69.334 55.5 98.001c18.667 26.667 39.334 47.667 62.001 63
c24.667 17.333 48 25.666 70 24.999c24 -1.33301 43.333 -11.666 58 -30.999c14 -16.667 23 -40.334 27 -71.001c1.33301 -8.66699 -0.5 -16.167 -5.5 -22.5s-11.833 -10.166 -20.5 -11.499c-8 -1.33301 -15.333 0.5 -22 5.5s-10.667 11.833 -12 20.5
c-0.666992 4 -1.5 8.66699 -2.5 14s-2.5 10.666 -4.5 15.999s-4.66699 10 -8 14s-7.33301 6 -12 6h-1c-9.33301 0 -21.333 -5.5 -36 -16.5s-29.834 -27.333 -45.501 -49s-30.834 -48.334 -45.501 -80.001s-26.334 -68.167 -35.001 -109.5
c-6.66699 -32.667 -7.5 -58.667 -2.5 -78s11.833 -32.666 20.5 -39.999c7.33301 -5.33301 14.5 -7.66602 21.5 -6.99902s13.167 2.33398 18.5 5.00098c10.667 4.66699 21.5 13 32.5 25s21.167 28.167 30.5 48.5s17.5 45 24.5 74s11.5 62.833 13.5 101.5
c1.33301 10 5.66602 17.667 12.999 23c8.66699 5.33301 17.334 6.66602 26.001 3.99902s19.5 -5.16699 32.5 -7.5s26.333 -4 40 -5s26.5 -0.5 38.5 1.5s21.333 6.33301 28 13c6 5.33301 13.167 8 21.5 8s15.5 -3 21.5 -9c5.33301 -6 8 -13.167 8 -21.5
s-3 -15.166 -9 -20.499c-26.667 -26 -68.667 -36.333 -126 -31l-36 6c-7.33301 -66 -21.666 -121 -42.999 -165c-24.667 -50.667 -55.334 -84 -92.001 -100c-13.333 -6.66699 -28 -10 -44 -10z" />
    <glyph glyph-name="p" unicode="p" horiz-adv-x="288" 
d="M-60 -258l-5.00098 -0.00292969c-8.66699 1.33301 -15.334 5.33301 -20.001 12s-6.33398 14.334 -5.00098 23.001l122 694c1.33301 8 5.33301 14.333 12 19s14.334 6.33398 23.001 5.00098c10.667 -2 18.334 -8.66699 23.001 -20c2 2 5.66699 4.33301 11 7
c14 8 28.333 12.667 43 14s28.667 -1 42 -7c17.333 -8 31.666 -21.333 42.999 -40s19 -42 23 -70c8 -54.667 1.33301 -118 -20 -190c-8.66699 -29.333 -19.5 -56.5 -32.5 -81.5s-27.833 -46.5 -44.5 -64.5c-31.333 -34.667 -63 -52 -95 -52c-6 0 -10.333 0.333008 -13 1
c-12.667 2 -24.667 7.33301 -36 16l-42 -242c-1.33301 -7.33301 -4.66602 -13.166 -9.99902 -17.499s-11.666 -6.5 -18.999 -6.5zM34.999 135.997c-1.33301 -28 0.332031 -48.833 4.99902 -62.5s10.334 -21.167 17.001 -22.5c6 -1.33301 14 1 24 7s20.5 15.333 31.5 28
s22.167 29 33.5 49s21 43.667 29 71c10 33.333 16.167 63.333 18.5 90s2.33301 49.667 0 69s-6.5 34.833 -12.5 46.5s-12.667 19.167 -20 22.5c-8 3.33301 -18.333 2 -31 -4c-6 -3.33301 -13.833 -9.5 -23.5 -18.5s-20.167 -22.167 -31.5 -39.5l-40 -231v-5z" />
    <glyph glyph-name="q" unicode="q" horiz-adv-x="300" 
d="M132 -258c-2 0 -3.66992 0.332031 -5.00293 0.999023c-8 1.33301 -14.333 5.33301 -19 12s-6.33398 14 -5.00098 22l46 265c-17.333 -20 -33.666 -33.167 -48.999 -39.5s-28.666 -9.5 -39.999 -9.5c-3.33301 0 -6.16602 0.166992 -8.49902 0.5
s-4.83301 0.833008 -7.5 1.5c-17.333 3.33301 -32 12 -44 26c-11.333 13.333 -19.333 29 -24 47c-11.333 38 -11.333 83.667 0 137c8 38.667 19.333 75.334 34 110.001s31.667 65.667 51 93c40 55.333 81.333 84.666 124 87.999c16 0.666992 31.333 -3 46 -11
c7.33301 8.66699 16.666 12.334 27.999 11.001c8.66699 -1.33301 15.334 -5.5 20.001 -12.5s6.33398 -14.5 5.00098 -22.5l-122 -694c-3.33301 -16.667 -13.333 -25 -30 -25zM189.997 435.999c-9.33301 -0.666992 -21.0029 -5.83105 -35.0029 -15.498
s-29.333 -25.834 -46 -48.501c-17.333 -23.333 -32.166 -50.333 -44.499 -81s-22.166 -63.334 -29.499 -98.001c-4.66699 -21.333 -7 -40.333 -7 -57s1.16699 -31 3.5 -43s5.83301 -21.333 10.5 -28s9.66699 -10.667 15 -12c6 -1.33301 14.667 1.66699 26 9
s23.5 20.833 36.5 40.5s26.333 46.334 40 80.001s25.834 76.167 36.501 127.5v2l18 103c-4.66699 11.333 -9.5 17.666 -14.5 18.999s-8.16699 2 -9.5 2z" />
    <glyph glyph-name="r" unicode="r" horiz-adv-x="288" 
d="M-17 -8c-2 0 -3.33496 0.334961 -4.00195 1.00195h-4c-8 2.66699 -14 7.5 -18 14.5s-5 14.5 -3 22.5c0.666992 0 1 0.333008 1 1c0 2 0.333008 3.66699 1 5l75 434c1.33301 8 5.33301 14.5 12 19.5s14.334 6.83301 23.001 5.5c8 -1.33301 14.333 -5.5 19 -12.5
s6.33398 -14.5 5.00098 -22.5l-18 -99l13 24c28.667 53.333 56.334 87 83.001 101c11.333 6 21.5 9 30.5 9s16.5 -1 22.5 -3c6 -2.66699 12.5 -6.83398 19.5 -12.501s12.833 -14.834 17.5 -27.501c4.66699 -13.333 7 -30.666 7 -51.999c0 -19.333 -1.5 -40 -4.5 -62
s-6.5 -43.667 -10.5 -65c-1.33301 -8 -5.33301 -14.333 -12 -19s-14 -6.33398 -22 -5.00098c-8.66699 1.33301 -15.334 5.33301 -20.001 12s-6.33398 14 -5.00098 22c3.33301 17.333 6.33301 35.333 9 54s4.33398 36 5.00098 52c1.33301 16 1.16602 27.333 -0.500977 34
s-3.16699 10.667 -4.5 12c-1.33301 0 -2.66602 -0.666992 -3.99902 -2c-4.66699 -2 -11.667 -8.16699 -21 -18.5s-21.666 -29.5 -36.999 -57.5c-18.667 -36.667 -39.334 -84.667 -62.001 -144c-8 -21.333 -15.5 -42.333 -22.5 -63l-18.5 -56.5l-13.5 -44.5
c-3.66699 -12.667 -6.5 -22 -8.5 -28v-4c-3.33301 -16.667 -13.333 -25 -30 -25z" />
    <glyph glyph-name="s" unicode="s" horiz-adv-x="278" 
d="M53 -8c-8.66699 0 -16.3301 0.99707 -22.9971 2.99707c-11.333 2.66699 -24 8.5 -38 17.5s-25.333 24.833 -34 47.5c-6.66699 16.667 -10.167 35.334 -10.5 56.001s1.66699 41.167 6 61.5s10.666 40 18.999 59s17.833 35.5 28.5 49.5c4.66699 6.66699 11 10.667 19 12
s15.667 -0.666992 23 -6c6.66699 -5.33301 10.667 -11.833 12 -19.5s-0.666992 -15.167 -6 -22.5c-8 -10.667 -15.167 -23.334 -21.5 -38.001s-11.333 -29.667 -15 -45s-5.5 -30.5 -5.5 -45.5s2 -28.167 6 -39.5c4.66699 -11.333 9.66699 -18.666 15 -21.999
s10.333 -5.66602 15 -6.99902c12 -2.66699 26.5 -0.5 43.5 6.5s32.167 17.167 45.5 30.5c10.667 10 20.667 22 30 36s17 28.833 23 44.5s9.66699 31.834 11 48.501s-0.333984 33.334 -5.00098 50.001c-3.33301 13.333 -8.83301 26.166 -16.5 38.499s-16.167 24.5 -25.5 36.5
c-11.333 16 -22.666 33.333 -33.999 52s-19 39.667 -23 63c-1.33301 8 0.5 15.333 5.5 22s11.5 10.667 19.5 12c8.66699 1.33301 16.167 -0.333984 22.5 -5.00098s10.166 -11.334 11.499 -20.001c3.33301 -16.667 9.16602 -32 17.499 -46s17.833 -28 28.5 -42
c10 -14 19.833 -28.5 29.5 -43.5s17.167 -31.833 22.5 -50.5c12 -42.667 10 -87 -6 -133c-7.33301 -19.333 -16.833 -38.166 -28.5 -56.499s-25.167 -35.166 -40.5 -50.499c-15.333 -14 -33.833 -26.5 -55.5 -37.5s-43.5 -16.5 -65.5 -16.5z" />
    <glyph glyph-name="t" unicode="t" horiz-adv-x="176" 
d="M249 598l-131.001 -0.000976562l-23 -125l-30 -168c-8.66699 -49.333 -15.667 -93 -21 -131c-2.66699 -19.333 -4.66699 -36.333 -6 -51s-2 -27.667 -2 -39c0 -6.66699 0.166992 -12.167 0.5 -16.5s0.5 -7.83301 0.5 -10.5c4.66699 3.33301 11.5 10.166 20.5 20.499
s20.167 26.833 33.5 49.5c12.667 20 26 43.5 40 70.5s29 57.5 45 91.5c3.33301 7.33301 8.83301 12.333 16.5 15s15.167 2.33398 22.5 -0.999023c8 -3.33301 13.333 -9 16 -17s2.33398 -15.667 -0.999023 -23c-32 -68.667 -60.667 -124 -86 -166
c-19.333 -30.667 -36.5 -54 -51.5 -70s-29.5 -26.667 -43.5 -32c-6 -2 -12 -3 -18 -3c-9.33301 0 -17.333 2 -24 6c-12.667 7.33301 -20.667 17.333 -24 30s-5.66602 24.667 -6.99902 36c-0.666992 22.667 1.33301 55 6 97c4.66699 40 11.667 86.667 21 140l33 183
c3.33301 17.333 6.66602 35.666 9.99902 54.999s7 39 11 59h-92c-8 0 -15 2.83301 -21 8.5s-9 12.834 -9 21.501c0 8 3 15 9 21s13 9 21 9h103c0.666992 4 1.16699 8 1.5 12s1.16602 8.33301 2.49902 13c1.33301 8.66699 5.5 15.334 12.5 20.001s14.5 6.33398 22.5 5.00098
s14.333 -5.5 19 -12.5s6.33398 -14.5 5.00098 -22.5l-3 -15h121c8.66699 0 15.834 -3 21.501 -9s8.5 -13 8.5 -21c0 -8.66699 -2.83301 -15.834 -8.5 -21.501s-12.834 -8.5 -21.501 -8.5z" />
    <glyph glyph-name="u" unicode="u" horiz-adv-x="373" 
d="M228 -8c-9.33301 0 -17.333 1.99609 -24 5.99609c-12.667 6.66699 -20.834 16.334 -24.501 29.001s-5.83398 24.334 -6.50098 35.001c-2 21.333 -0.333008 53 5 95v4l-7 -15l-24 -41.5c-9.33301 -15.667 -19.5 -30.834 -30.5 -45.501s-22.333 -27.834 -34 -39.501
s-23.167 -19.5 -34.5 -23.5c-10.667 -3.33301 -19.667 -4 -27 -2s-12.666 4.33301 -15.999 7c-16 12 -25.333 32.333 -28 61c-2.66699 21.333 -1.66699 51.333 3 90c4 36 10.667 79.833 20 131.5l35 187.5c1.33301 8 5.5 14.333 12.5 19s14.5 6.33398 22.5 5.00098
s14.333 -5.5 19 -12.5s6.33398 -14.5 5.00098 -22.5l-33.5 -178.5c-9 -49 -15.5 -90.833 -19.5 -125.5c-2.66699 -17.333 -4.33398 -32.666 -5.00098 -45.999s-0.666992 -24.666 0 -33.999c0 -5.33301 0.666992 -10.666 2 -15.999c7.33301 6.66699 17.666 18.667 30.999 36
s29.333 43.333 48 78c23.333 42.667 44.833 89.667 64.5 141s36.167 104 49.5 158c2 8 6.33301 14.167 13 18.5s14 5.5 22 3.5c8 -1.33301 14.167 -5.33301 18.5 -12s5.83301 -14 4.5 -22l-28 -160c-8.66699 -50 -15.667 -94 -21 -132c-2.66699 -18.667 -4.66699 -35 -6 -49
s-2 -26.667 -2 -38c0 -6 0.166992 -11 0.5 -15s0.833008 -7.33301 1.5 -10c4.66699 3.33301 11.334 10.166 20.001 20.499s20 26.833 34 49.5c24.667 40 52.667 94 84 162c3.33301 7.33301 9 12.333 17 15s15.667 2.33398 23 -0.999023s12.5 -9 15.5 -17
s2.83301 -15.667 -0.5 -23c-16 -34 -31.167 -64.833 -45.5 -92.5s-28.166 -52.167 -41.499 -73.5c-18.667 -30.667 -35.5 -54 -50.5 -70s-29.833 -26.667 -44.5 -32c-6 -2 -11.667 -3 -17 -3z" />
    <glyph glyph-name="v" unicode="v" horiz-adv-x="360" 
d="M39 -8c-8 0 -15.0049 1.00684 -21.0049 3.00684c-20.667 6 -33.667 24.667 -39 56c-4 20.667 -4.33301 50.667 -1 90c3.33301 38.667 10 85.667 20 141s23.667 119 41 191c2 8 6.5 14.167 13.5 18.5s14.5 5.5 22.5 3.5s14.167 -6.5 18.5 -13.5s5.83301 -14.5 4.5 -22.5
c-15.333 -62.667 -27.666 -118.834 -36.999 -168.501s-16.333 -92.834 -21 -129.501c-4 -36 -5.33301 -62 -4 -78s2.66602 -26.333 3.99902 -31c7.33301 0.666992 16.166 5 26.499 13s21.166 19 32.499 33c14.667 18 28.834 39.667 42.501 65s25.834 52.333 36.501 81
c3.33301 8.66699 6.33301 17.334 9 26.001l8 25c-7.33301 6 -14 12.333 -20 19s-11.333 14 -16 22c-14.667 24 -22 49.333 -22 76c-0.666992 13.333 0.833008 25.666 4.5 36.999s8.83398 20.666 15.501 27.999c8.66699 9.33301 18.667 15.166 30 17.499
s22.666 0.833008 33.999 -4.5c12 -5.33301 23.5 -16.333 34.5 -33s15.833 -43.334 14.5 -80.001c-0.666992 -14.667 -2.66699 -31.334 -6 -50.001c28 -8.66699 64.667 -7.33398 110 3.99902c8 2 15.5 0.833008 22.5 -3.5s11.5 -10.5 13.5 -18.5
c2.66699 -8 1.83398 -15.5 -2.49902 -22.5s-10.5 -11.5 -18.5 -13.5c-52.667 -14 -99 -15.333 -139 -4c-2.66699 -7.33301 -5.16699 -15 -7.5 -23s-5.16602 -15.667 -8.49902 -23c-11.333 -32 -24.666 -61.833 -39.999 -89.5s-31.333 -52.167 -48 -73.5
c-21.333 -26.667 -41.166 -44.667 -59.499 -54s-34.166 -14 -47.499 -14zM199.995 432.007c-2 -5.33301 -2.83203 -13.834 -2.49902 -25.501s4.16602 -24.167 11.499 -37.5c0 4.66699 0.333008 8 1 10c1.33301 26.667 -2 44.334 -10 53.001z" />
    <glyph glyph-name="w" unicode="w" horiz-adv-x="532" 
d="M211 -8c-8 0 -15 1.00586 -21 3.00586c-20.667 6 -33.667 24.667 -39 56c-2 8 -3 17.667 -3 29c-9.33301 -14.667 -19.5 -28.5 -30.5 -41.5s-22.833 -23.5 -35.5 -31.5c-16.667 -10 -32.334 -15 -47.001 -15c-4 0 -7.66699 0.333008 -11 1l-10 2
c-7.33301 2.66699 -13.166 6.5 -17.499 11.5s-7.83301 10.333 -10.5 16s-4.5 11.167 -5.5 16.5s-1.83301 9.33301 -2.5 12c-1.33301 11.333 -2.16602 24.166 -2.49902 38.499s0.166992 31.166 1.5 50.499c6 78 24.667 188.667 56 332c1.33301 8 5.5 14.333 12.5 19
s14.5 6 22.5 4c8 -1.33301 14.333 -5.5 19 -12.5s6 -14.5 4 -22.5c-13.333 -62.667 -24.333 -119 -33 -169s-14.667 -93.667 -18 -131c-3.33301 -34 -4.66602 -59 -3.99902 -75s1.66699 -26.667 3 -32l10 5c10.667 6.66699 22.167 18.334 34.5 35.001s24.166 36 35.499 58
s21.833 45.667 31.5 71s17.5 50.666 23.5 75.999l4 21.5l4 21.5l2 12c1.33301 8 5.16602 14.667 11.499 20s13.833 7.33301 22.5 6c8 -1.33301 14.5 -5.16602 19.5 -11.499s7.16699 -13.833 6.5 -22.5c-8 -36.667 -14.5 -70.334 -19.5 -101.001
s-8.83301 -58.334 -11.5 -83.001c-4 -36 -5.5 -62 -4.5 -78s2.16699 -26.333 3.5 -31c16 1.33301 36 16.666 60 45.999c14.667 18 28.667 39.667 42 65s25.666 52.333 36.999 81c3.33301 8.66699 6.33301 17.334 9 26.001s5 17 7 25
c-14.667 12.667 -26.667 26.334 -36 41.001c-14.667 24 -22 49.333 -22 76c0 28 7 49.667 21 65c8 9.33301 17.667 15.166 29 17.499s22.666 0.833008 33.999 -4.5c12 -5.33301 23.5 -16.333 34.5 -33s15.833 -43.334 14.5 -80.001
c-0.666992 -14.667 -2.66699 -31.334 -6 -50.001c28.667 -8.66699 65.334 -7.33398 110.001 3.99902c8 2 15.667 0.833008 23 -3.5s12 -10.5 14 -18.5s0.833008 -15.5 -3.5 -22.5s-10.5 -11.5 -18.5 -13.5c-52.667 -14 -99 -15.333 -139 -4l-6.5 -23
c-2.33301 -8 -5.16602 -15.667 -8.49902 -23c-12 -32 -25.5 -61.833 -40.5 -89.5s-31.167 -52.167 -48.5 -73.5c-21.333 -26.667 -41 -44.667 -59 -54s-34 -14 -48 -14zM372 432.006c-2 -5.33301 -2.83203 -13.834 -2.49902 -25.501s4.16602 -24.167 11.499 -37.5
c0.666992 2 1 5.33301 1 10c1.33301 26.667 -2 44.334 -10 53.001z" />
    <glyph glyph-name="x" unicode="x" horiz-adv-x="409" 
d="M24 -8c-6 0 -12.335 2.32617 -19.002 6.99316c-6.66699 5.33301 -10.334 12.166 -11.001 20.499s1.66602 15.833 6.99902 22.5l176 209c-2 22 -4.33301 43.5 -7 64.5s-5.66699 40.167 -9 57.5s-6.5 30.333 -9.5 39s-5.5 14.667 -7.5 18
c-4 -5.33301 -9.83301 -14 -17.5 -26s-17.5 -30.667 -29.5 -56c-10 -21.333 -18.5 -40.166 -25.5 -56.499s-10.833 -24.833 -11.5 -25.5c-3.33301 -7.33301 -8.66602 -12.666 -15.999 -15.999s-15 -3.33301 -23 0c-7.33301 3.33301 -12.666 8.83301 -15.999 16.5
s-3.33301 15.167 0 22.5c0 0.666992 1.16699 3.83398 3.5 9.50098l9.5 22l13.5 30c5 11 10.5 22.5 16.5 34.5c13.333 27.333 26 50 38 68c7.33301 11.333 15.333 21.166 24 29.499s19 12.833 31 13.5c7.33301 0 15.833 -2 25.5 -6s19.167 -13.333 28.5 -28
c8 -14 15 -34 21 -60c6 -25.333 11 -54.666 15 -87.999l144 171c5.33301 6 12.166 9.33301 20.499 10s15.5 -1.66602 21.5 -6.99902c6.66699 -5.33301 10.334 -12 11.001 -20s-1.66602 -15.333 -6.99902 -22l-182 -215c2 -21.333 4.33301 -42.166 7 -62.499
s5.66699 -39.166 9 -56.499s6.5 -30.166 9.5 -38.499s5.16699 -14.166 6.5 -17.499c5.33301 4.66699 14 15.167 26 31.5s29.667 44.5 53 84.5c8 14 15.5 27.833 22.5 41.5l18.5 36l13 25l5 9.5c3.33301 7.33301 9 12.333 17 15s15.667 2.33398 23 -0.999023
s12.333 -9 15 -17s2.33398 -15.667 -0.999023 -23c-0.666992 -0.666992 -2.66699 -4.5 -6 -11.5s-8 -16.167 -14 -27.5l-20.5 -38.5l-24.5 -44.5c-16.667 -29.333 -31.167 -52.833 -43.5 -70.5s-23 -31.667 -32 -42s-16.833 -17.5 -23.5 -21.5s-12.667 -6.66699 -18 -8
c-1.33301 0 -3 -0.166992 -5 -0.5s-4 -0.5 -6 -0.5c-10 0 -20 3.33301 -30 10c-15.333 11.333 -26.833 30.666 -34.5 57.999s-14.167 63 -19.5 107l-139 -165c-6 -7.33301 -13.667 -11 -23 -11z" />
    <glyph glyph-name="y" unicode="y" horiz-adv-x="369" 
d="M53 -259c-20.667 0 -39.001 5.00488 -55.001 15.0049c-20 12 -32.667 27.667 -38 47c-2 7.33301 -2.66699 17 -2 29s5.66699 24.667 15 38c14.667 22 37.334 41.333 68.001 58c38.667 21.333 73.334 44 104.001 68c4.66699 24 9.16699 49.667 13.5 77
s9.16602 55 14.499 83l-5 -10l-24 -41.5c-9.33301 -15.667 -19.333 -30.667 -30 -45s-21.834 -27.333 -33.501 -39s-23.167 -19.5 -34.5 -23.5c-10.667 -4 -19.667 -5 -27 -3s-12.666 4.33301 -15.999 7c-16.667 12 -26.334 32.667 -29.001 62
c-1.33301 11.333 -1.66602 24.166 -0.999023 38.499s2.33398 31.166 5.00098 50.499c4 36 10.667 79.833 20 131.5l35 187.5c1.33301 8.66699 5.5 15.167 12.5 19.5s14.5 5.83301 22.5 4.5s14.333 -5.5 19 -12.5s6.33398 -14.5 5.00098 -22.5l-33.5 -178.5
c-9 -49 -15.5 -90.833 -19.5 -125.5c-2.66699 -17.333 -4.33398 -32.5 -5.00098 -45.5s-1 -24.167 -1 -33.5c0.666992 -4 1.16699 -7.33301 1.5 -10s0.5 -5 0.5 -7c7.33301 6.66699 17.833 18.667 31.5 36s29.834 43.333 48.501 78c23.333 42.667 44.666 89.667 63.999 141
s35.666 104 48.999 158c2 8 6.5 14.167 13.5 18.5s14.5 5.83301 22.5 4.5c8 -2 14.167 -6.33301 18.5 -13s5.83301 -14 4.5 -22c0 -0.666992 -2.16699 -13.667 -6.5 -39l-16.5 -96.5l-22.5 -129l-24.5 -137.5c62 62 112.667 137.667 152 227
c3.33301 7.33301 8.83301 12.5 16.5 15.5s15.167 2.83301 22.5 -0.5c8 -3.33301 13.5 -8.83301 16.5 -16.5s2.83301 -15.167 -0.5 -22.5c-18.667 -42.667 -39.5 -81.834 -62.5 -117.501s-48.5 -69.5 -76.5 -101.5c-13.333 -14.667 -27 -28.667 -41 -42s-28.667 -26 -44 -38
l-10.5 -56.5c-3 -16.333 -5.83301 -30.166 -8.5 -41.499c-4.66699 -22 -11.5 -40.833 -20.5 -56.5s-19.167 -28.334 -30.5 -38.001s-23.333 -16.834 -36 -21.501s-25 -7.33398 -37 -8.00098h-4zM128.999 -88.9951l-28.498 -18.002c-9.66699 -6 -19.834 -11.667 -30.501 -17
c-20.667 -11.333 -34.834 -22.166 -42.501 -32.499s-10.834 -18.5 -9.50098 -24.5c1.33301 -4.66699 5.33301 -8.83398 12 -12.501s15 -5.5 25 -5.5c16.667 1.33301 30.834 8.5 42.501 21.5s20.167 31.167 25.5 54.5c0.666992 4.66699 1.5 9.83398 2.5 15.501
s2.16699 11.834 3.5 18.501z" />
    <glyph glyph-name="z" unicode="z" horiz-adv-x="464" 
d="M26 -8c-8 0 -14.3311 2.33496 -18.998 7.00195c-6.66699 5.33301 -10.5 12 -11.5 20s1.16699 15.333 6.5 22c21.333 28 46.166 58.833 74.499 92.5l86.5 101.5l86 98.5l74 83.5c-17.333 0 -33.666 1.66699 -48.999 5s-29.666 6.66602 -42.999 9.99902
c-17.333 4 -33.5 7.16699 -48.5 9.5s-28.833 1.5 -41.5 -2.5c-36.667 -12 -62.334 -34.333 -77.001 -67c-8.66699 -18.667 -12.834 -35.5 -12.501 -50.5s1.16602 -24.167 2.49902 -27.5c3.33301 -8 3.33301 -15.833 0 -23.5s-8.66602 -13.167 -15.999 -16.5
s-14.833 -3.33301 -22.5 0s-13.167 9 -16.5 17c-5.33301 12.667 -7.66602 31 -6.99902 55s6.66699 47.667 18 71c21.333 48.667 58.666 81.667 111.999 99c21.333 6.66699 42.166 8.66699 62.499 6s40.5 -6.66699 60.5 -12c12.667 -3.33301 25 -6.16602 37 -8.49902
s24.333 -3.66602 37 -3.99902s25.334 0.833984 38.001 3.50098s26 7.66699 40 15c6.66699 3.33301 13.5 4.33301 20.5 3s12.833 -5 17.5 -11c4.66699 -5.33301 6.83398 -11.833 6.50098 -19.5s-3.16602 -14.167 -8.49902 -19.5
c-0.666992 -0.666992 -5.83398 -6.33398 -15.501 -17.001l-39.5 -43.5l-57.5 -64l-68 -77.5l-72 -83.5l-69.5 -82.5c8 -1.33301 15.833 -3.16602 23.5 -5.49902s15.167 -4.5 22.5 -6.5c19.333 -6 38.666 -10.667 57.999 -14s40.333 0 63 10c27.333 12 54.333 33 81 63
c17.333 18.667 34.666 40.834 51.999 66.501s35 54.5 53 86.5c4.66699 7.33301 10.834 12.166 18.501 14.499s15.167 1.5 22.5 -2.5s12.166 -10 14.499 -18s1.5 -15.667 -2.5 -23c-19.333 -35.333 -38.333 -66.333 -57 -93s-37.334 -50.334 -56.001 -71.001
c-33.333 -37.333 -67.333 -63.333 -102 -78c-16 -7.33301 -31.5 -12 -46.5 -14s-29.333 -2.33301 -43 -1s-26.667 3.66602 -39 6.99902s-23.833 6.66602 -34.5 9.99902c-23.333 7.33301 -41.166 11.166 -53.499 11.499s-24.833 -6.5 -37.5 -20.5
c-6 -7.33301 -13.333 -11 -22 -11z" />
    <glyph glyph-name="braceleft" unicode="{" horiz-adv-x="432" 
d="M144 -194c-23.333 0 -43.499 2.33789 -60.499 7.00488s-30.5 13.334 -40.5 26.001c-11.333 14 -17.166 29.5 -17.499 46.5s1.16699 33.167 4.5 48.5c3.33301 17.333 8.16602 36.666 14.499 57.999s14.166 45.666 23.499 72.999l14 44l15 49
c0.666992 6.66699 0.666992 10.667 0 12s-2.16699 2.66602 -4.5 3.99902s-4.5 2.66602 -6.5 3.99902c-7.33301 4.66699 -15.5 11.167 -24.5 19.5s-13.833 21.5 -14.5 39.5c-0.666992 6.66699 0.833008 15.167 4.5 25.5s13.167 19.166 28.5 26.499
c6.66699 3.33301 13.667 6 21 8s14.666 3.66699 21.999 5l14 4c10.667 14 19.334 29.167 26.001 45.5s11.667 33.166 15 50.499s5.66602 34.833 6.99902 52.5l4 52.5c0.666992 17.333 1.66699 34.166 3 50.499s3.83301 31.833 7.5 46.5s8.83398 28.167 15.501 40.5
s16 22.833 28 31.5c34 25.333 87.667 28.666 161 9.99902c8 -2 14 -6.66699 18 -14s5 -15 3 -23s-6.5 -14 -13.5 -18s-14.5 -5 -22.5 -3c-54 14 -90.667 14 -110 0c-12.667 -9.33301 -20.5 -25.333 -23.5 -48s-5.5 -48.334 -7.5 -77.001
c-1.33301 -18.667 -2.83301 -38.167 -4.5 -58.5s-4.66699 -41 -9 -62s-10.833 -41.667 -19.5 -62s-20.334 -39.5 -35.001 -57.5l-3 -3c-5.33301 -5.33301 -11.5 -9 -18.5 -11s-14.833 -3.66699 -23.5 -5c-3.33301 -1.33301 -8 -2.66602 -14 -3.99902
s-10.667 -2.66602 -14 -3.99902l11 -7l14.5 -10c5.66699 -4 10.667 -9.33301 15 -16s7.5 -14.667 9.5 -24s1.66699 -20.666 -1 -33.999c-0.666992 -0.666992 -1 -1.66699 -1 -3l-30 -95c-8.66699 -26 -16 -49.5 -22 -70.5s-10.667 -39.167 -14 -54.5
s-4.33301 -26.333 -3 -33s2.66602 -10.667 3.99902 -12c2.66699 -4.66699 12.334 -8 29.001 -10c20.667 -2 51.667 -1 93 3c8.66699 1.33301 16.167 -0.666992 22.5 -6s9.83301 -12 10.5 -20c1.33301 -8.66699 -0.666992 -16 -6 -22s-12 -9.66699 -20 -11
c-14 -1.33301 -27.167 -2.5 -39.5 -3.5s-24.166 -1.5 -35.499 -1.5z" />
    <glyph glyph-name="bar" unicode="|" horiz-adv-x="185" 
d="M59 598c0 10 3.16699 17.667 9.5 23s13.166 8 20.499 8s14.166 -2.66699 20.499 -8s9.5 -13 9.5 -23v-730c0 -10 -3.16699 -17.667 -9.5 -23s-13.166 -8 -20.499 -8s-14.166 2.66699 -20.499 8s-9.5 13 -9.5 23v730v0z" />
    <glyph glyph-name="braceright" unicode="}" horiz-adv-x="432" 
d="M288 705c23.333 0 43.498 -2.33789 60.498 -7.00488s30.5 -13.334 40.5 -26.001c11.333 -14 17.166 -29.5 17.499 -46.5s-1.16699 -33.167 -4.5 -48.5c-3.33301 -17.333 -8.16602 -36.666 -14.499 -57.999s-14.166 -45.666 -23.499 -72.999l-14 -44l-15 -49
c-1.33301 -7.33301 -1.33301 -11.333 0 -12c0.666992 -1.33301 2.16699 -2.66602 4.5 -3.99902s4.5 -2.66602 6.5 -3.99902c7.33301 -4.66699 15.5 -11.167 24.5 -19.5s13.833 -21.5 14.5 -39.5c0.666992 -6.66699 -0.833008 -15.167 -4.5 -25.5
s-13.167 -19.166 -28.5 -26.499c-6.66699 -3.33301 -13.667 -6 -21 -8s-14.666 -3.66699 -21.999 -5l-14 -4c-11.333 -14 -20.166 -29.167 -26.499 -45.5s-11.166 -33.166 -14.499 -50.499s-5.83301 -35 -7.5 -53s-2.83398 -35.333 -3.50098 -52
c-0.666992 -17.333 -1.66699 -34.166 -3 -50.499s-3.83301 -31.833 -7.5 -46.5s-8.83398 -28.167 -15.501 -40.5s-16 -22.833 -28 -31.5c-34 -25.333 -87.667 -28.666 -161 -9.99902c-8 2 -14 6.66699 -18 14s-5 15 -3 23s6.5 14 13.5 18s14.5 5 22.5 3
c54 -14 90.667 -14 110 0c12.667 9.33301 20.5 25.333 23.5 48s5.5 48.334 7.5 77.001c0.666992 18.667 2 38.167 4 58.5s5.16699 41 9.5 62s10.833 41.667 19.5 62s20.334 39.5 35.001 57.5l3 3c5.33301 5.33301 11.5 9 18.5 11s14.833 3.66699 23.5 5
c3.33301 1.33301 8 2.66602 14 3.99902s10.667 2.66602 14 3.99902l-11 7l-14.5 10c-5.66699 4 -10.667 9.33301 -15 16s-7.5 14.667 -9.5 24s-1.66699 20.666 1 33.999c0.666992 0.666992 1 1.66699 1 3l30 95c8.66699 26 16 49.5 22 70.5s10.667 39.167 14 54.5
s4.33301 26.333 3 33s-2.66602 10.667 -3.99902 12c-2.66699 4.66699 -12.334 8 -29.001 10c-20.667 2 -51.667 1 -93 -3c-8.66699 -1.33301 -16.167 0.666992 -22.5 6s-9.83301 12 -10.5 20c-1.33301 8.66699 0.666992 16 6 22s12 9.66699 20 11
c14 1.33301 27.167 2.5 39.5 3.5s24.166 1.5 35.499 1.5z" />
    <glyph glyph-name="asciitilde" unicode="~" horiz-adv-x="696" 
d="M522 124c-14.667 0 -29.499 2.82812 -44.499 8.49512s-30 13.334 -45 23.001s-30.167 20.5 -45.5 32.5l-46 36c-16 13.333 -31.5 25.666 -46.5 36.999s-29.167 21 -42.5 29c-22.667 12.667 -39.334 17 -50.001 13c-2 -0.666992 -4.83301 -3 -8.5 -7
s-7.5 -11.167 -11.5 -21.5s-7.66699 -25.166 -11 -44.499s-5.33301 -44.333 -6 -75c0 -8 -3 -14.833 -9 -20.5s-13.333 -8.5 -22 -8.5c-8 0.666992 -14.833 4 -20.5 10s-8.5 13 -8.5 21c2 56.667 8.33301 100.667 19 132c12 35.333 29.667 58.333 53 69
c10.667 4.66699 21.334 6.83398 32.001 6.50098s20.834 -1.66602 30.501 -3.99902s18 -5.5 25 -9.5s12.5 -7 16.5 -9c15.333 -9.33301 31.333 -20.166 48 -32.499s33 -25.166 49 -38.499l49 -38.5c16 -12.333 31.667 -22.833 47 -31.5c27.333 -15.333 47.333 -20 60 -14
c4 1.33301 8.33301 4.5 13 9.5s9.5 13.167 14.5 24.5s9.5 26.5 13.5 45.5s7.33301 43.167 10 72.5c1.33301 8 5 14.833 11 20.5s13.333 7.83398 22 6.50098c8 -0.666992 14.667 -4.16699 20 -10.5s7.66602 -13.5 6.99902 -21.5c-5.33301 -58.667 -15 -104.334 -29 -137.001
s-33.667 -54.667 -59 -66c-12.667 -4.66699 -24.334 -7 -35.001 -7z" />
    <glyph glyph-name="exclamdown" unicode="&#xa1;" horiz-adv-x="283" 
d="M201 388c2.66699 0 4.66895 -0.333008 6.00195 -1c8 -1.33301 14.333 -5.33301 19 -12s6.33398 -14.334 5.00098 -23.001l-99 -523c-1.33301 -8 -5.5 -14.333 -12.5 -19s-14.5 -6 -22.5 -4c-8 1.33301 -14.333 5.33301 -19 12s-6.33398 14.334 -5.00098 23.001l99 522
c1.33301 7.33301 4.66602 13.333 9.99902 18s11.666 7 18.999 7zM194.002 469c0 8 2.83301 15 8.5 21s12.834 9 21.501 9s15.834 -3 21.501 -9s8.5 -13 8.5 -21c0 -8.66699 -2.83301 -15.834 -8.5 -21.501s-12.834 -8.5 -21.501 -8.5s-15.834 2.83301 -21.501 8.5
s-8.5 12.834 -8.5 21.501z" />
    <glyph glyph-name="sterling" unicode="&#xa3;" horiz-adv-x="727" 
d="M220 329c-10 0 -17.6699 3.16699 -23.0029 9.5s-8 13.166 -8 20.499s2.66699 14.166 8 20.499s13 9.5 23 9.5h47c9.33301 55.333 19.5 107.166 30.5 155.499s27.167 87.833 48.5 118.5c13.333 19.333 28 33.5 44 42.5s32.667 11.833 50 8.5
c15.333 -3.33301 28.666 -10.5 39.999 -21.5s19 -24.833 23 -41.5c6 -22.667 4.33301 -46.334 -5 -71.001c-10 -26.667 -27.333 -49.667 -52 -69c-6.66699 -5.33301 -14.167 -7.66602 -22.5 -6.99902s-15.166 4.33398 -20.499 11.001s-7.5 14 -6.5 22
s4.83301 14.667 11.5 20c17.333 14.667 28.5 29.167 33.5 43.5s6.16699 26.166 3.5 35.499c-2 10.667 -7 17 -15 19c-3.33301 0.666992 -8.16602 -0.833008 -14.499 -4.5s-13.166 -10.834 -20.499 -21.501c-8 -12 -15.333 -26.833 -22 -44.5s-12.5 -37 -17.5 -58
s-9.66699 -43.167 -14 -66.5s-8.5 -47 -12.5 -71h93c10 0 17.667 -3.16699 23 -9.5s8 -13.166 8 -20.499s-2.66699 -14.166 -8 -20.499s-13 -9.5 -23 -9.5h-103c-5.33301 -31.333 -11 -61.666 -17 -90.999s-13 -57 -21 -83l-6 -19l24 -13
c24.667 -14 49.667 -27.167 75 -39.5s52.333 -20.333 81 -24s59.167 -1 91.5 8s67.5 27.5 105.5 55.5c6.66699 5.33301 14 7.33301 22 6s14.667 -5.33301 20 -12s7.33301 -14 6 -22s-5.33301 -14.667 -12 -20c-35.333 -25.333 -69.833 -44.5 -103.5 -57.5
s-67.834 -19.5 -102.501 -19.5c-5.33301 0 -11 0.166992 -17 0.5s-12 0.833008 -18 1.5c-34 4.66699 -65.667 14 -95 28s-56.666 28 -81.999 42l-10 6c-3.33301 2 -6.66602 3.66699 -9.99902 5l-6 -10c-17.333 -27.333 -38 -46 -62 -56
c-25.333 -11.333 -49.833 -16.833 -73.5 -16.5s-43.5 7.16602 -59.5 20.499c-11.333 8.66699 -19.333 19.334 -24 32.001s-5.66699 25.667 -3 39c4 19.333 14.167 36 30.5 50s37.5 24.667 63.5 32c18 5.33301 35.5 6.83301 52.5 4.5s34.167 -7.16602 51.5 -14.499
c8 24 15 50.333 21 79s11.667 58 17 88h-38zM157.997 69c14 6.66699 26.6689 19.334 38.002 38.001c-16.667 6.66699 -31.334 10 -44.001 10c-6.66699 0 -13.334 -1 -20.001 -3c-17.333 -4.66699 -29.833 -10.5 -37.5 -17.5s-12.167 -13.167 -13.5 -18.5
c-1.33301 -4.66699 0.333984 -8.66699 5.00098 -12c5.33301 -4.66699 14.166 -7.33398 26.499 -8.00098s27.5 3 45.5 11z" />
    <glyph glyph-name="dieresis" unicode="&#xa8;" horiz-adv-x="279" 
d="M114 586c0 -8 -2.83301 -15 -8.5 -21s-12.834 -9 -21.501 -9s-15.834 3 -21.501 9s-8.5 13 -8.5 21c0 8.66699 2.83301 15.834 8.5 21.501s12.834 8.5 21.501 8.5s15.834 -2.83301 21.501 -8.5s8.5 -12.834 8.5 -21.501zM224 586c0 -8 -2.83301 -15 -8.5 -21
s-12.834 -9 -21.501 -9s-15.834 3 -21.501 9s-8.5 13 -8.5 21c0 8.66699 2.83301 15.834 8.5 21.501s12.834 8.5 21.501 8.5s15.834 -2.83301 21.501 -8.5s8.5 -12.834 8.5 -21.501z" />
    <glyph glyph-name="macron" unicode="&#xaf;" horiz-adv-x="345" 
d="M89 553c-10 0 -17.667 3.16699 -23 9.5s-8 13.166 -8 20.499s2.66699 14.166 8 20.499s13 9.5 23 9.5h167c10 0 17.667 -3.16699 23 -9.5s8 -13.166 8 -20.499s-2.66699 -14.166 -8 -20.499s-13 -9.5 -23 -9.5h-167v0z" />
    <glyph glyph-name="acute" unicode="&#xb4;" horiz-adv-x="184" 
d="M76 560c-7.33301 -7.33301 -15 -10.833 -23 -10.5s-14.667 3 -20 8s-8.66602 11.5 -9.99902 19.5s1.66699 15.667 9 23l76 76c6.66699 7.33301 14.167 10.833 22.5 10.5s15.166 -3 20.499 -8s8.5 -11.5 9.5 -19.5s-1.83301 -15.667 -8.5 -23z" />
    <glyph glyph-name="cedilla" unicode="&#xb8;" horiz-adv-x="260" 
d="M91 -252c-14 0 -28 1 -42 3c-8.66699 1.33301 -15.5 5.33301 -20.5 12s-6.83301 14.334 -5.5 23.001c1.33301 8 5.33301 14.5 12 19.5s14.334 6.83301 23.001 5.5c29.333 -5.33301 54 -4.33301 74 3c14 5.33301 24.333 12.666 31 21.999
c9.33301 14.667 9.66602 29 0.999023 43c-10 14 -25.333 19 -46 15c-10.667 -1.33301 -19.667 1.66699 -27 9c-7.33301 8.66699 -9.66602 18 -6.99902 28l27 116c1.33301 8 5.66602 14.167 12.999 18.5s15 5.5 23 3.5s14.167 -6.5 18.5 -13.5s5.5 -14.5 3.5 -22.5l-18 -80
c26.667 -5.33301 47.667 -19 63 -41c10.667 -16.667 16 -34.667 16 -54s-5.33301 -37.333 -16 -54c-14.667 -22 -35.667 -37.667 -63 -47c-18 -6 -38 -9 -60 -9z" />
    <glyph glyph-name="questiondown" unicode="&#xbf;" horiz-adv-x="455" 
d="M252 379c7.33301 0 13.002 -1.66797 17.002 -5.00098c7.33301 -5.33301 11.666 -11.833 12.999 -19.5s-0.333984 -15.167 -5.00098 -22.5c-14.667 -20.667 -29.167 -42.667 -43.5 -66s-28.333 -47.5 -42 -72.5s-26.5 -50.167 -38.5 -75.5s-23 -50 -33 -74
c-21.333 -51.333 -35 -94 -41 -128c-3.33301 -20 -4.16602 -33.5 -2.49902 -40.5s2.83398 -11.167 3.50098 -12.5c0.666992 0 5.33398 0.5 14.001 1.5s23.667 8.16699 45 21.5c21.333 12.667 46 30.334 74 53.001s59.333 50 94 82c6 6 13.167 8.83301 21.5 8.5
s15.166 -3.5 20.499 -9.5c6 -6 8.83301 -13.167 8.5 -21.5s-3.5 -15.5 -9.5 -21.5c-78 -72 -140.333 -121.333 -187 -148c-24 -13.333 -45.333 -21.666 -64 -24.999c-14.667 -2 -26.334 -1.33301 -35.001 2s-15.667 7.33301 -21 12c-22.667 20 -29.667 55 -21 105
c3.33301 19.333 8.5 40.666 15.5 63.999s16.167 49 27.5 77c10 25.333 21.5 51.333 34.5 78s26.5 53 40.5 79s28.667 51.5 44 76.5s30.666 48.167 45.999 69.5c2.66699 4 6.16699 7 10.5 9s8.83301 3 13.5 3zM246.002 466.999c0 8 2.83301 15 8.5 21s12.834 9 21.501 9
s15.834 -3 21.501 -9s8.5 -13 8.5 -21c0 -8.66699 -2.83301 -15.834 -8.5 -21.501s-12.834 -8.5 -21.501 -8.5s-15.834 2.83301 -21.501 8.5s-8.5 12.834 -8.5 21.501z" />
    <glyph glyph-name="Agrave" unicode="&#xc0;" horiz-adv-x="775" 
d="M1213 -172c3.33301 -7.33301 3.49219 -14.9951 0.492188 -22.9951s-8.16699 -13.667 -15.5 -17c-73.333 -32 -141 -48 -203 -48h-19.5c-6.33301 0 -12.5 0.666992 -18.5 2c-68.667 8 -127.667 36.333 -177 85c-28 26 -52.667 58 -74 96s-39.666 81.333 -54.999 130
c-14.667 48.667 -26.334 100 -35.001 154l-108 -17c-9.33301 -12 -18.666 -23.333 -27.999 -34c-68 -77.333 -135 -126 -201 -146c-51.333 -16 -97.666 -19 -138.999 -9c-38 8.66699 -69.333 28.667 -94 60c-12.667 16.667 -22.334 35.167 -29.001 55.5
s-10.167 41.333 -10.5 63s2.33398 43.334 8.00098 65.001s14.5 42.5 26.5 62.5c25.333 42.667 61.666 73.667 108.999 93c51.333 20.667 110.666 25 177.999 13c8 -1.33301 14.333 -5.5 19 -12.5s6.33398 -14.5 5.00098 -22.5c-1.33301 -8.66699 -5.5 -15.167 -12.5 -19.5
s-14.5 -5.83301 -22.5 -4.5c-50.667 9.33301 -95.5 7.16602 -134.5 -6.50098s-69.167 -37.834 -90.5 -72.501c-17.333 -28.667 -25.833 -59.5 -25.5 -92.5s9.5 -61.167 27.5 -84.5c16.667 -21.333 39.334 -34.666 68.001 -39.999s61.667 -2.33301 99 9
c49.333 15.333 101 51.333 155 108l-63 -11h-5c-7.33301 0 -13.666 2.33301 -18.999 7s-8.66602 10.667 -9.99902 18c-1.33301 8 0.333984 15.5 5.00098 22.5s11.334 11.167 20.001 12.5l132 21l18 24c6 8 12 16.667 18 26c15.333 22 30.333 45.5 45 70.5
s28.667 50.5 42 76.5c0 37.333 1.16699 74.166 3.5 110.499s5.83301 71 10.5 104s10.334 63.5 17.001 91.5s14.334 52.333 23.001 73c8 20 16.667 35.667 26 47c8.66699 10.667 17.167 17.5 25.5 20.5s15.5 4.5 21.5 4.5c16.667 0 30.334 -6.33301 41.001 -19
c7.33301 -9.33301 12.666 -22.333 15.999 -39c2 -12.667 2.33301 -26.834 1 -42.501s-3.66602 -31.667 -6.99902 -48s-7.16602 -32.833 -11.499 -49.5s-8.83301 -32 -13.5 -46c-11.333 -35.333 -24.833 -71.833 -40.5 -109.5s-33.167 -75.167 -52.5 -112.5
c0 -26 0.666992 -51.667 2 -77s3.33301 -50 6 -74l122 20c8.66699 1.33301 16.334 -0.333984 23.001 -5.00098s10.667 -11.334 12 -20.001c1.33301 -8 -0.333984 -15.333 -5.00098 -22s-11.334 -10.667 -20.001 -12l-124 -20
c15.333 -96.667 39.666 -178.334 72.999 -245.001c88 -172.667 229.667 -215.667 425 -129c8 3.33301 15.833 3.5 23.5 0.5s13.167 -8.16699 16.5 -15.5zM640.992 1009c-7.33301 7.33301 -10.333 15 -9 23s4.66602 14.5 9.99902 19.5s12 7.66699 20 8
s15.667 -3.16699 23 -10.5l76 -76c6.66699 -7.33301 9.5 -15 8.5 -23s-4.16699 -14.5 -9.5 -19.5s-12.166 -7.66699 -20.499 -8s-15.833 3.16699 -22.5 10.5zM688.992 735.005c-10 -44 -17.667 -93.3359 -23 -148.003l12 31.5c4 10.333 7.66699 20.833 11 31.5
c16.667 49.333 27.667 92.333 33 129c1.33301 12.667 2 22.834 2 30.501s-0.333008 13.5 -1 17.5c-4 -5.33301 -9 -15.166 -15 -29.499s-12.333 -35.166 -19 -62.499zM607.992 267.002c-1.33301 9.33301 -2.33301 19 -3 29l-2 30l-21.5 -34
c-7 -11.333 -14.167 -22.333 -21.5 -33z" />
    <glyph glyph-name="Aacute" unicode="&#xc1;" horiz-adv-x="775" 
d="M1213 -172c3.33301 -7.33301 3.49219 -14.9951 0.492188 -22.9951s-8.16699 -13.667 -15.5 -17c-73.333 -32 -141 -48 -203 -48h-19.5c-6.33301 0 -12.5 0.666992 -18.5 2c-68.667 8 -127.667 36.333 -177 85c-28 26 -52.667 58 -74 96s-39.666 81.333 -54.999 130
c-14.667 48.667 -26.334 100 -35.001 154l-108 -17c-9.33301 -12 -18.666 -23.333 -27.999 -34c-68 -77.333 -135 -126 -201 -146c-51.333 -16 -97.666 -19 -138.999 -9c-38 8.66699 -69.333 28.667 -94 60c-12.667 16.667 -22.334 35.167 -29.001 55.5
s-10.167 41.333 -10.5 63s2.33398 43.334 8.00098 65.001s14.5 42.5 26.5 62.5c25.333 42.667 61.666 73.667 108.999 93c51.333 20.667 110.666 25 177.999 13c8 -1.33301 14.333 -5.5 19 -12.5s6.33398 -14.5 5.00098 -22.5c-1.33301 -8.66699 -5.5 -15.167 -12.5 -19.5
s-14.5 -5.83301 -22.5 -4.5c-50.667 9.33301 -95.5 7.16602 -134.5 -6.50098s-69.167 -37.834 -90.5 -72.501c-17.333 -28.667 -25.833 -59.5 -25.5 -92.5s9.5 -61.167 27.5 -84.5c16.667 -21.333 39.334 -34.666 68.001 -39.999s61.667 -2.33301 99 9
c49.333 15.333 101 51.333 155 108l-63 -11h-5c-7.33301 0 -13.666 2.33301 -18.999 7s-8.66602 10.667 -9.99902 18c-1.33301 8 0.333984 15.5 5.00098 22.5s11.334 11.167 20.001 12.5l132 21l18 24c6 8 12 16.667 18 26c15.333 22 30.333 45.5 45 70.5
s28.667 50.5 42 76.5c0 37.333 1.16699 74.166 3.5 110.499s5.83301 71 10.5 104s10.334 63.5 17.001 91.5s14.334 52.333 23.001 73c8 20 16.667 35.667 26 47c8.66699 10.667 17.167 17.5 25.5 20.5s15.5 4.5 21.5 4.5c16.667 0 30.334 -6.33301 41.001 -19
c7.33301 -9.33301 12.666 -22.333 15.999 -39c2 -12.667 2.33301 -26.834 1 -42.501s-3.66602 -31.667 -6.99902 -48s-7.16602 -32.833 -11.499 -49.5s-8.83301 -32 -13.5 -46c-11.333 -35.333 -24.833 -71.833 -40.5 -109.5s-33.167 -75.167 -52.5 -112.5
c0 -26 0.666992 -51.667 2 -77s3.33301 -50 6 -74l122 20c8.66699 1.33301 16.334 -0.333984 23.001 -5.00098s10.667 -11.334 12 -20.001c1.33301 -8 -0.333984 -15.333 -5.00098 -22s-11.334 -10.667 -20.001 -12l-124 -20
c15.333 -96.667 39.666 -178.334 72.999 -245.001c88 -172.667 229.667 -215.667 425 -129c8 3.33301 15.833 3.5 23.5 0.5s13.167 -8.16699 16.5 -15.5zM758.992 933.005c-7.33301 -7.33301 -15 -10.833 -23 -10.5s-14.667 3 -20 8s-8.66602 11.5 -9.99902 19.5
s1.66699 15.667 9 23l76 76c6.66699 7.33301 14.167 10.833 22.5 10.5s15.166 -3 20.499 -8s8.5 -11.5 9.5 -19.5s-1.83301 -15.667 -8.5 -23zM688.992 735.005c-10 -44 -17.667 -93.3359 -23 -148.003l12 31.5c4 10.333 7.66699 20.833 11 31.5
c16.667 49.333 27.667 92.333 33 129c1.33301 12.667 2 22.834 2 30.501s-0.333008 13.5 -1 17.5c-4 -5.33301 -9 -15.166 -15 -29.499s-12.333 -35.166 -19 -62.499zM607.992 267.002c-1.33301 9.33301 -2.33301 19 -3 29l-2 30l-21.5 -34
c-7 -11.333 -14.167 -22.333 -21.5 -33z" />
    <glyph glyph-name="Acircumflex" unicode="&#xc2;" horiz-adv-x="775" 
d="M1213 -172c-3.33301 7.33301 -8.8252 12.4951 -16.4922 15.4951s-15.5 2.83301 -23.5 -0.5c-195.333 -86.667 -337 -43.667 -425 129c-33.333 66.667 -57.666 148.334 -72.999 245.001l124 20c8.66699 1.33301 15.334 5.33301 20.001 12s6.33398 14 5.00098 22
c-1.33301 8.66699 -5.33301 15.334 -12 20.001s-14.334 6.33398 -23.001 5.00098l-122 -20c-2.66699 24 -4.66699 48.667 -6 74s-2 51 -2 77c19.333 37.333 36.833 74.833 52.5 112.5s29.167 74.167 40.5 109.5c4.66699 14 9.16699 29.333 13.5 46
s8.16602 33.167 11.499 49.5s5.66602 32.333 6.99902 48s1 29.834 -1 42.501c-3.33301 16.667 -8.66602 29.667 -15.999 39c-10.667 12.667 -24.334 19 -41.001 19c-6 0 -13.167 -1.5 -21.5 -4.5s-16.833 -9.83301 -25.5 -20.5c-9.33301 -11.333 -18 -27 -26 -47
c-8.66699 -20.667 -16.334 -45 -23.001 -73s-12.334 -58.5 -17.001 -91.5s-8.16699 -67.667 -10.5 -104s-3.5 -73.166 -3.5 -110.499c-13.333 -26 -27.333 -51.5 -42 -76.5s-29.667 -48.5 -45 -70.5c-6 -9.33301 -12 -18 -18 -26l-18 -24l-132 -21
c-8.66699 -1.33301 -15.334 -5.5 -20.001 -12.5s-6.33398 -14.5 -5.00098 -22.5c1.33301 -7.33301 4.66602 -13.333 9.99902 -18s11.666 -7 18.999 -7h5l63 11c-54 -56.667 -105.667 -92.667 -155 -108c-37.333 -11.333 -70.333 -14.333 -99 -9
s-51.334 18.666 -68.001 39.999c-18 23.333 -27.167 51.5 -27.5 84.5s8.16699 63.833 25.5 92.5c21.333 34.667 51.5 58.834 90.5 72.501s83.833 15.834 134.5 6.50098c8 -1.33301 15.5 0.166992 22.5 4.5s11.167 10.833 12.5 19.5c1.33301 8 -0.333984 15.5 -5.00098 22.5
s-11 11.167 -19 12.5c-67.333 12 -126.666 7.66699 -177.999 -13c-47.333 -19.333 -83.666 -50.333 -108.999 -93c-12 -20 -20.833 -40.833 -26.5 -62.5s-8.33398 -43.334 -8.00098 -65.001s3.83301 -42.667 10.5 -63s16.334 -38.833 29.001 -55.5
c24.667 -31.333 56 -51.333 94 -60c41.333 -10 87.666 -7 138.999 9c66 20 133 68.667 201 146c9.33301 10.667 18.666 22 27.999 34l108 17c8.66699 -54 20.334 -105.333 35.001 -154c15.333 -48.667 33.666 -92 54.999 -130s46 -70 74 -96
c49.333 -48.667 108.333 -77 177 -85c6 -1.33301 12.167 -2 18.5 -2h19.5c62 0 129.667 16 203 48c7.33301 3.33301 12.5 9 15.5 17s2.83301 15.667 -0.5 23zM802.008 910.995c-12.667 0 -21.667 5.33203 -27 15.999l-28 57l-69 -65c-6 -5.33301 -13.167 -8 -21.5 -8
s-15.5 3 -21.5 9c-5.33301 6 -7.83301 13.167 -7.5 21.5s3.5 15.5 9.5 21.5l98 92c8 6.66699 16.667 9 26 7c10 -1.33301 17 -6.66602 21 -15.999l46 -92c4 -7.33301 4.66699 -15 2 -23s-7.66699 -13.667 -15 -17c-4 -2 -8.33301 -3 -13 -3zM689.008 734.994
c6.66699 27.333 13 48.1689 19 62.502s11 24.166 15 29.499c0.666992 -4 1 -9.83301 1 -17.5s-0.666992 -17.834 -2 -30.501c-5.33301 -36.667 -16.333 -79.667 -33 -129c-3.33301 -10.667 -7 -21.167 -11 -31.5l-12 -31.5c5.33301 54.667 13 104 23 148zM560.008 258.997
c7.33301 10.667 14.5 21.667 21.5 33l21.5 34l2 -30c0.666992 -10 1.66699 -19.667 3 -29z" />
    <glyph glyph-name="Atilde" unicode="&#xc3;" horiz-adv-x="775" 
d="M1213 -172c3.33301 -7.33301 3.49219 -14.9951 0.492188 -22.9951s-8.16699 -13.667 -15.5 -17c-73.333 -32 -141 -48 -203 -48h-19.5c-6.33301 0 -12.5 0.666992 -18.5 2c-68.667 8 -127.667 36.333 -177 85c-28 26 -52.667 58 -74 96s-39.666 81.333 -54.999 130
c-14.667 48.667 -26.334 100 -35.001 154l-108 -17c-9.33301 -12 -18.666 -23.333 -27.999 -34c-68 -77.333 -135 -126 -201 -146c-51.333 -16 -97.666 -19 -138.999 -9c-38 8.66699 -69.333 28.667 -94 60c-12.667 16.667 -22.334 35.167 -29.001 55.5
s-10.167 41.333 -10.5 63s2.33398 43.334 8.00098 65.001s14.5 42.5 26.5 62.5c25.333 42.667 61.666 73.667 108.999 93c51.333 20.667 110.666 25 177.999 13c8 -1.33301 14.333 -5.5 19 -12.5s6.33398 -14.5 5.00098 -22.5c-1.33301 -8.66699 -5.5 -15.167 -12.5 -19.5
s-14.5 -5.83301 -22.5 -4.5c-50.667 9.33301 -95.5 7.16602 -134.5 -6.50098s-69.167 -37.834 -90.5 -72.501c-17.333 -28.667 -25.833 -59.5 -25.5 -92.5s9.5 -61.167 27.5 -84.5c16.667 -21.333 39.334 -34.666 68.001 -39.999s61.667 -2.33301 99 9
c49.333 15.333 101 51.333 155 108l-63 -11h-5c-7.33301 0 -13.666 2.33301 -18.999 7s-8.66602 10.667 -9.99902 18c-1.33301 8 0.333984 15.5 5.00098 22.5s11.334 11.167 20.001 12.5l132 21l18 24c6 8 12 16.667 18 26c15.333 22 30.333 45.5 45 70.5
s28.667 50.5 42 76.5c0 37.333 1.16699 74.166 3.5 110.499s5.83301 71 10.5 104s10.334 63.5 17.001 91.5s14.334 52.333 23.001 73c8 20 16.667 35.667 26 47c8.66699 10.667 17.167 17.5 25.5 20.5s15.5 4.5 21.5 4.5c16.667 0 30.334 -6.33301 41.001 -19
c7.33301 -9.33301 12.666 -22.333 15.999 -39c2 -12.667 2.33301 -26.834 1 -42.501s-3.66602 -31.667 -6.99902 -48s-7.16602 -32.833 -11.499 -49.5s-8.83301 -32 -13.5 -46c-11.333 -35.333 -24.833 -71.833 -40.5 -109.5s-33.167 -75.167 -52.5 -112.5
c0 -26 0.666992 -51.667 2 -77s3.33301 -50 6 -74l122 20c8.66699 1.33301 16.334 -0.333984 23.001 -5.00098s10.667 -11.334 12 -20.001c1.33301 -8 -0.333984 -15.333 -5.00098 -22s-11.334 -10.667 -20.001 -12l-124 -20
c15.333 -96.667 39.666 -178.334 72.999 -245.001c88 -172.667 229.667 -215.667 425 -129c8 3.33301 15.833 3.5 23.5 0.5s13.167 -8.16699 16.5 -15.5zM831.992 1036c8.66699 -0.666992 15.665 -4.16797 20.998 -10.501s7.33301 -13.5 6 -21.5
c-0.666992 -8 -1.66699 -16.667 -3 -26s-3.66602 -18.333 -6.99902 -27s-7.66602 -16.5 -12.999 -23.5s-12.333 -12.5 -21 -16.5c-6 -2.66699 -13 -4 -21 -4c-14.667 0 -28.667 4.5 -42 13.5s-26.333 18.5 -39 28.5c-4.66699 4 -10 8.33301 -16 13
s-11.667 8.33398 -17 11.001c-0.666992 -3.33301 -1.33398 -7.83301 -2.00098 -13.5s-1.33398 -13.167 -2.00098 -22.5c0 -8.66699 -3 -15.834 -9 -21.501s-13.333 -8.16699 -22 -7.5c-8 0 -14.833 3 -20.5 9s-8.5 13.333 -8.5 22s0.666992 17.667 2 27s3.33301 18.333 6 27
s6.33398 16.334 11.001 23.001s11 12 19 16c17.333 7.33301 36.333 5 57 -7c6.66699 -4 13.334 -8.5 20.001 -13.5l20 -15.5c10 -8.66699 19.333 -16 28 -22l12 -6c1.33301 2 2.83301 6.16699 4.5 12.5s3.16699 15.833 4.5 28.5c0.666992 8.66699 4.16699 15.667 10.5 21
s13.5 7.33301 21.5 6zM688.99 735.004c-10 -44 -17.667 -93.3359 -23 -148.003l12 31.5c4 10.333 7.66699 20.833 11 31.5c16.667 49.333 27.667 92.333 33 129c1.33301 12.667 2 22.834 2 30.501s-0.333008 13.5 -1 17.5c-4 -5.33301 -9 -15.166 -15 -29.499
s-12.333 -35.166 -19 -62.499zM607.99 267.001c-1.33301 9.33301 -2.33301 19 -3 29l-2 30l-21.5 -34c-7 -11.333 -14.167 -22.333 -21.5 -33z" />
    <glyph glyph-name="Adieresis" unicode="&#xc4;" horiz-adv-x="775" 
d="M1213 -172c-3.33301 7.33301 -8.8252 12.4951 -16.4922 15.4951s-15.5 2.83301 -23.5 -0.5c-195.333 -86.667 -337 -43.667 -425 129c-33.333 66.667 -57.666 148.334 -72.999 245.001l124 20c8.66699 1.33301 15.334 5.33301 20.001 12s6.33398 14 5.00098 22
c-1.33301 8.66699 -5.33301 15.334 -12 20.001s-14.334 6.33398 -23.001 5.00098l-122 -20c-2.66699 24 -4.66699 48.667 -6 74s-2 51 -2 77c19.333 37.333 36.833 74.833 52.5 112.5s29.167 74.167 40.5 109.5c4.66699 14 9.16699 29.333 13.5 46
s8.16602 33.167 11.499 49.5s5.66602 32.333 6.99902 48s1 29.834 -1 42.501c-3.33301 16.667 -8.66602 29.667 -15.999 39c-10.667 12.667 -24.334 19 -41.001 19c-6 0 -13.167 -1.5 -21.5 -4.5s-16.833 -9.83301 -25.5 -20.5c-9.33301 -11.333 -18 -27 -26 -47
c-8.66699 -20.667 -16.334 -45 -23.001 -73s-12.334 -58.5 -17.001 -91.5s-8.16699 -67.667 -10.5 -104s-3.5 -73.166 -3.5 -110.499c-13.333 -26 -27.333 -51.5 -42 -76.5s-29.667 -48.5 -45 -70.5c-6 -9.33301 -12 -18 -18 -26l-18 -24l-132 -21
c-8.66699 -1.33301 -15.334 -5.5 -20.001 -12.5s-6.33398 -14.5 -5.00098 -22.5c1.33301 -7.33301 4.66602 -13.333 9.99902 -18s11.666 -7 18.999 -7h5l63 11c-54 -56.667 -105.667 -92.667 -155 -108c-37.333 -11.333 -70.333 -14.333 -99 -9
s-51.334 18.666 -68.001 39.999c-18 23.333 -27.167 51.5 -27.5 84.5s8.16699 63.833 25.5 92.5c21.333 34.667 51.5 58.834 90.5 72.501s83.833 15.834 134.5 6.50098c8 -1.33301 15.5 0.166992 22.5 4.5s11.167 10.833 12.5 19.5c1.33301 8 -0.333984 15.5 -5.00098 22.5
s-11 11.167 -19 12.5c-67.333 12 -126.666 7.66699 -177.999 -13c-47.333 -19.333 -83.666 -50.333 -108.999 -93c-12 -20 -20.833 -40.833 -26.5 -62.5s-8.33398 -43.334 -8.00098 -65.001s3.83301 -42.667 10.5 -63s16.334 -38.833 29.001 -55.5
c24.667 -31.333 56 -51.333 94 -60c41.333 -10 87.666 -7 138.999 9c66 20 133 68.667 201 146c9.33301 10.667 18.666 22 27.999 34l108 17c8.66699 -54 20.334 -105.333 35.001 -154c15.333 -48.667 33.666 -92 54.999 -130s46 -70 74 -96
c49.333 -48.667 108.333 -77 177 -85c6 -1.33301 12.167 -2 18.5 -2h19.5c62 0 129.667 16 203 48c7.33301 3.33301 12.5 9 15.5 17s2.83301 15.667 -0.5 23zM689.008 734.995c6.66699 27.333 13 48.1689 19 62.502s11 24.166 15 29.499c0.666992 -4 1 -9.83301 1 -17.5
s-0.666992 -17.834 -2 -30.501c-5.33301 -36.667 -16.333 -79.667 -33 -129c-3.33301 -10.667 -7 -21.167 -11 -31.5l-12 -31.5c5.33301 54.667 13 104 23 148zM708.008 957.998c0 -8 -2.83301 -15 -8.5 -21s-12.834 -9 -21.501 -9s-15.834 3 -21.501 9s-8.5 13 -8.5 21
c0 8.66699 2.83301 15.834 8.5 21.501s12.834 8.5 21.501 8.5s15.834 -2.83301 21.501 -8.5s8.5 -12.834 8.5 -21.501zM818.008 957.998c0 -8 -2.83301 -15 -8.5 -21s-12.834 -9 -21.501 -9s-15.834 3 -21.501 9s-8.5 13 -8.5 21c0 8.66699 2.83301 15.834 8.5 21.501
s12.834 8.5 21.501 8.5s15.834 -2.83301 21.501 -8.5s8.5 -12.834 8.5 -21.501zM560.008 258.998c7.33301 10.667 14.5 21.667 21.5 33l21.5 34l2 -30c0.666992 -10 1.66699 -19.667 3 -29z" />
    <glyph glyph-name="Aring" unicode="&#xc5;" horiz-adv-x="775" 
d="M1213 -172c3.33301 -7.33301 3.49219 -14.9951 0.492188 -22.9951s-8.16699 -13.667 -15.5 -17c-73.333 -32 -141 -48 -203 -48h-19.5c-6.33301 0 -12.5 0.666992 -18.5 2c-68.667 8 -127.667 36.333 -177 85c-28 26 -52.667 58 -74 96s-39.666 81.333 -54.999 130
c-14.667 48.667 -26.334 100 -35.001 154l-108 -17c-9.33301 -12 -18.666 -23.333 -27.999 -34c-68 -77.333 -135 -126 -201 -146c-51.333 -16 -97.666 -19 -138.999 -9c-38 8.66699 -69.333 28.667 -94 60c-12.667 16.667 -22.334 35.167 -29.001 55.5
s-10.167 41.333 -10.5 63s2.33398 43.334 8.00098 65.001s14.5 42.5 26.5 62.5c25.333 42.667 61.666 73.667 108.999 93c51.333 20.667 110.666 25 177.999 13c8 -1.33301 14.333 -5.5 19 -12.5s6.33398 -14.5 5.00098 -22.5c-1.33301 -8.66699 -5.5 -15.167 -12.5 -19.5
s-14.5 -5.83301 -22.5 -4.5c-50.667 9.33301 -95.5 7.16602 -134.5 -6.50098s-69.167 -37.834 -90.5 -72.501c-17.333 -28.667 -25.833 -59.5 -25.5 -92.5s9.5 -61.167 27.5 -84.5c16.667 -21.333 39.334 -34.666 68.001 -39.999s61.667 -2.33301 99 9
c49.333 15.333 101 51.333 155 108l-63 -11h-5c-7.33301 0 -13.666 2.33301 -18.999 7s-8.66602 10.667 -9.99902 18c-1.33301 8 0.333984 15.5 5.00098 22.5s11.334 11.167 20.001 12.5l132 21l18 24c6 8 12 16.667 18 26c15.333 22 30.333 45.5 45 70.5
s28.667 50.5 42 76.5c0 37.333 1.16699 74.166 3.5 110.499s5.83301 71 10.5 104s10.334 63.5 17.001 91.5s14.334 52.333 23.001 73c8 20 16.667 35.667 26 47c8.66699 10.667 17.167 17.5 25.5 20.5s15.5 4.5 21.5 4.5c16.667 0 30.334 -6.33301 41.001 -19
c7.33301 -9.33301 12.666 -22.333 15.999 -39c2 -12.667 2.33301 -26.834 1 -42.501s-3.66602 -31.667 -6.99902 -48s-7.16602 -32.833 -11.499 -49.5s-8.83301 -32 -13.5 -46c-11.333 -35.333 -24.833 -71.833 -40.5 -109.5s-33.167 -75.167 -52.5 -112.5
c0 -26 0.666992 -51.667 2 -77s3.33301 -50 6 -74l122 20c8.66699 1.33301 16.334 -0.333984 23.001 -5.00098s10.667 -11.334 12 -20.001c1.33301 -8 -0.333984 -15.333 -5.00098 -22s-11.334 -10.667 -20.001 -12l-124 -20
c15.333 -96.667 39.666 -178.334 72.999 -245.001c88 -172.667 229.667 -215.667 425 -129c8 3.33301 15.833 3.5 23.5 0.5s13.167 -8.16699 16.5 -15.5zM831.992 1068c7.33301 -11.333 11.666 -24.6699 12.999 -40.0029s-0.666992 -31 -6 -47
c-6 -21.333 -16.667 -38.666 -32 -51.999c-16.667 -15.333 -35.667 -23 -57 -23h-6c-17.333 1.33301 -30.666 5.33301 -39.999 12s-16.666 13.334 -21.999 20.001c-14.667 21.333 -17.334 47.333 -8.00098 78c7.33301 24.667 20.333 44.667 39 60
c21.333 19.333 45.333 27 72 23c21.333 -3.33301 37 -13.666 47 -30.999zM688.992 735.001c-10 -44 -17.667 -93.3359 -23 -148.003l12 31.5c4 10.333 7.66699 20.833 11 31.5c16.667 49.333 27.667 92.333 33 129c1.33301 12.667 2 22.834 2 30.501s-0.333008 13.5 -1 17.5
c-4 -5.33301 -9 -15.166 -15 -29.499s-12.333 -35.166 -19 -62.499zM781.992 998.998c2.66699 8.66699 3.66797 16.1699 3.00098 22.5029s-1.66699 11.166 -3 14.499c-2 2 -4 3.33301 -6 4h-4c-8.66699 0 -16.667 -4.33301 -24 -13s-12.666 -18 -15.999 -28
c-4.66699 -12.667 -4.66699 -21.667 0 -27c1.33301 -2 3.66602 -3.5 6.99902 -4.5s6.66602 -1.5 9.99902 -1.5c4 -0.666992 7.83301 0.166016 11.5 2.49902s7 5.16602 10 8.49902s5.33301 7 7 11zM607.993 267.001c-1.33301 9.33301 -2.33301 19 -3 29l-2 30l-21.5 -34
c-7 -11.333 -14.167 -22.333 -21.5 -33z" />
    <glyph glyph-name="AE" unicode="&#xc6;" horiz-adv-x="1339" 
d="M941 -253c-24 0 -47.3477 3.00977 -70.0146 9.00977c-38 9.33301 -71.333 25 -100 47c-22.667 16.667 -42.167 35.834 -58.5 57.501s-29.166 45.167 -38.499 70.5c-7.33301 20.667 -13.833 42.5 -19.5 65.5s-10.667 46.5 -15 70.5s-8.33301 47.833 -12 71.5
s-7.5 46.5 -11.5 68.5l-108 -17c-9.33301 -12 -18.666 -23.333 -27.999 -34c-68 -77.333 -135 -126 -201 -146c-51.333 -16 -97.666 -19 -138.999 -9c-38 8.66699 -69.333 28.667 -94 60c-12.667 16.667 -22.334 35.167 -29.001 55.5s-10.167 41.333 -10.5 63
s2.33398 43.334 8.00098 65.001s14.5 42.5 26.5 62.5c25.333 42.667 61.666 73.667 108.999 93c51.333 20.667 110.666 25 177.999 13c8 -1.33301 14.333 -5.5 19 -12.5s6.33398 -14.5 5.00098 -22.5c-1.33301 -8.66699 -5.5 -15.167 -12.5 -19.5s-14.5 -5.83301 -22.5 -4.5
c-50.667 9.33301 -95.5 7.16602 -134.5 -6.50098s-69.167 -37.834 -90.5 -72.501c-17.333 -28.667 -25.833 -59.5 -25.5 -92.5s9.5 -61.167 27.5 -84.5c16.667 -21.333 39.334 -34.666 68.001 -39.999s61.667 -2.33301 99 9c49.333 15.333 101 51.333 155 108l-63 -11h-5
c-7.33301 0 -13.666 2.33301 -18.999 7s-8.66602 10.667 -9.99902 18c-1.33301 8 0.333984 15.5 5.00098 22.5s11.334 11.167 20.001 12.5l132 21l18 24c6 8 12 16.667 18 26c15.333 22 30.333 45.5 45 70.5s28.667 50.5 42 76.5c0 37.333 1.16699 74.166 3.5 110.499
s5.83301 71 10.5 104s10.334 63.5 17.001 91.5s14.334 52.333 23.001 73c8 20 16.667 35.667 26 47c8.66699 10.667 17.167 17.5 25.5 20.5s15.5 4.5 21.5 4.5c16.667 0 30.334 -6.33301 41.001 -19c7.33301 -9.33301 12.666 -22.333 15.999 -39
c2 -12.667 2.33301 -26.834 1 -42.501s-3.66602 -31.667 -6.99902 -48s-7.16602 -32.833 -11.499 -49.5s-8.83301 -32 -13.5 -46c-11.333 -35.333 -24.833 -71.833 -40.5 -109.5s-33.167 -75.167 -52.5 -112.5c0 -26 0.666992 -51.667 2 -77s3.33301 -50 6 -74l113 18
c11.333 12 23.666 23 36.999 33s27 19.667 41 29c-7.33301 12 -12.333 24 -15 36c-14.667 46.667 -12.667 95.667 6 147c8.66699 24.667 20.667 48.5 36 71.5s33.333 44.167 54 63.5s43.167 35.833 67.5 49.5s49.166 24.167 74.499 31.5
c26 7.33301 51.833 10.666 77.5 9.99902s49.834 -5 72.501 -13c23.333 -8.66699 43.833 -20.834 61.5 -36.501s31.834 -34.167 42.501 -55.5c4 -7.33301 4.66699 -15 2 -23s-7.66699 -13.667 -15 -17s-15 -3.83301 -23 -1.5s-13.667 7.16602 -17 14.499
c-7.33301 14.667 -17.166 27.334 -29.499 38.001s-26.166 18.667 -41.499 24c-34.667 12.667 -72.667 13.334 -114 2.00098c-21.333 -6 -42 -14.667 -62 -26s-38.667 -25 -56 -41c-16.667 -15.333 -31.334 -32.5 -44.001 -51.5s-22.667 -38.5 -30 -58.5
c-13.333 -40.667 -15 -77.334 -5 -110.001c1.33301 -4.66699 2.83301 -9.16699 4.5 -13.5s3.83398 -8.5 6.50098 -12.5c24 11.333 49.167 19.666 75.5 24.999s52.833 8.33301 79.5 9c40.667 0 72 -5.33301 94 -16c28 -12.667 42.667 -31.667 44 -57
c0.666992 -12 -2.83301 -23.5 -10.5 -34.5s-18.5 -20.5 -32.5 -28.5c-24.667 -13.333 -55.667 -21 -93 -23c-19.333 -0.666992 -41.833 0.166016 -67.5 2.49902s-49.834 10.166 -72.501 23.499c-6 3.33301 -11.667 7 -17 11s-10.666 8.33301 -15.999 13
c-28 -16.667 -53 -36 -75 -58c-2 -4 -5 -7 -9 -9l-14 -17c-35.333 -42 -59 -87 -71 -135c-12 -48.667 -10.333 -95 5 -139c14.667 -40 39.667 -73.333 75 -100c25.333 -18.667 52.833 -31.5 82.5 -38.5s60.167 -7.83301 91.5 -2.5c35.333 6 68.666 18.667 99.999 38
c15.333 10 29.833 21.667 43.5 35s25.167 27.333 34.5 42c12 18 20.667 36.833 26 56.5s6.66602 38.167 3.99902 55.5c-2 16 -7.16699 30.667 -15.5 44s-19.166 23.666 -32.499 30.999c-14 8 -30.167 13 -48.5 15s-37.166 0.333008 -56.499 -5
c-20.667 -5.33301 -40.667 -14 -60 -26s-36.666 -26.333 -51.999 -43c-5.33301 -6.66699 -12.166 -10.167 -20.499 -10.5s-15.5 2.5 -21.5 8.5c-6 5.33301 -9.16699 12.166 -9.5 20.499s2.16699 15.5 7.5 21.5c19.333 21.333 41.166 39.5 65.499 54.5s49.5 25.833 75.5 32.5
c27.333 7.33301 54 9.5 80 6.5s49.333 -10.5 70 -22.5c21.333 -12.667 38.833 -29.5 52.5 -50.5s22.167 -44.167 25.5 -69.5c3.33301 -24.667 1.5 -50.167 -5.5 -76.5s-18.167 -51.5 -33.5 -75.5c-12 -18.667 -26.333 -35.834 -43 -51.501s-34.667 -29.834 -54 -42.501
c-38 -24 -78.667 -39.667 -122 -47c-15.333 -2.66699 -31.666 -4 -48.999 -4zM955.985 338.01c0 -0.666992 0.667969 -1.00098 2.00098 -1.00098c24 -14 59.667 -20 107 -18c24 1.33301 42.167 4.83301 54.5 10.5s20.166 10.167 23.499 13.5
c-3.33301 2.66699 -10.5 5.83398 -21.5 9.50098s-28.167 5.5 -51.5 5.5h-3c-19.333 -0.666992 -38.333 -2.5 -57 -5.5s-36.667 -7.83301 -54 -14.5zM688.986 735.009c-10 -44 -17.667 -93.3359 -23 -148.003l12 31.5c4 10.333 7.66699 20.833 11 31.5
c16.667 49.333 27.667 92.333 33 129c1.33301 12.667 2 22.834 2 30.501s-0.333008 13.5 -1 17.5c-4 -5.33301 -9 -15.166 -15 -29.499s-12.333 -35.166 -19 -62.499zM607.986 267.006c-1.33301 9.33301 -2.33301 19 -3 29l-2 30l-21.5 -34
c-7 -11.333 -14.167 -22.333 -21.5 -33zM685.986 158.006c9.33301 23.333 21 45.333 35 66l-46 -7c1.33301 -10 3 -20 5 -30z" />
    <glyph glyph-name="Ccedilla" unicode="&#xc7;" horiz-adv-x="1339" 
d="M869 -509c-14 0 -27.998 0.999023 -41.998 2.99902c-8.66699 1.33301 -15.5 5.33301 -20.5 12s-6.83301 14.334 -5.5 23.001c1.33301 8 5.33301 14.5 12 19.5s14.334 6.83301 23.001 5.5c29.333 -5.33301 54 -4.33301 74 3c14 5.33301 24.333 12.666 31 21.999
c9.33301 14.667 9.66602 29 0.999023 43c-10 14 -25.333 19 -46 15c-10.667 -1.33301 -19.667 1.66699 -27 9c-7.33301 8.66699 -9.66602 18 -6.99902 28l22 97l-11 6c-52 28.667 -88 75.334 -108 140.001c-9.33301 30 -14.666 64.667 -15.999 104
c-0.666992 19.333 0.166016 39.333 2.49902 60s5.5 41.667 9.5 63c-74.667 -24 -147.167 -41.5 -217.5 -52.5s-136.166 -14.833 -197.499 -11.5c-86 4.66699 -157.833 22.834 -215.5 54.501s-99.5 75.834 -125.5 132.501c-3.33301 7.33301 -3.66602 15 -0.999023 23
s7.66699 13.667 15 17s15 3.66602 23 0.999023s13.667 -7.66699 17 -15c13.333 -29.333 31.166 -53.5 53.499 -72.5s46.666 -34.333 72.999 -46s53.666 -20 81.999 -25s55.5 -8.16699 81.5 -9.5c62.667 -3.33301 130.667 1.16699 204 13.5s148.333 32.166 225 59.499
c8 30 17.333 58.833 28 86.5s22.667 54.834 36 81.501c32.667 67.333 70.667 125.666 114 174.999c40.667 47.333 82.667 84.5 126 111.5s84 41.167 122 42.5c27.333 1.33301 50.666 -4.66699 69.999 -18c21.333 -14.667 35.333 -35 42 -61
c11.333 -40 6.66602 -82 -14.001 -126s-57 -88.667 -109 -134c-45.333 -38.667 -99.166 -75.334 -161.499 -110.001s-129.833 -66 -202.5 -94h-1l-8 -34c-7.33301 -38 -11 -73.667 -11 -107s4.66699 -63.666 14 -90.999c15.333 -50 41.666 -85 78.999 -105
c37.333 -21.333 81.333 -25.333 132 -12c28 7.33301 56 19.666 84 36.999s56 39 84 65c6 6 13.167 8.83301 21.5 8.5s15.5 -3.5 21.5 -9.5c5.33301 -6 8 -13.167 8 -21.5s-3 -15.166 -9 -20.499c-64 -60.667 -129 -99.667 -195 -117c-24 -6 -47.333 -9 -70 -9
c-12.667 0 -25 1 -37 3l-13 -58c26.667 -5.33301 47.667 -19 63 -41c10.667 -16.667 16 -34.667 16 -54s-5.33301 -37.333 -16 -54c-14.667 -22 -35.667 -37.667 -63 -47c-18 -6 -38 -9 -60 -9zM1210 649.999h-4c-26.667 -1.33301 -57.334 -12.666 -92.001 -33.999
c-19.333 -11.333 -38.5 -25.5 -57.5 -42.5s-37.5 -35.833 -55.5 -56.5c-24 -28 -50 -64.667 -78 -110s-52.667 -101.333 -74 -168c61.333 25.333 117.833 53 169.5 83s96.5 61.667 134.5 95c42 35.333 72.333 71 91 107c17.333 33.333 22 63.666 14 90.999
c-2 7.33301 -6.16699 15 -12.5 23s-18.166 12 -35.499 12z" />
    <glyph glyph-name="Egrave" unicode="&#xc8;" horiz-adv-x="685" 
d="M287 -253c-24 0 -47.3398 3.00684 -70.0068 9.00684c-38 9.33301 -71.333 25 -100 47c-22.667 16.667 -42.167 35.834 -58.5 57.501s-29.166 45.167 -38.499 70.5c-19.333 54.667 -21.333 112.334 -6 173.001c7.33301 28 17.833 55.5 31.5 82.5s30.834 52.5 51.501 76.5
c15.333 18.667 32 35.667 50 51s37 29.333 57 42c-7.33301 12 -12.333 24 -15 36c-14.667 46.667 -12.667 95.667 6 147c8.66699 24.667 20.667 48.5 36 71.5s33.333 44.167 54 63.5s43.167 35.833 67.5 49.5s49.166 24.167 74.499 31.5
c26 7.33301 51.833 10.666 77.5 9.99902s49.834 -5 72.501 -13c23.333 -8.66699 43.833 -20.834 61.5 -36.501s31.834 -34.167 42.501 -55.5c4 -7.33301 4.66699 -15 2 -23s-7.66699 -13.667 -15 -17s-15 -3.83301 -23 -1.5s-13.667 7.16602 -17 14.499
c-7.33301 14.667 -17.166 27.334 -29.499 38.001s-26.166 18.667 -41.499 24c-34.667 12.667 -72.667 13.334 -114 2.00098c-21.333 -6 -42 -14.667 -62 -26s-38.667 -25 -56 -41c-16.667 -15.333 -31.334 -32.5 -44.001 -51.5s-22.667 -38.5 -30 -58.5
c-13.333 -40.667 -15 -77.334 -5 -110.001c1.33301 -4.66699 2.83301 -9.16699 4.5 -13.5s3.83398 -8.5 6.50098 -12.5c24 11.333 49.167 19.666 75.5 24.999s52.833 8.33301 79.5 9c40.667 0 72 -5.33301 94 -16c28 -12.667 42.667 -31.667 44 -57
c0.666992 -12 -2.83301 -23.5 -10.5 -34.5s-18.5 -20.5 -32.5 -28.5c-24.667 -13.333 -55.667 -21 -93 -23c-19.333 -0.666992 -41.833 0.166016 -67.5 2.49902s-49.834 10.166 -72.501 23.499c-6 3.33301 -11.667 7 -17 11s-10.666 8.33301 -15.999 13
c-38 -22.667 -70.667 -50.667 -98 -84c-35.333 -42 -59 -87 -71 -135c-12 -48.667 -10.333 -95 5 -139c14.667 -40 39.667 -73.333 75 -100c25.333 -18.667 52.833 -31.5 82.5 -38.5s60.167 -7.83301 91.5 -2.5c35.333 6 68.666 18.667 99.999 38
c15.333 10 29.833 21.667 43.5 35s25.167 27.333 34.5 42c12 18 20.667 36.833 26 56.5s6.66602 38.167 3.99902 55.5c-2 16 -7.16699 30.667 -15.5 44s-19.166 23.666 -32.499 30.999c-14 8 -30.167 13 -48.5 15s-37.166 0.333008 -56.499 -5
c-20.667 -5.33301 -40.667 -14 -60 -26s-36.666 -26.333 -51.999 -43c-5.33301 -6.66699 -12.166 -10.167 -20.499 -10.5s-15.5 2.5 -21.5 8.5c-6 5.33301 -9.16699 12.166 -9.5 20.499s2.16699 15.5 7.5 21.5c19.333 21.333 41.166 39.5 65.499 54.5s49.5 25.833 75.5 32.5
c27.333 7.33301 54 9.5 80 6.5s49.333 -10.5 70 -22.5c21.333 -12.667 38.833 -29.5 52.5 -50.5s22.167 -44.167 25.5 -69.5c3.33301 -24.667 1.5 -50.167 -5.5 -76.5s-18.167 -51.5 -33.5 -75.5c-12 -18.667 -26.333 -35.834 -43 -51.501s-34.667 -29.834 -54 -42.501
c-38 -24 -78.667 -39.667 -122 -47c-15.333 -2.66699 -31.666 -4 -48.999 -4zM421.993 893.007c-7.33301 7.33301 -10.333 15 -9 23s4.66602 14.5 9.99902 19.5s12 7.66699 20 8s15.667 -3.16699 23 -10.5l76 -76c6.66699 -7.33301 9.5 -15 8.5 -23
s-4.16699 -14.5 -9.5 -19.5s-12.166 -7.66699 -20.499 -8s-15.833 3.16699 -22.5 10.5zM301.993 338.007c0 -0.666992 0.667969 -1.00098 2.00098 -1.00098c24 -14 59.667 -20 107 -18c24 1.33301 42.167 4.83301 54.5 10.5s20.166 10.167 23.499 13.5
c-3.33301 2.66699 -10.5 5.83398 -21.5 9.50098s-28.167 5.5 -51.5 5.5h-3c-19.333 -0.666992 -38.333 -2.5 -57 -5.5s-36.667 -7.83301 -54 -14.5z" />
    <glyph glyph-name="Eacute" unicode="&#xc9;" horiz-adv-x="685" 
d="M287 -253c-24 0 -47.3398 3.00684 -70.0068 9.00684c-38 9.33301 -71.333 25 -100 47c-22.667 16.667 -42.167 35.834 -58.5 57.501s-29.166 45.167 -38.499 70.5c-19.333 54.667 -21.333 112.334 -6 173.001c7.33301 28 17.833 55.5 31.5 82.5s30.834 52.5 51.501 76.5
c15.333 18.667 32 35.667 50 51s37 29.333 57 42c-7.33301 12 -12.333 24 -15 36c-14.667 46.667 -12.667 95.667 6 147c8.66699 24.667 20.667 48.5 36 71.5s33.333 44.167 54 63.5s43.167 35.833 67.5 49.5s49.166 24.167 74.499 31.5
c26 7.33301 51.833 10.666 77.5 9.99902s49.834 -5 72.501 -13c23.333 -8.66699 43.833 -20.834 61.5 -36.501s31.834 -34.167 42.501 -55.5c4 -7.33301 4.66699 -15 2 -23s-7.66699 -13.667 -15 -17s-15 -3.83301 -23 -1.5s-13.667 7.16602 -17 14.499
c-7.33301 14.667 -17.166 27.334 -29.499 38.001s-26.166 18.667 -41.499 24c-34.667 12.667 -72.667 13.334 -114 2.00098c-21.333 -6 -42 -14.667 -62 -26s-38.667 -25 -56 -41c-16.667 -15.333 -31.334 -32.5 -44.001 -51.5s-22.667 -38.5 -30 -58.5
c-13.333 -40.667 -15 -77.334 -5 -110.001c1.33301 -4.66699 2.83301 -9.16699 4.5 -13.5s3.83398 -8.5 6.50098 -12.5c24 11.333 49.167 19.666 75.5 24.999s52.833 8.33301 79.5 9c40.667 0 72 -5.33301 94 -16c28 -12.667 42.667 -31.667 44 -57
c0.666992 -12 -2.83301 -23.5 -10.5 -34.5s-18.5 -20.5 -32.5 -28.5c-24.667 -13.333 -55.667 -21 -93 -23c-19.333 -0.666992 -41.833 0.166016 -67.5 2.49902s-49.834 10.166 -72.501 23.499c-6 3.33301 -11.667 7 -17 11s-10.666 8.33301 -15.999 13
c-38 -22.667 -70.667 -50.667 -98 -84c-35.333 -42 -59 -87 -71 -135c-12 -48.667 -10.333 -95 5 -139c14.667 -40 39.667 -73.333 75 -100c25.333 -18.667 52.833 -31.5 82.5 -38.5s60.167 -7.83301 91.5 -2.5c35.333 6 68.666 18.667 99.999 38
c15.333 10 29.833 21.667 43.5 35s25.167 27.333 34.5 42c12 18 20.667 36.833 26 56.5s6.66602 38.167 3.99902 55.5c-2 16 -7.16699 30.667 -15.5 44s-19.166 23.666 -32.499 30.999c-14 8 -30.167 13 -48.5 15s-37.166 0.333008 -56.499 -5
c-20.667 -5.33301 -40.667 -14 -60 -26s-36.666 -26.333 -51.999 -43c-5.33301 -6.66699 -12.166 -10.167 -20.499 -10.5s-15.5 2.5 -21.5 8.5c-6 5.33301 -9.16699 12.166 -9.5 20.499s2.16699 15.5 7.5 21.5c19.333 21.333 41.166 39.5 65.499 54.5s49.5 25.833 75.5 32.5
c27.333 7.33301 54 9.5 80 6.5s49.333 -10.5 70 -22.5c21.333 -12.667 38.833 -29.5 52.5 -50.5s22.167 -44.167 25.5 -69.5c3.33301 -24.667 1.5 -50.167 -5.5 -76.5s-18.167 -51.5 -33.5 -75.5c-12 -18.667 -26.333 -35.834 -43 -51.501s-34.667 -29.834 -54 -42.501
c-38 -24 -78.667 -39.667 -122 -47c-15.333 -2.66699 -31.666 -4 -48.999 -4zM514.993 816.007c-7.33301 -7.33301 -15 -10.833 -23 -10.5s-14.667 3 -20 8s-8.66602 11.5 -9.99902 19.5s1.66699 15.667 9 23l76 76c6.66699 7.33301 14.167 10.833 22.5 10.5
s15.166 -3 20.499 -8s8.5 -11.5 9.5 -19.5s-1.83301 -15.667 -8.5 -23zM301.993 338.007c0 -0.666992 0.667969 -1.00098 2.00098 -1.00098c24 -14 59.667 -20 107 -18c24 1.33301 42.167 4.83301 54.5 10.5s20.166 10.167 23.499 13.5
c-3.33301 2.66699 -10.5 5.83398 -21.5 9.50098s-28.167 5.5 -51.5 5.5h-3c-19.333 -0.666992 -38.333 -2.5 -57 -5.5s-36.667 -7.83301 -54 -14.5z" />
    <glyph glyph-name="Ecircumflex" unicode="&#xca;" horiz-adv-x="685" 
d="M287 -253c-24 0 -47.3398 3.00684 -70.0068 9.00684c-38 9.33301 -71.333 25 -100 47c-22.667 16.667 -42.167 35.834 -58.5 57.501s-29.166 45.167 -38.499 70.5c-19.333 54.667 -21.333 112.334 -6 173.001c7.33301 28 17.833 55.5 31.5 82.5s30.834 52.5 51.501 76.5
c15.333 18.667 32 35.667 50 51s37 29.333 57 42c-7.33301 12 -12.333 24 -15 36c-14.667 46.667 -12.667 95.667 6 147c8.66699 24.667 20.667 48.5 36 71.5s33.333 44.167 54 63.5s43.167 35.833 67.5 49.5s49.166 24.167 74.499 31.5
c26 7.33301 51.833 10.666 77.5 9.99902s49.834 -5 72.501 -13c23.333 -8.66699 43.833 -20.834 61.5 -36.501s31.834 -34.167 42.501 -55.5c4 -7.33301 4.66699 -15 2 -23s-7.66699 -13.667 -15 -17s-15 -3.83301 -23 -1.5s-13.667 7.16602 -17 14.499
c-7.33301 14.667 -17.166 27.334 -29.499 38.001s-26.166 18.667 -41.499 24c-34.667 12.667 -72.667 13.334 -114 2.00098c-21.333 -6 -42 -14.667 -62 -26s-38.667 -25 -56 -41c-16.667 -15.333 -31.334 -32.5 -44.001 -51.5s-22.667 -38.5 -30 -58.5
c-13.333 -40.667 -15 -77.334 -5 -110.001c1.33301 -4.66699 2.83301 -9.16699 4.5 -13.5s3.83398 -8.5 6.50098 -12.5c24 11.333 49.167 19.666 75.5 24.999s52.833 8.33301 79.5 9c40.667 0 72 -5.33301 94 -16c28 -12.667 42.667 -31.667 44 -57
c0.666992 -12 -2.83301 -23.5 -10.5 -34.5s-18.5 -20.5 -32.5 -28.5c-24.667 -13.333 -55.667 -21 -93 -23c-19.333 -0.666992 -41.833 0.166016 -67.5 2.49902s-49.834 10.166 -72.501 23.499c-6 3.33301 -11.667 7 -17 11s-10.666 8.33301 -15.999 13
c-38 -22.667 -70.667 -50.667 -98 -84c-35.333 -42 -59 -87 -71 -135c-12 -48.667 -10.333 -95 5 -139c14.667 -40 39.667 -73.333 75 -100c25.333 -18.667 52.833 -31.5 82.5 -38.5s60.167 -7.83301 91.5 -2.5c35.333 6 68.666 18.667 99.999 38
c15.333 10 29.833 21.667 43.5 35s25.167 27.333 34.5 42c12 18 20.667 36.833 26 56.5s6.66602 38.167 3.99902 55.5c-2 16 -7.16699 30.667 -15.5 44s-19.166 23.666 -32.499 30.999c-14 8 -30.167 13 -48.5 15s-37.166 0.333008 -56.499 -5
c-20.667 -5.33301 -40.667 -14 -60 -26s-36.666 -26.333 -51.999 -43c-5.33301 -6.66699 -12.166 -10.167 -20.499 -10.5s-15.5 2.5 -21.5 8.5c-6 5.33301 -9.16699 12.166 -9.5 20.499s2.16699 15.5 7.5 21.5c19.333 21.333 41.166 39.5 65.499 54.5s49.5 25.833 75.5 32.5
c27.333 7.33301 54 9.5 80 6.5s49.333 -10.5 70 -22.5c21.333 -12.667 38.833 -29.5 52.5 -50.5s22.167 -44.167 25.5 -69.5c3.33301 -24.667 1.5 -50.167 -5.5 -76.5s-18.167 -51.5 -33.5 -75.5c-12 -18.667 -26.333 -35.834 -43 -51.501s-34.667 -29.834 -54 -42.501
c-38 -24 -78.667 -39.667 -122 -47c-15.333 -2.66699 -31.666 -4 -48.999 -4zM575.993 801.007c-12.667 0 -21.667 5.33203 -27 15.999l-28 57l-69 -65c-6 -5.33301 -13.167 -8 -21.5 -8s-15.5 3 -21.5 9c-5.33301 6 -7.83301 13.167 -7.5 21.5s3.5 15.5 9.5 21.5l98 92
c8 6.66699 16.667 9 26 7c10 -1.33301 17 -6.66602 21 -15.999l46 -92c4 -7.33301 4.66699 -15 2 -23s-7.66699 -13.667 -15 -17c-4 -2 -8.33301 -3 -13 -3zM301.993 338.006c0 -0.666992 0.667969 -1.00098 2.00098 -1.00098c24 -14 59.667 -20 107 -18
c24 1.33301 42.167 4.83301 54.5 10.5s20.166 10.167 23.499 13.5c-3.33301 2.66699 -10.5 5.83398 -21.5 9.50098s-28.167 5.5 -51.5 5.5h-3c-19.333 -0.666992 -38.333 -2.5 -57 -5.5s-36.667 -7.83301 -54 -14.5z" />
    <glyph glyph-name="Edieresis" unicode="&#xcb;" horiz-adv-x="685" 
d="M287 -253c-24 0 -47.3398 3.00684 -70.0068 9.00684c-38 9.33301 -71.333 25 -100 47c-22.667 16.667 -42.167 35.834 -58.5 57.501s-29.166 45.167 -38.499 70.5c-19.333 54.667 -21.333 112.334 -6 173.001c7.33301 28 17.833 55.5 31.5 82.5s30.834 52.5 51.501 76.5
c15.333 18.667 32 35.667 50 51s37 29.333 57 42c-7.33301 12 -12.333 24 -15 36c-14.667 46.667 -12.667 95.667 6 147c8.66699 24.667 20.667 48.5 36 71.5s33.333 44.167 54 63.5s43.167 35.833 67.5 49.5s49.166 24.167 74.499 31.5
c26 7.33301 51.833 10.666 77.5 9.99902s49.834 -5 72.501 -13c23.333 -8.66699 43.833 -20.834 61.5 -36.501s31.834 -34.167 42.501 -55.5c4 -7.33301 4.66699 -15 2 -23s-7.66699 -13.667 -15 -17s-15 -3.83301 -23 -1.5s-13.667 7.16602 -17 14.499
c-7.33301 14.667 -17.166 27.334 -29.499 38.001s-26.166 18.667 -41.499 24c-34.667 12.667 -72.667 13.334 -114 2.00098c-21.333 -6 -42 -14.667 -62 -26s-38.667 -25 -56 -41c-16.667 -15.333 -31.334 -32.5 -44.001 -51.5s-22.667 -38.5 -30 -58.5
c-13.333 -40.667 -15 -77.334 -5 -110.001c1.33301 -4.66699 2.83301 -9.16699 4.5 -13.5s3.83398 -8.5 6.50098 -12.5c24 11.333 49.167 19.666 75.5 24.999s52.833 8.33301 79.5 9c40.667 0 72 -5.33301 94 -16c28 -12.667 42.667 -31.667 44 -57
c0.666992 -12 -2.83301 -23.5 -10.5 -34.5s-18.5 -20.5 -32.5 -28.5c-24.667 -13.333 -55.667 -21 -93 -23c-19.333 -0.666992 -41.833 0.166016 -67.5 2.49902s-49.834 10.166 -72.501 23.499c-6 3.33301 -11.667 7 -17 11s-10.666 8.33301 -15.999 13
c-38 -22.667 -70.667 -50.667 -98 -84c-35.333 -42 -59 -87 -71 -135c-12 -48.667 -10.333 -95 5 -139c14.667 -40 39.667 -73.333 75 -100c25.333 -18.667 52.833 -31.5 82.5 -38.5s60.167 -7.83301 91.5 -2.5c35.333 6 68.666 18.667 99.999 38
c15.333 10 29.833 21.667 43.5 35s25.167 27.333 34.5 42c12 18 20.667 36.833 26 56.5s6.66602 38.167 3.99902 55.5c-2 16 -7.16699 30.667 -15.5 44s-19.166 23.666 -32.499 30.999c-14 8 -30.167 13 -48.5 15s-37.166 0.333008 -56.499 -5
c-20.667 -5.33301 -40.667 -14 -60 -26s-36.666 -26.333 -51.999 -43c-5.33301 -6.66699 -12.166 -10.167 -20.499 -10.5s-15.5 2.5 -21.5 8.5c-6 5.33301 -9.16699 12.166 -9.5 20.499s2.16699 15.5 7.5 21.5c19.333 21.333 41.166 39.5 65.499 54.5s49.5 25.833 75.5 32.5
c27.333 7.33301 54 9.5 80 6.5s49.333 -10.5 70 -22.5c21.333 -12.667 38.833 -29.5 52.5 -50.5s22.167 -44.167 25.5 -69.5c3.33301 -24.667 1.5 -50.167 -5.5 -76.5s-18.167 -51.5 -33.5 -75.5c-12 -18.667 -26.333 -35.834 -43 -51.501s-34.667 -29.834 -54 -42.501
c-38 -24 -78.667 -39.667 -122 -47c-15.333 -2.66699 -31.666 -4 -48.999 -4zM301.993 338.007c0 -0.666992 0.667969 -1.00098 2.00098 -1.00098c24 -14 59.667 -20 107 -18c24 1.33301 42.167 4.83301 54.5 10.5s20.166 10.167 23.499 13.5
c-3.33301 2.66699 -10.5 5.83398 -21.5 9.50098s-28.167 5.5 -51.5 5.5h-3c-19.333 -0.666992 -38.333 -2.5 -57 -5.5s-36.667 -7.83301 -54 -14.5zM498.994 834.006c0 -8 -2.83301 -15 -8.5 -21s-12.834 -9 -21.501 -9s-15.834 3 -21.501 9s-8.5 13 -8.5 21
c0 8.66699 2.83301 15.834 8.5 21.501s12.834 8.5 21.501 8.5s15.834 -2.83301 21.501 -8.5s8.5 -12.834 8.5 -21.501zM608.994 834.006c0 -8 -2.83301 -15 -8.5 -21s-12.834 -9 -21.501 -9s-15.834 3 -21.501 9s-8.5 13 -8.5 21c0 8.66699 2.83301 15.834 8.5 21.501
s12.834 8.5 21.501 8.5s15.834 -2.83301 21.501 -8.5s8.5 -12.834 8.5 -21.501z" />
    <glyph glyph-name="Igrave" unicode="&#xcc;" horiz-adv-x="540" 
d="M160 -256c-5.33301 0 -10.499 0.161133 -15.499 0.494141s-10.167 0.833008 -15.5 1.5c-32.667 6 -60.334 19.333 -83.001 40c-20 18.667 -33.5 40.667 -40.5 66s-6.83301 52.333 0.5 81c8 28.667 23.333 55.334 46 80.001c23.333 25.333 49.333 43 78 53
c24 9.33301 47.667 12.5 71 9.5s45.333 -11.167 66 -24.5c6.66699 -4.66699 10.834 -11 12.501 -19s0.166992 -15.667 -4.5 -23c-5.33301 -6.66699 -11.833 -10.834 -19.5 -12.501s-15.167 -0.166992 -22.5 4.5c-24.667 16.667 -52 19.667 -82 9
c-20 -7.33301 -38.167 -19.833 -54.5 -37.5s-27.166 -36.167 -32.499 -55.5c-6 -22 -5.83301 -40.167 0.5 -54.5s13.833 -25.166 22.5 -32.499c14.667 -13.333 32.5 -21.666 53.5 -24.999s41.833 -1 62.5 7c30 11.333 55 28.333 75 51c19.333 20 36 46.667 50 80
c13.333 31.333 24 64.5 32 99.5s15 69.167 21 102.5l89 486l-87 -40c-29.333 -14 -57.333 -29.167 -84 -45.5s-51.5 -34.166 -74.5 -53.499s-42.167 -40.666 -57.5 -63.999c-8 -12 -14.833 -26.667 -20.5 -44s-6.83398 -33.333 -3.50098 -48s10.666 -25.334 21.999 -32.001
c13.333 -9.33301 28.333 -11 45 -5c11.333 3.33301 21.833 9.5 31.5 18.5s16.5 18.833 20.5 29.5c3.33301 8 8.83301 13.833 16.5 17.5s15.167 3.83398 22.5 0.500977s12.833 -8.83301 16.5 -16.5s3.83398 -15.167 0.500977 -22.5c-7.33301 -19.333 -19 -36.666 -35 -51.999
s-34 -26 -54 -32c-34.667 -11.333 -67 -7.66602 -97 11.001c-26 18 -42 41.667 -48 71c-5.33301 24.667 -4 49.334 4 74.001s17.667 45.667 29 63c32.667 49.333 83.334 94.666 152.001 135.999c29.333 18 59.666 34.333 90.999 49l90 42
c8.66699 3.33301 16.834 6.83301 24.501 10.5l22.5 10.5c10.667 5.33301 21 4 31 -4c10 -6.66699 13.667 -16.334 11 -29.001l-48.5 -263.5l-35 -189c-9.66699 -52.333 -18 -95.5 -25 -129.5s-13.167 -62 -18.5 -84s-10.333 -39.833 -15 -53.5
s-9.33398 -26.167 -14.001 -37.5c-8.66699 -19.333 -17.834 -37 -27.501 -53s-20.5 -30.667 -32.5 -44c-27.333 -29.333 -60.333 -51.666 -99 -66.999c-22 -7.33301 -43.333 -11 -64 -11zM280.001 805.994c-7.33301 7.33301 -10.333 15 -9 23s4.66602 14.5 9.99902 19.5
s12 7.66699 20 8s15.667 -3.16699 23 -10.5l76 -76c6.66699 -7.33301 9.5 -15 8.5 -23s-4.16699 -14.5 -9.5 -19.5s-12.166 -7.66699 -20.499 -8s-15.833 3.16699 -22.5 10.5z" />
    <glyph glyph-name="Iacute" unicode="&#xcd;" horiz-adv-x="540" 
d="M160 -256c-5.33301 0 -10.499 0.161133 -15.499 0.494141s-10.167 0.833008 -15.5 1.5c-32.667 6 -60.334 19.333 -83.001 40c-20 18.667 -33.5 40.667 -40.5 66s-6.83301 52.333 0.5 81c8 28.667 23.333 55.334 46 80.001c23.333 25.333 49.333 43 78 53
c24 9.33301 47.667 12.5 71 9.5s45.333 -11.167 66 -24.5c6.66699 -4.66699 10.834 -11 12.501 -19s0.166992 -15.667 -4.5 -23c-5.33301 -6.66699 -11.833 -10.834 -19.5 -12.501s-15.167 -0.166992 -22.5 4.5c-24.667 16.667 -52 19.667 -82 9
c-20 -7.33301 -38.167 -19.833 -54.5 -37.5s-27.166 -36.167 -32.499 -55.5c-6 -22 -5.83301 -40.167 0.5 -54.5s13.833 -25.166 22.5 -32.499c14.667 -13.333 32.5 -21.666 53.5 -24.999s41.833 -1 62.5 7c30 11.333 55 28.333 75 51c19.333 20 36 46.667 50 80
c13.333 31.333 24 64.5 32 99.5s15 69.167 21 102.5l89 486l-87 -40c-29.333 -14 -57.333 -29.167 -84 -45.5s-51.5 -34.166 -74.5 -53.499s-42.167 -40.666 -57.5 -63.999c-8 -12 -14.833 -26.667 -20.5 -44s-6.83398 -33.333 -3.50098 -48s10.666 -25.334 21.999 -32.001
c13.333 -9.33301 28.333 -11 45 -5c11.333 3.33301 21.833 9.5 31.5 18.5s16.5 18.833 20.5 29.5c3.33301 8 8.83301 13.833 16.5 17.5s15.167 3.83398 22.5 0.500977s12.833 -8.83301 16.5 -16.5s3.83398 -15.167 0.500977 -22.5c-7.33301 -19.333 -19 -36.666 -35 -51.999
s-34 -26 -54 -32c-34.667 -11.333 -67 -7.66602 -97 11.001c-26 18 -42 41.667 -48 71c-5.33301 24.667 -4 49.334 4 74.001s17.667 45.667 29 63c32.667 49.333 83.334 94.666 152.001 135.999c29.333 18 59.666 34.333 90.999 49l90 42
c8.66699 3.33301 16.834 6.83301 24.501 10.5l22.5 10.5c10.667 5.33301 21 4 31 -4c10 -6.66699 13.667 -16.334 11 -29.001l-48.5 -263.5l-35 -189c-9.66699 -52.333 -18 -95.5 -25 -129.5s-13.167 -62 -18.5 -84s-10.333 -39.833 -15 -53.5
s-9.33398 -26.167 -14.001 -37.5c-8.66699 -19.333 -17.834 -37 -27.501 -53s-20.5 -30.667 -32.5 -44c-27.333 -29.333 -60.333 -51.666 -99 -66.999c-22 -7.33301 -43.333 -11 -64 -11zM374.001 729.994c-7.33301 -7.33301 -15 -10.833 -23 -10.5s-14.667 3 -20 8
s-8.66602 11.5 -9.99902 19.5s1.66699 15.667 9 23l76 76c6.66699 7.33301 14.167 10.833 22.5 10.5s15.166 -3 20.499 -8s8.5 -11.5 9.5 -19.5s-1.83301 -15.667 -8.5 -23z" />
    <glyph glyph-name="Icircumflex" unicode="&#xce;" horiz-adv-x="540" 
d="M160 -256c-5.33301 0 -10.499 0.161133 -15.499 0.494141s-10.167 0.833008 -15.5 1.5c-32.667 6 -60.334 19.333 -83.001 40c-20 18.667 -33.5 40.667 -40.5 66s-6.83301 52.333 0.5 81c8 28.667 23.333 55.334 46 80.001c23.333 25.333 49.333 43 78 53
c24 9.33301 47.667 12.5 71 9.5s45.333 -11.167 66 -24.5c6.66699 -4.66699 10.834 -11 12.501 -19s0.166992 -15.667 -4.5 -23c-5.33301 -6.66699 -11.833 -10.834 -19.5 -12.501s-15.167 -0.166992 -22.5 4.5c-24.667 16.667 -52 19.667 -82 9
c-20 -7.33301 -38.167 -19.833 -54.5 -37.5s-27.166 -36.167 -32.499 -55.5c-6 -22 -5.83301 -40.167 0.5 -54.5s13.833 -25.166 22.5 -32.499c14.667 -13.333 32.5 -21.666 53.5 -24.999s41.833 -1 62.5 7c30 11.333 55 28.333 75 51c19.333 20 36 46.667 50 80
c13.333 31.333 24 64.5 32 99.5s15 69.167 21 102.5l89 486l-87 -40c-29.333 -14 -57.333 -29.167 -84 -45.5s-51.5 -34.166 -74.5 -53.499s-42.167 -40.666 -57.5 -63.999c-8 -12 -14.833 -26.667 -20.5 -44s-6.83398 -33.333 -3.50098 -48s10.666 -25.334 21.999 -32.001
c13.333 -9.33301 28.333 -11 45 -5c11.333 3.33301 21.833 9.5 31.5 18.5s16.5 18.833 20.5 29.5c3.33301 8 8.83301 13.833 16.5 17.5s15.167 3.83398 22.5 0.500977s12.833 -8.83301 16.5 -16.5s3.83398 -15.167 0.500977 -22.5c-7.33301 -19.333 -19 -36.666 -35 -51.999
s-34 -26 -54 -32c-34.667 -11.333 -67 -7.66602 -97 11.001c-26 18 -42 41.667 -48 71c-5.33301 24.667 -4 49.334 4 74.001s17.667 45.667 29 63c32.667 49.333 83.334 94.666 152.001 135.999c29.333 18 59.666 34.333 90.999 49l90 42
c8.66699 3.33301 16.834 6.83301 24.501 10.5l22.5 10.5c10.667 5.33301 21 4 31 -4c10 -6.66699 13.667 -16.334 11 -29.001l-48.5 -263.5l-35 -189c-9.66699 -52.333 -18 -95.5 -25 -129.5s-13.167 -62 -18.5 -84s-10.333 -39.833 -15 -53.5
s-9.33398 -26.167 -14.001 -37.5c-8.66699 -19.333 -17.834 -37 -27.501 -53s-20.5 -30.667 -32.5 -44c-27.333 -29.333 -60.333 -51.666 -99 -66.999c-22 -7.33301 -43.333 -11 -64 -11zM402.001 724.994c-12.667 0 -21.667 5.33203 -27 15.999l-28 57l-69 -65
c-6 -5.33301 -13.167 -8 -21.5 -8s-15.5 3 -21.5 9c-5.33301 6 -7.83301 13.167 -7.5 21.5s3.5 15.5 9.5 21.5l98 92c8 6.66699 16.667 9 26 7c10 -1.33301 17 -6.66602 21 -15.999l46 -92c4 -7.33301 4.66699 -15 2 -23s-7.66699 -13.667 -15 -17c-4 -2 -8.33301 -3 -13 -3
z" />
    <glyph glyph-name="Idieresis" unicode="&#xcf;" horiz-adv-x="540" 
d="M160 -256c-5.33301 0 -10.499 0.161133 -15.499 0.494141s-10.167 0.833008 -15.5 1.5c-32.667 6 -60.334 19.333 -83.001 40c-20 18.667 -33.5 40.667 -40.5 66s-6.83301 52.333 0.5 81c8 28.667 23.333 55.334 46 80.001c23.333 25.333 49.333 43 78 53
c24 9.33301 47.667 12.5 71 9.5s45.333 -11.167 66 -24.5c6.66699 -4.66699 10.834 -11 12.501 -19s0.166992 -15.667 -4.5 -23c-5.33301 -6.66699 -11.833 -10.834 -19.5 -12.501s-15.167 -0.166992 -22.5 4.5c-24.667 16.667 -52 19.667 -82 9
c-20 -7.33301 -38.167 -19.833 -54.5 -37.5s-27.166 -36.167 -32.499 -55.5c-6 -22 -5.83301 -40.167 0.5 -54.5s13.833 -25.166 22.5 -32.499c14.667 -13.333 32.5 -21.666 53.5 -24.999s41.833 -1 62.5 7c30 11.333 55 28.333 75 51c19.333 20 36 46.667 50 80
c13.333 31.333 24 64.5 32 99.5s15 69.167 21 102.5l89 486l-87 -40c-29.333 -14 -57.333 -29.167 -84 -45.5s-51.5 -34.166 -74.5 -53.499s-42.167 -40.666 -57.5 -63.999c-8 -12 -14.833 -26.667 -20.5 -44s-6.83398 -33.333 -3.50098 -48s10.666 -25.334 21.999 -32.001
c13.333 -9.33301 28.333 -11 45 -5c11.333 3.33301 21.833 9.5 31.5 18.5s16.5 18.833 20.5 29.5c3.33301 8 8.83301 13.833 16.5 17.5s15.167 3.83398 22.5 0.500977s12.833 -8.83301 16.5 -16.5s3.83398 -15.167 0.500977 -22.5c-7.33301 -19.333 -19 -36.666 -35 -51.999
s-34 -26 -54 -32c-34.667 -11.333 -67 -7.66602 -97 11.001c-26 18 -42 41.667 -48 71c-5.33301 24.667 -4 49.334 4 74.001s17.667 45.667 29 63c32.667 49.333 83.334 94.666 152.001 135.999c29.333 18 59.666 34.333 90.999 49l90 42
c8.66699 3.33301 16.834 6.83301 24.501 10.5l22.5 10.5c10.667 5.33301 21 4 31 -4c10 -6.66699 13.667 -16.334 11 -29.001l-48.5 -263.5l-35 -189c-9.66699 -52.333 -18 -95.5 -25 -129.5s-13.167 -62 -18.5 -84s-10.333 -39.833 -15 -53.5
s-9.33398 -26.167 -14.001 -37.5c-8.66699 -19.333 -17.834 -37 -27.501 -53s-20.5 -30.667 -32.5 -44c-27.333 -29.333 -60.333 -51.666 -99 -66.999c-22 -7.33301 -43.333 -11 -64 -11zM425.001 765.994c0 -8 -2.83301 -15 -8.5 -21s-12.834 -9 -21.501 -9
s-15.834 3 -21.501 9s-8.5 13 -8.5 21c0 8.66699 2.83301 15.834 8.5 21.501s12.834 8.5 21.501 8.5s15.834 -2.83301 21.501 -8.5s8.5 -12.834 8.5 -21.501zM315.001 765.994c0 -8 -2.83301 -15 -8.5 -21s-12.834 -9 -21.501 -9s-15.834 3 -21.501 9s-8.5 13 -8.5 21
c0 8.66699 2.83301 15.834 8.5 21.501s12.834 8.5 21.501 8.5s15.834 -2.83301 21.501 -8.5s8.5 -12.834 8.5 -21.501z" />
    </font>
</defs>
</svg>
